<ttFont>
          <CharString index="0">
            562 728 rmoveto
            9 -21 -18 3 -21 hhcurveto
            -197 -170 -348 -245 -151 67 -80 122 -1 callsubr
            114 -50 23 -33 16 vhcurveto
            2 -14 6 -20 -65 vvcurveto
            -163 -58 -183 -93 -111 vhcurveto
            -78 -65 -88 -52 -65 hhcurveto
            -66 -36 50 104 239 177 283 182 18 24 -2 -5 23 hvcurveto
            -3 21 -64 50 -50 21 rrcurveto
            return
          </CharString>
          <CharString index="1">
            2 callgsubr
            167 -20 hstemhm
            61 -21 callgsubr
            hintmask 10111100
            146 -76 rmoveto
            4 56 15 67 22 63 20 59 29 61 32 59 84 -3 92 -4 37 -3 rrcurveto
            -14 -90 -6 -86 -82 vvcurveto
            -18 0 -17 1 -17 vhcurveto
            hintmask 01111100
            -5 callgsubr
            84 5 68 7 53 vhcurveto
            28 213 46 160 44 77 rrcurveto
            18 -5 -101 44 -37 hhcurveto
            -3 -1 -7 -1 -9 vhcurveto
            -109 -59 -135 -146 -105 -174 -61 -11 -39 -14 -8 -20 rrcurveto
            17 29 -1 -1 34 hvcurveto
            -83 -146 -50 -115 -43 vvcurveto
            hintmask 10111100
            -28 21 -16 64 -19 vhcurveto
            386 601 rmoveto
            -15 -57 -13 -56 -10 -55 -71 -1 -64 -3 -56 -5 83 134 99 108 67 25 -7 -36 -8 -35 -5 -19 rrcurveto
            return
          </CharString>
          <CharString index="2">
            -20 hstem
            473 155 rmoveto
            28 87 37 84 41 87 rrcurveto
            15 -12 -50 17 -35 hhcurveto
            -65 -107 -41 -93 -63 -95 -50 -74 -42 -34 -24 -4 -27 callsubr
            30 91 12 30 vhcurveto
            60 142 55 76 15 13 rrcurveto
            23 -23 -46 8 -22 hhcurveto
            -83 -61 -71 -169 -25 -101 rrcurveto
            -7 -28 -2 -19 -38 vvcurveto
            11 -47 57 -29 42 -2 62 22 73 113 34 54 rrcurveto
            -288 -75 -144 -185 -152 hhcurveto
            -30 -10 5 28 -31 hvcurveto
            -8 -5 -6 -8 -8 vvcurveto
            -37 20 71 -32 66 hhcurveto
            65 67 35 64 61 hvcurveto
            97 101 60 121 60 195 rrcurveto
            return
          </CharString>
          <CharString index="3">
            -2 2 -5 6 10 vvcurveto
            35 29 91 13 30 vhcurveto
            60 142 55 76 12 13 rrcurveto
            23 -20 -46 8 -23 hhcurveto
            -84 -61 -71 -169 -24 -101 rrcurveto
            -6 -28 -2 -20 -37 vvcurveto
            11 -47 56 -29 42 -2 9 1 17 12 17 18 22 26 72 103 11 -1 rrcurveto
            -3 -9 -2 -12 -15 vvcurveto
            -23 7 -37 25 -21 vhcurveto
            return
          </CharString>
          <CharString index="4">
            22 rmoveto
            -21 31 46 -18 18 hhcurveto
            0 4 1 3 13 -22 22 57 vvcurveto
            105 77 112 49 117 vhcurveto
            15 -12 -48 17 -35 hhcurveto
            -45 -43 -21 -58 -12 -33 -22 -59 -49 -61 -27 -37 -55 -75 -27 -33 -20 -8 rrcurveto
            return
          </CharString>
          <CharString index="5">
            -20 35 -22 25 -21 11 rrcurveto
            -31 -36 -14 -27 -36 hvcurveto
            -94 -69 -69 -129 -107 vvcurveto
            -90 49 -64 76 -8 vhcurveto
            15 callgsubr
            rrcurveto
            9 -14 4 -19 -34 vvcurveto
            -156 -87 -128 -119 -26 vhcurveto
            -13 4 -13 35 32 vvcurveto
            53 35 89 46 61 vhcurveto
            return
          </CharString>
          <CharString index="6">
            753 674 rmoveto
            37 -83 -85 27 -87 hhcurveto
            -47 -50 -8 -18 -43 hvcurveto
            -85 -35 -47 -72 -75 vvcurveto
            -95 71 -51 169 -74 vhcurveto
            113 -49 100 -44 2 -53 rrcurveto
            -31 -3 -31 -88 -149 hhcurveto
            -68 -82 18 43 -73 hvcurveto
            -78 46 -39 61 -4 40 rrcurveto
            -40 -45 -13 -44 -27 vvcurveto
            -114 226 -99 148 153 95 106 137 118 -62 39 -135 63 vhcurveto
            -108 50 -131 63 -8 58 rrcurveto
            47 1 76 29 93 hhcurveto
            94 109 -30 -73 53 hvcurveto
            33 16 21 42 44 vvcurveto
            14 -2 4 -4 23 vhcurveto
            return
          </CharString>
          <CharString index="7">
            rmoveto
            1 -7 -5 0 -16 hhcurveto
            -27 -21 -5 -9 -13 hvcurveto
            1 -4 1 -4 2 -4 -41 -35 -44 -23 -52 -13 rrcurveto
            -17 16 18 -5 20 hhcurveto
            31 45 18 27 36 hvcurveto
            -33 28 38 -23 33 hhcurveto
            4 3 0 1 2 hvcurveto
            -30 19 -13 34 -9 75 rrcurveto
            endchar
          </CharString>
          <CharString index="8">
            -20 hstemhm
            hintmask 10110000
            43 -17 rmoveto
            3 -17 8 -13 12 -7 14 4 31 45 17 18 rrcurveto
            17 13 13 13 18 hhcurveto
            hintmask 11010000
            36 50 -73 75 hhcurveto
            46 53 28 36 13 hvcurveto
            -6 26 -11 53 -52 11 rrcurveto
            -16 -1 -47 -40 -39 hhcurveto
            -34 -12 28 5 -41 hvcurveto
            38 57 78 69 67 59 39 33 53 4 23 45 -7 26 -11 16 -16 8 -26 -5 -16 -13 -20 -10 -43 41 -58 37 -63 26 -41 -7 -25 -23 -33 -54 7 -46 26 -18 33 -11 rrcurveto
            12 4 32 41 27 hhcurveto
            18 64 -21 -17 10 hvcurveto
            -17 -15 -133 -136 -77 -67 rrcurveto
            -47 -42 -16 -10 -13 vvcurveto
            -5 2 -3 5 -7 vhcurveto
            -19 -32 -12 -13 -5 -24 rrcurveto
            return
          </CharString>
          <CharString index="9">
            rmoveto
            54 52 54 21 42 14 -20 26 -16 16 -13 3 -29 -9 -45 -29 -40 -42 rrcurveto
            60 -36 -27 20 -38 hhcurveto
            -4 -3 0 -2 -10 hvcurveto
            39 -36 11 -22 28 -59 rrcurveto
            13 20 -3 -10 20 hvcurveto
            endchar
          </CharString>
          <CharString index="10">
            -28 14 53 -16 61 hhcurveto
            4 5 0 1 4 hvcurveto
            -1 1 0 1 1 vvcurveto
            3 160 130 521 127 52 -15 29 -43 32 -29 5 -50 -6 -101 -329 -64 -321 rrcurveto
            -41 144 -7 137 145 vvcurveto
            73 5 71 6 32 vhcurveto
            18 -6 -113 44 -37 hhcurveto
            7 -42 rlineto
            -88 -125 -182 -449 -121 vvcurveto
            return
          </CharString>
          <CharString index="11">
            rmoveto
            88 40 72 95 17 60 -7 33 -67 34 -68 4 rrcurveto
            8 -29 4 -26 -24 vvcurveto
            -58 -23 -44 -40 -47 -67 callsubr
          </CharString>
          <CharString index="12">
            470 345 rmoveto
            -29 32 -61 262 98 vvcurveto
            -53 -2 -92 -14 -26 -10 49 -55 58 -165 67 -207 -32 -101 -43 -146 -42 -73 rrcurveto
            -10 10 115 -27 29 hhcurveto
            77 32 146 40 137 vhcurveto
            80 118 84 106 147 176 -19 19 -34 16 -35 4 -68 -152 -78 -120 -99 -109 rrcurveto
            return
          </CharString>
          <CharString index="13">
            473 57 rmoveto
            -59 -4 -31 -5 -54 -13 -61 -15 -23 -4 -42 -2 1 39 57 127 59 156 61 159 53 126 20 34 -36 53 -37 27 -53 11 -32 -147 -16 -62 -49 -143 -75 -219 -56 -108 -26 -60 rrcurveto
            26 -44 33 -33 30 -11 rrcurveto
            21 130 62 6 64 hhcurveto
            27 24 -1 -3 23 hvcurveto
            3 10 2 10 12 vvcurveto
            26 -8 28 -17 29 vhcurveto
            return
          </CharString>
          <CharString index="14">
            4 callsubr
            -13 16 17 -6 22 hhcurveto
            42 46 22 68 102 hvcurveto
            37 -30 60 -28 17 vhcurveto
            endchar
          </CharString>
          <CharString index="15">
            514 426 rmoveto
            -30 -48 -5 -8 -50 hvcurveto
            68 152 21 44 16 24 rrcurveto
            8 55 60 9 73 hhcurveto
            20 24 -1 -4 41 hvcurveto
            58 -12 -25 34 -31 return
          </CharString>
          <CharString index="16">
            64 rmoveto
            -43 9 -38 12 -8 vhcurveto
            9 -6 15 -16 3 -7 4 -9 15 -8 18 -2 rrcurveto
            -1 5 0 1 23 vvcurveto
            84 30 130 56 156 vhcurveto
            66 183 75 135 104 123 -11 17 -69 40 -32 6 return
          </CharString>
          <CharString index="17">
            rmoveto
            22 -9 -55 26 -32 hhcurveto
            -123 -233 -277 -380 -156 -141 5 -22 22 -21 15 -3 136 131 272 320 202 301 rrcurveto
            return
          </CharString>
          <CharString index="18">
            56 rmoveto
            -60 65 -26 9 6 0 10 24 32 14 31 14 46 vhcurveto
            27 87 23 71 59 69 -26 38 -46 23 -22 3 -60 -28 -25 -108 -5 -24 rrcurveto
            -25 -118 -8 -46 -24 vvcurveto
            return
          </CharString>
          <CharString index="19">
            rmoveto
            -37 -50 -34 -51 -35 -51 rrcurveto
            -1 -14 -14 0 -13 hhcurveto
            -14 -16 1 3 -16 hvcurveto
            32 32 65 54 50 41 -28 18 -31 9 -29 7 -39 -60 -52 -60 -60 -47 rrcurveto
            -28 50 30 -5 76 hhcurveto
            -17 -27 -14 -27 -12 -29 20 -17 28 -2 29 -1 15 45 19 39 23 35 47 13 rcurveline
            -2 8 -5 6 -6 4 rrcurveto
            -4 -7 -1 -1 -4 hvcurveto
            29 40 30 35 38 38 -16 18 -29 10 -33 2 rrcurveto
            endchar
          </CharString>
          <CharString index="20">
            -50 18 -24 36 20 29 8 10 16 vhcurveto
            -18 10 -8 26 37 vvcurveto
            68 37 118 54 112 vhcurveto
            13 1 -47 22 -28 hhcurveto
            return
          </CharString>
          <CharString index="21">
            -60 28 41 -44 35 hhcurveto
            4 3 0 1 2 hvcurveto
            -30 31 -13 52 -9 121 rrcurveto
            endchar
          </CharString>
          <CharString index="22">
            rmoveto
            77 14 56 38 13 45 -4 11 -5 6 -7 2 -23 -32 -31 -21 -50 -8 -41 3 -39 16 -18 45 -37 -4 -15 -8 -17 -19 19 -61 68 -23 54 -4 rrcurveto
            endchar
          </CharString>
          <CharString index="23">
            rmoveto
            -11 18 -13 17 -3 vhcurveto
            9 20 47 62 20 14 rrcurveto
            12 -20 -67 11 -31 hhcurveto
            -3 -11 -2 -12 -11 vvcurveto
            -15 4 -14 11 -11 -55 callsubr
            endchar
          </CharString>
          <CharString index="24">
            23 -4 13 -9 -12 vvcurveto
            -43 -103 -23 -70 -15 -21 3 3 -17 vhcurveto
            -1 -1 -9 -1 vvcurveto
            -27 17 -21 32 -5 vhcurveto
            98 142 32 84 29 -15 18 -43 6 hvcurveto
            40 23 24 31 25 vvcurveto
            27 -25 29 -68 -35 -62 -9 -14 -26 vhcurveto
            return
          </CharString>
          <CharString index="25">
            -13 22 -38 20 -17 2 rrcurveto
            -50 -3 -8 -51 -41 vvcurveto
            131 return
          </CharString>
          <CharString index="26">
            rmoveto
            -46 9 52 -43 82 hhcurveto
            44 51 9 21 59 hvcurveto
            -5 27 -13 45 -16 18 rrcurveto
            -32 -68 -52 -15 -51 hhcurveto
            -30 -30 5 11 -32 hvcurveto
            endchar
          </CharString>
          <CharString index="27">
            32 12 62 19 22 4 -35 -57 -25 -27 -62 -52 rrcurveto
            -8 16 -28 5 32 160 139 27 10 -46 39 -12 -25 -50 -13 -13 -25 vhcurveto
            return
          </CharString>
          <CharString index="28">
            rmoveto
            -28 -8 -30 -32 -24 vvcurveto
            -42 102 46 -13 42 hhcurveto
            22 17 6 13 16 hvcurveto
            -59 13 -72 38 -56 49 rrcurveto
            endchar
          </CharString>
          <CharString index="29">
            rmoveto
            1 -7 -5 0 -16 hhcurveto
            -27 -21 -5 -9 -13 hvcurveto
            1 -4 1 -4 2 -4 -41 -35 -44 -23 -52 -13 rrcurveto
            hintmask 10111100
            -17 16 18 -5 20 hhcurveto
            31 45 18 27 36 hvcurveto
            -33 28 38 -23 33 hhcurveto
            4 3 0 1 2 hvcurveto
            -30 19 -13 34 -9 75 rrcurveto
            endchar
          </CharString>
          <CharString index="30">
            33 36 27 37 24 16 -14 -21 -37 -54 -38 -78 -46 vhcurveto
            -77 -45 -35 -21 -11 -31 7 -17 20 -14 23 -7 rrcurveto
            63 33 167 -43 59 vvcurveto
            17 -16 22 -10 9 vhcurveto
            -40 -26 -56 -18 -53 -4 12 14 19 14 28 18 rrcurveto
            90 57 71 44 51 vvcurveto
            return
          </CharString>
          <CharString index="31">
            268 -76 87 265 76 336 -44 callsubr
            -15 -50 -47 -131 -50 -132 rrcurveto
            -45 -36 1 2 -36 hvcurveto
            -37 -1 -16 -2 -13 vhcurveto
            27 -5 31 -4 34 -2 -35 -91 -34 -85 -22 -50 rrcurveto
            353 636 rmoveto
            145 92 -80 -137 -246 -181 -214 -217 -31 -28 3 6 -18 hvcurveto
            34 26 81 62 141 vhcurveto
            55 56 3 6 53 hvcurveto
            28 -11 42 -11 17 vhcurveto
            -34 -6 -35 -5 -37 -4 56 120 57 109 19 27 1 callsubr
          </CharString>
          <CharString index="32">
            rmoveto
            1 -11 3 -55 -19 vvcurveto
            -121 -47 -247 -72 -148 vhcurveto
            -60 -123 -81 -87 -81 -31 rrcurveto
            -21 14 -8 18 23 vvcurveto
            38 30 59 42 44 vhcurveto
            -17 21 -58 26 -33 3 rrcurveto
            -39 -77 -18 -57 -37 vvcurveto
            -70 77 -47 107 -1 vhcurveto
            40 8 49 29 46 44 96 92 72 144 63 239 17 64 16 79 27 136 rrcurveto
            29 -41 -59 21 -51 hhcurveto
            return
          </CharString>
          <CharString index="33">
            50 73 -34 73 hhcurveto
            37 33 10 19 30 hvcurveto
            1 9 1 6 10 vvcurveto
            37 -17 32 -30 19 vhcurveto
            -30 -35 -71 -22 -61 hhcurveto
            -24 -19 3 6 -14 hvcurveto
            76 105 162 140 83 32 rrcurveto
            26 -12 34 -12 9 vhcurveto
            -6 -12 -21 -5 -14 return
          </CharString>
          <CharString index="34">
            rmoveto
            -2 -4 0 -2 -4 vvcurveto
            -19 13 -16 22 -9 vhcurveto
            23 30 50 16 33 hhcurveto
            12 11 -4 -6 4 hvcurveto
            -58 -3 -89 -17 -66 hhcurveto
            -30 19 -14 21 12 23 4 8 22 vhcurveto
            return
          </CharString>
          <CharString index="35">
            rmoveto
            -28 -17 -30 -60 -37 vvcurveto
            -68 102 46 -22 42 hhcurveto
            22 17 6 13 16 hvcurveto
            -59 22 -72 71 -56 92 rrcurveto
            endchar
          </CharString>
          <CharString index="36">
            23 59 44 54 23 hvcurveto
            38 -25 -76 36 -31 hhcurveto
            -6 -24 -23 -76 -33 vvcurveto
            6 -18 29 -18 21 -3 rrcurveto
            return
          </CharString>
          <CharString index="37">
            vhcurveto
            -13 8 -18 8 -7 vhcurveto
            return
          </CharString>
          <CharString index="38">
            119 187 rmoveto
            -426 -109 -36 -78 -85 hhcurveto
            -34 -23 10 24 -23 hvcurveto
            -7 -1 -9 -11 -1 -9 rrcurveto
            -33 23 61 -25 58 hhcurveto
            80 53 60 157 59 hvcurveto
            25 67 62 201 45 159 11 41 21 46 43 76 rrcurveto
            18 -26 -22 9 -19 hhcurveto
            -52 -45 -88 -197 -50 hvcurveto
            return
          </CharString>
          <CharString index="39">
            106 41 rmoveto
            -39 17 -27 42 -13 vhcurveto
            42 57 19 35 51 68 25 32 53 66 21 10 -2 -22 -4 -17 -15 -59 rrcurveto
            -8 -32 -3 -25 -39 vvcurveto
            return
          </CharString>
          <CharString index="40">
            -70 callsubr
            endchar
          </CharString>
          <CharString index="41">
            rrcurveto
            -172 -64 -42 -58 -69 hhcurveto
            -33 -33 14 22 -19 hvcurveto
            -7 -4 -6 -13 -9 vvcurveto
            -31 32 43 -17 46 hhcurveto
            return
          </CharString>
          <CharString index="42">
            -42 -124 -20 -157 hhcurveto
            -37 -20 1 4 -25 hvcurveto
            -2 -7 -5 -18 -6 vvcurveto
            -41 31 -25 48 vhcurveto
            return
          </CharString>
          <CharString index="43">
            1 vvcurveto
            -82 callsubr
            return
          </CharString>
          <CharString index="44">
            -25 -81 -26 -59 -40 -41 rrcurveto
            -7 12 11 -4 13 hhcurveto
            42 55 56 74 41 hvcurveto
            -16 33 -37 22 -30 7 rrcurveto
            return
          </CharString>
          <CharString index="45">
            171 57 69 118 44 hhcurveto
            -4 -26 -1 -9 -8 vvcurveto
            -15 2 -7 5 -12 vhcurveto
            3 -13 2 -13 1 -15 rrcurveto
            -21 1 3 -8 8 hhcurveto
            18 14 18 32 17 50 8 31 13 35 11 19 rrcurveto
            9 -13 -11 4 -7 hhcurveto
            -14 -24 -9 -9 -12 hvcurveto
            -8 -16 3 -16 hhcurveto
            -109 -107 -127 -202 -63 hvcurveto
            -49 -7 -47 -10 -13 -5 rrcurveto
            -8 4 -11 5 -5 vhcurveto
            4 24 21 1 44 hhcurveto
            return
          </CharString>
          <CharString index="46">
            -35 -229 -28 -137 hhcurveto
            -45 -36 3 8 -17 hvcurveto
            -5 -10 -4 -18 -10 vvcurveto
            -43 30 -34 53 vhcurveto
            return
          </CharString>
          <CharString index="47">
            rmoveto
            -37 -1 -16 -1 -13 vhcurveto
            -9 41 49 -4 62 hhcurveto
            52 53 3 6 49 hvcurveto
            return
          </CharString>
          <CharString index="48">
            rmoveto
            -30 5 -15 18 34 vvcurveto
            104 144 218 96 41 vhcurveto
            1 -5 0 -1 -23 vvcurveto
            -156 -102 -202 -94 -33 vhcurveto
            return
          </CharString>
          <CharString index="49">
            562 728 rmoveto
            9 -21 -18 3 -21 hhcurveto
            -197 -170 -348 -245 -57 9 -46 18 -36 hvcurveto
            -28 -19 -26 -16 -23 -11 1 -19 10 -16 15 -3 24 14 25 16 26 18 rrcurveto
            -37 32 46 -19 60 hhcurveto
            -1 callsubr
            25 -3 21 -4 18 vhcurveto
            35 43 34 44 33 45 rrcurveto
            return
          </CharString>
          <CharString index="50">
            550 rmoveto
            -11 -1 -19 -11 -4 -11 75 -23 81 -55 53 -51 57 -56 12 -16 5 -24 -69 -1 -180 -5 -89 -3 rrcurveto
            -61 -2 -40 -19 -40 vvcurveto
            -21 10 -26 23 -32 vhcurveto
            38 135 64 15 96 36 44 -3 38 hhcurveto
            33 29 3 10 17 hvcurveto
            2 9 1 10 9 vvcurveto
            53 -33 49 -29 29 vhcurveto
            -78 76 -82 66 -116 33 rrcurveto
            return
          </CharString>
          <CharString index="51">
            rmoveto
            19 49 37 45 19 hvcurveto
            32 -20 -64 29 -25 hhcurveto
            -5 -19 -20 -64 -27 vvcurveto
            5 -15 25 -15 17 -3 rrcurveto
            endchar
          </CharString>
          <CharString index="52">
            vhcurveto
            -2 -8 -1 -6 -4 vvcurveto
            return
          </CharString>
          <CharString index="53">
            rmoveto
            -71 callsubr
            return
          </CharString>
          <CharString index="54">
            rmoveto
            43 -44 28 -67 -73 -75 -38 -42 -26 30 -21 40 4 5 0 4 20 vhcurveto
            -16 14 -7 11 11 vvcurveto
            return
          </CharString>
          <CharString index="55">
            15 -5 -35 10 -29 hhcurveto
            -54 -38 -36 -62 -17 hvcurveto
            -26 -94 -27 -152 -53 vvcurveto
            return
          </CharString>
          <CharString index="56">
            20 113 59 6 89 hhcurveto
            -93 callgsubr
            return
          </CharString>
          <CharString index="57">
            -34 -7 -25 -6 -7 -5 7 -16 16 -14 21 -9 -64 -167 -34 -84 -21 -44 28 -45 31 -31 50 -12 20 111 34 116 59 139 return
          </CharString>
          <CharString index="58">
            rmoveto
            -79 callgsubr
            return
          </CharString>
          <CharString index="59">
            rmoveto
            8 16 3 13 13 vvcurveto
            46 -45 39 -55 -50 -60 -39 -58 -49 52 -40 52 40 35 25 34 20 vhcurveto
            -31 51 rmoveto
            -35 -28 -50 -48 return
          </CharString>
          <CharString index="60">
            239 177 283 182 18 24 -2 -5 23 vhcurveto
            -3 21 -64 50 -50 21 rrcurveto
            160 -250 rmoveto
            -15 -142 -53 -145 -79 -94 rrcurveto
            -78 -65 -88 -52 -65 hhcurveto
            -43 -30 22 43 -16 hvcurveto
            143 112 161 159 150 175 rrcurveto
            return
          </CharString>
          <CharString index="61">
            464 408 rmoveto
            -32 -18 -40 -101 -22 -95 rrcurveto
            -86 -66 -74 -63 -39 hhcurveto
            -13 -5 6 13 107 131 193 119 19 hvcurveto
            -4 29 -49 44 -24 6 rrcurveto
            -70 -4 -186 -140 -200 vvcurveto
            -63 20 -73 57 51 69 55 97 72 vhcurveto
            return
          </CharString>
          <CharString index="62">
            -16 1 -21 24 -21 491 -20 return
          </CharString>
          <CharString index="63">
            50 -72 callgsubr
            return
          </CharString>
          <CharString index="64">
            -22 callsubr
            0 109 return
          </CharString>
          <CharString index="65">
            3 46 44 2 35 hhcurveto
            46 34 -2 -3 27 hvcurveto
            5 8 3 16 callgsubr
            -42 25 -70 vhcurveto
            -135 222 rmoveto
            -18 -89 -14 -44 -41 -107 -71 -9 -82 -11 -96 -10 97 155 118 99 107 16 rrcurveto
            return
          </CharString>
          <CharString index="66">
            777 418 rmoveto
            -27 -30 -3 -1 -30 hvcurveto
            76 170 15 28 17 23 -10 14 rcurveline
            1 15 14 0 14 hhcurveto
            104 98 -8 -12 35 hvcurveto
            65 -12 -25 42 -31 -16 -112 -21 -113 hhcurveto
            return
          </CharString>
          <CharString index="67">
            rmoveto
            -53 -182 -50 -170 -47 -128 rrcurveto
            -172 -64 -42 -58 -69 hhcurveto
            -51 -24 19 22 -19 hvcurveto
            75 92 71 193 116 376 49 4 53 3 55 1 rrcurveto
            -143 34 rmoveto
            return
          </CharString>
          <CharString index="68">
            61 14 rmoveto
            2 -21 13 -19 17 -7 rrcurveto
            30 20 26 15 32 hhcurveto
            return
          </CharString>
          <CharString index="69">
            -20 -43 callsubr
            return
          </CharString>
          <CharString index="70">
            187 -84 51 758 -20 return
          </CharString>
          <CharString index="71">
            hhcurveto
            16 20 -1 -4 33 hvcurveto
            return
          </CharString>
          <CharString index="72">
            -17 7 70 -27 37 hhcurveto
            return
          </CharString>
          <CharString index="73">
            rmoveto
            -12 -6 callgsubr
            -38 -16 -68 -24 vvcurveto
            -13 5 -14 7 -7 vhcurveto
            -2 -8 -1 -6 -3 vvcurveto
            endchar
          </CharString>
          <CharString index="74">
            39 2 59 4 39 7 rrcurveto
            27 -9 47 -16 2 vhcurveto
            -13 -10 -47 -22 -44 -14 9 52 10 50 14 45 rrcurveto
            14 -15 -31 10 -27 hhcurveto
            -20 -19 -5 -13 -10 hvcurveto
            return
          </CharString>
          <CharString index="75">
            rmoveto
            -33 -28 -46 -48 -24 -10 21 25 40 42 33 29 25 14 -19 -21 vhcurveto
            endchar
          </CharString>
          <CharString index="76">
            -20 hstemhm
            83 89 160 93 return
          </CharString>
          <CharString index="77">
            -14 13 -41 27 -58 21 rrcurveto
            9 29 32 5 34 hhcurveto
            return
          </CharString>
          <CharString index="78">
            rmoveto
            -40 -38 -51 -33 -43 43 -38 36 31 43 31 40 45 -24 49 -51 hvcurveto
            return
          </CharString>
          <CharString index="79">
            -107 -46 -69 -79 -31 -110 7 -33 67 -34 68 -4 rrcurveto
            -9 37 -3 24 40 vvcurveto
            61 27 49 66 57 vhcurveto
            13 -8 18 -8 7 vhcurveto
            return
          </CharString>
          <CharString index="80">
            rrcurveto
            -2 2 -5 6 10 vvcurveto
            35 return
          </CharString>
          <CharString index="81">
            135 120 471 75 return
          </CharString>
          <CharString index="82">
            -7 -54 -2 -54 -1 -54 -48 1 -87 6 -28 1 rrcurveto
            -1 -4 -1 -6 -6 vvcurveto
            -25 13 -28 20 -17 vhcurveto
            32 20 37 15 63 5 return
          </CharString>
          <CharString index="83">
            -90 -8 -21 282 221 -54 54 return
          </CharString>
          <CharString index="84">
            188 -147 -21 111 107 556 89 return
          </CharString>
          <CharString index="85">
            hstemhm
            192 145 return
          </CharString>
          <CharString index="86">
            -106 -18 -21 510 return
          </CharString>
          <CharString index="87">
            168 65 44 89 72 hhcurveto
            10 29 -6 -19 30 hvcurveto
            -35 -54 -30 -74 -27 -88 -56 -4 -53 -6 -49 -6 rrcurveto
            endchar
          </CharString>
          <CharString index="88">
            -38 -54 callsubr
            return
          </CharString>
          <CharString index="89">
            rmoveto
            21 53 39 49 21 hvcurveto
            34 -23 -68 32 -28 hhcurveto
            -5 -21 -21 -69 -29 vvcurveto
            5 -17 27 -16 18 -2 rrcurveto
            return
          </CharString>
          <CharString index="90">
            186 92 -64 84 hstemhm
            hintmask 10000000
            return
          </CharString>
          <CharString index="91">
            93 94 182 132 return
          </CharString>
          <CharString index="92">
            -32 callgsubr
            -20 35 -22 25 -21 11 rrcurveto
            -31 -36 -14 -27 -36 hvcurveto
            -94 -69 -69 -129 -107 vvcurveto
            return
          </CharString>
          <CharString index="93">
            65 1 95 15 88 6 rrcurveto
            -30 -100 -21 -94 -55 vvcurveto
            return
          </CharString>
          <CharString index="94">
            -151 -398 rmoveto
            22 123 40 130 71 159 65 146 51 122 28 36 return
          </CharString>
          <CharString index="95">
            -60 -367 57 732 58 return
          </CharString>
          <CharString index="96">
            785 -21 119 -20 hstem
            return
          </CharString>
          <CharString index="97">
            0 26 -3 callgsubr
            return
          </CharString>
          <CharString index="98">
            -21 callsubr
            -20 return
          </CharString>
          <CharString index="99">
            12 callsubr
            -2 -8 -4 -16 -9 vvcurveto
            -38 27 -26 41 vhcurveto
            endchar
          </CharString>
          <CharString index="100">
            -119 -155 -190 -202 -160 -132 rrcurveto
            -1 13 -1 14 15 vvcurveto
            return
          </CharString>
          <CharString index="101">
            rmoveto
            -41 -37 -51 -33 -44 42 -37 37 31 43 31 39 45 -24 50 -51 hvcurveto
            return
          </CharString>
          <CharString index="102">
            443 -55 -21 813 return
          </CharString>
          <CharString index="103">
            94 -57 -21 782 34 return
          </CharString>
          <CharString index="104">
            -195 -59 -21 return
          </CharString>
          <CharString index="105">
            11 -1 rrcurveto
            -3 -9 -2 -12 -15 vvcurveto
            -23 7 -37 25 -21 vhcurveto
            endchar
          </CharString>
          <CharString index="106">
            83 96 41 70 80 hvcurveto
            124 108 94 178 187 vvcurveto
            return
          </CharString>
          <CharString index="107">
            -20 -48 18 18 -21 hvcurveto
            -11 -2 -6 -9 -1 -8 rrcurveto
            -43 30 return
          </CharString>
          <CharString index="108">
            -30 callsubr
            endchar
          </CharString>
          <CharString index="109">
            rmoveto
            7 -12 21 -6 33 -6 rrcurveto
            11 8 54 66 1 vvcurveto
            return
          </CharString>
          <CharString index="110">
            11 callgsubr
            4 56 15 67 22 63 return
          </CharString>
          <CharString index="111">
            rmoveto
            -56 -92 -72 -71 -59 -22 rrcurveto
            return
          </CharString>
          <CharString index="112">
            -20 hstem
            79 89 241 95 vstem
            return
          </CharString>
          <CharString index="113">
            121 589 104 return
          </CharString>
          <CharString index="114">
            -33 -21 24 98 -25 25 return
          </CharString>
          <CharString index="115">
            31 -40 -47 31 -51 hhcurveto
            -120 -81 -135 return
          </CharString>
          <CharString index="116">
            -1 -2 20 hvcurveto
            3 9 1 3 7 vvcurveto
            25 return
          </CharString>
          <CharString index="117">
            140 -55 -21 780 34 return
          </CharString>
          <CharString index="118">
            56 -1 -20 327 -20 hstemhm
            return
          </CharString>
          <CharString index="119">
            hhcurveto
            -32 -17 3 3 -22 hvcurveto
            return
          </CharString>
          <CharString index="120">
            -60 -21 27 111 return
          </CharString>
          <CharString index="121">
            hhcurveto
            187 156 127 147 hvcurveto
            return
          </CharString>
          <CharString index="122">
            -239 -21 264 -21 491 -20 hstem
            return
          </CharString>
        <CharString name=".notdef">
          -66 0 30 654 30 hstem
          60 36 252 36 vstem
          60 hmoveto
          324 714 -324 hlineto
          36 -30 rmoveto
          252 -654 -252 hlineto
          endchar
        </CharString>
        <CharString name="A">
          2 callgsubr
          hstemhm
          61 -21 callgsubr
          hintmask 10111000
          146 -76 rmoveto
          4 56 15 67 22 63 20 59 29 61 32 59 84 -3 92 -4 37 -3 rrcurveto
          -14 -90 -6 -86 -82 vvcurveto
          -18 0 -17 1 -17 vhcurveto
          hintmask 01111000
          -5 callgsubr
          84 5 68 7 53 vhcurveto
          28 213 46 160 44 77 rrcurveto
          18 -5 -101 44 -37 hhcurveto
          -3 -1 -7 -1 -9 vhcurveto
          -109 -59 -135 -146 -105 -174 -61 -11 -39 -14 -8 -20 rrcurveto
          17 29 -1 -1 34 hvcurveto
          -83 -146 -50 -115 -43 vvcurveto
          hintmask 10111000
          -28 21 -16 64 -19 vhcurveto
          386 601 rmoveto
          -15 -57 -13 -56 -10 -55 -71 -1 -64 -3 -56 -5 83 134 99 108 67 25 -7 -36 -8 -35 -5 -19 rrcurveto
          endchar
        </CharString>
        <CharString name="AE">
          404 -60 -21 26 105 262 106 232 66 3 -20 38 -20 hstemhm
          71 85 hintmask 11110110
          -41 callsubr
          hintmask 11101010
          -36 -39 3 -36 hhcurveto
          -134 -150 -175 -180 -114 hvcurveto
          -37 -4 -39 -3 -41 -2 13 -21 29 -17 41 -9 rrcurveto
          -87 -147 -58 -139 -35 3 callsubr
          24 68 27 64 31 57 rrcurveto
          22 hlineto
          52 90 6 7 93 hvcurveto
          -61 -162 -41 callgsubr
          40 43 132 63 144 rrcurveto
          hintmask 11110110
          -42 callsubr
          endchar
        </CharString>
        <CharString name="AEacute">
          404 -60 -21 26 105 262 106 0 232 0 66 0 48 -45 -20 38 -20 166 -20 hstemhm
          71 85 hintmask 1110100111000000
          -41 callsubr
          hintmask 1110001011000000
          -36 -39 3 -36 hhcurveto
          -134 -150 -175 -180 -114 hvcurveto
          -37 -4 -39 -3 -41 -2 13 -21 29 -17 41 -9 rrcurveto
          -87 -147 -58 -139 -35 3 callsubr
          24 68 27 64 31 57 rrcurveto
          22 hlineto
          52 90 6 7 93 hvcurveto
          -61 -162 -41 callgsubr
          40 43 132 63 144 rrcurveto
          hintmask 1101010011000000
          -42 callsubr
          229 243 -88 callgsubr
        </CharString>
        <CharString name="Aacute">
          -106 callsubr
          223 358 -88 callgsubr
        </CharString>
        <CharString name="Abreve">
          -106 callsubr
          148 239 -85 callsubr
        </CharString>
        <CharString name="Acircumflex">
          -106 callsubr
          187 357 -100 callsubr
        </CharString>
        <CharString name="Adieresis">
          -106 callsubr
          35 263 rmoveto
          7 -12 21 -6 33 -6 rrcurveto
          11 8 54 66 1 vvcurveto
          -90 callgsubr
        </CharString>
        <CharString name="Agrave">
          -106 callsubr
          43 358 -79 callsubr
        </CharString>
        <CharString name="Amacron">
          2 callgsubr
          81 66 20 -20 hstemhm
          61 -21 callgsubr
          hintmask 10110110
          146 -76 rmoveto
          4 56 15 67 22 63 20 59 29 61 32 59 84 -3 92 -4 37 -3 rrcurveto
          -14 -90 -6 -86 -82 vvcurveto
          -18 0 -17 1 -17 vhcurveto
          hintmask 01110110
          -5 callgsubr
          84 5 68 7 53 vhcurveto
          28 213 46 160 44 77 rrcurveto
          18 -5 -101 44 -37 hhcurveto
          -3 -1 -7 -1 -9 vhcurveto
          -109 -59 -135 -146 -105 -174 -61 -11 -39 -14 -8 -20 rrcurveto
          17 29 -1 -1 34 hvcurveto
          -83 -146 -50 -115 -43 vvcurveto
          hintmask 10110110
          -28 21 -16 64 -19 vhcurveto
          386 601 rmoveto
          -15 -57 -13 -56 -10 -55 -71 -1 -64 -3 -56 -5 83 134 99 108 67 25 -7 -36 -8 -35 -5 -19 rrcurveto
          -26 341 -59 callgsubr
          hintmask 10101110
          25 -9 37 -9 15 -69 callgsubr
        </CharString>
        <CharString name="Aogonek">
          133 -309 38 1007 -20 hstemhm
          61 85 255 66 -6 125 hintmask 11110000
          401 -212 -83 callgsubr
          84 63 54 58 12 hvcurveto
          hintmask 11101000
          -34 callgsubr
          84 5 68 7 53 vhcurveto
          28 213 46 160 44 77 rrcurveto
          18 -5 -101 44 -37 hhcurveto
          -3 -1 -7 -1 -9 vhcurveto
          -109 -59 -135 -146 -105 -174 -61 -11 -39 -14 -8 -20 rrcurveto
          17 29 -1 -1 34 hvcurveto
          -83 -146 -50 -115 -43 3 callsubr
          20 59 29 61 32 59 84 -3 92 -4 37 -3 rrcurveto
          -14 -90 -6 -86 -82 vvcurveto
          -18 0 -17 1 -17 vhcurveto
          4 -9 22 -12 26 -9 rrcurveto
          hintmask 11110000
          -62 -25 -51 -65 -61 vvcurveto
          131 737 rmoveto
          -15 -57 -13 -56 -10 -55 -71 -1 -64 -3 -56 -5 83 134 99 108 67 25 -7 -36 -8 -35 -5 -19 rrcurveto
          endchar
        </CharString>
        <CharString name="Aring">
          134 -55 -2 callgsubr
          809 -20 139 30 hstemhm
          62 -21 callgsubr
          -46 58 110 42 hintmask 10111011
          740 766 -19 callgsubr
          -23 13 -21 20 -15 vhcurveto
          -92 -70 -151 -140 -108 -186 -61 -11 -39 -14 -8 -20 rrcurveto
          17 29 -1 -1 34 hvcurveto
          -83 -146 -50 -115 -43 3 callsubr
          20 59 29 61 32 59 84 -3 92 -4 37 -3 rrcurveto
          hintmask 01111101
          -14 -90 -6 -86 -82 vvcurveto
          -18 0 -17 1 -17 vhcurveto
          -5 callgsubr
          hintmask 10111011
          84 5 68 7 53 vhcurveto
          28 213 46 160 44 77 -3 9 -26 15 -30 13 34 5 30 21 18 29 rrcurveto
          -207 -241 rmoveto
          -15 -57 -13 -56 -10 -55 -71 -1 -64 -3 -56 -5 83 134 99 108 67 25 -7 -36 -8 -35 -5 -19 rrcurveto
          176 288 -32 callsubr
        </CharString>
        <CharString name="Aringacute">
          121 -55 -2 callgsubr
          305 67 324 107 -107 149 -42 27 128 -20 hstemhm
          49 -21 callgsubr
          -70 45 99 45 hintmask 1010011101100000
          683 649 rmoveto
          7 13 3 11 11 vvcurveto
          38 -41 33 -49 -45 -54 -33 -48 -14 5 -13 9 -11 vhcurveto
          -99 -56 -123 -115 -91 -135 -35 -60 rcurveline
          -38 -10 -24 -12 -6 -15 rrcurveto
          11 16 0 -1 20 hvcurveto
          -63 -117 -37 -91 -37 11 callgsubr
          7 96 31 102 60 108 84 -3 97 -4 46 -3 rrcurveto
          hintmask 0111001110100000
          -7 -70 -3 -67 -62 vvcurveto
          -18 0 -17 1 -17 vhcurveto
          -5 callgsubr
          84 5 68 7 53 vhcurveto
          23 176 36 137 33 63 -2 5 -8 7 -13 7 11 8 10 11 7 11 rrcurveto
          -169 -108 rmoveto
          -23 -117 -13 -44 -10 -83 -77 -1 -69 -4 -58 -7 79 125 100 107 71 24 rrcurveto
          134 151 rmoveto
          -30 -25 -41 -43 vhcurveto
          hintmask 1010011101100000
          -22 -9 19 22 36 38 30 26 23 12 -17 -19 hvcurveto
          88 191 rmoveto
          -56 -46 -58 -35 -59 -13 rrcurveto
          hintmask 1010101110100000
          -13 16 17 -6 22 hhcurveto
          42 32 12 37 102 hvcurveto
          24 -30 32 -28 8 vhcurveto
          endchar
        </CharString>
        <CharString name="Atilde">
          2 callgsubr
          55 66 46 -20 hstemhm
          61 -21 callgsubr
          hintmask 10111110
          146 -76 rmoveto
          4 56 15 67 22 63 20 59 29 61 32 59 84 -3 92 -4 37 -3 rrcurveto
          -14 -90 -6 -86 -82 vvcurveto
          -18 0 -17 1 -17 vhcurveto
          hintmask 01111110
          -5 callgsubr
          84 5 68 7 53 vhcurveto
          28 213 46 160 44 77 rrcurveto
          18 -5 -101 44 -37 hhcurveto
          -3 -1 -7 -1 -9 vhcurveto
          -109 -59 -135 -146 -105 -174 -61 -11 -39 -14 -8 -20 rrcurveto
          17 29 -1 -1 34 hvcurveto
          -83 -146 -50 -115 -43 vvcurveto
          hintmask 10111110
          -28 21 -16 64 -19 vhcurveto
          386 601 rmoveto
          -15 -57 -13 -56 -10 -55 -71 -1 -64 -3 -56 -5 83 134 99 108 67 25 -7 -36 -8 -35 -5 -19 rrcurveto
          -48 328 -80 callgsubr
        </CharString>
        <CharString name="B">
          209 -76 90 296 98 251 73 hstem
          681 65 5 39 vstem
          790 551 rmoveto
          113 -97 68 -159 -125 -162 -40 -49 -70 vhcurveto
          3 -32 30 -53 24 -16 28 27 65 31 73 22 -33 -44 -39 -74 -51 -112 -47 -103 -69 -172 -26 -80 rrcurveto
          -72 44 81 -41 103 hhcurveto
          193 190 145 145 60 -32 51 -51 35 hvcurveto
          78 42 49 67 82 vvcurveto
          -381 -239 rmoveto
          -2 13 8 0 18 hhcurveto
          65 60 11 21 51 hvcurveto
          37 -19 20 -32 -44 vvcurveto
          -123 -160 -110 -182 -38 -25 5 11 -19 vhcurveto
          3 37 54 137 60 135 11 -12 12 -9 12 -6 rrcurveto
          194 347 rmoveto
          95 53 -34 -63 -75 -84 -61 -127 -22 hvcurveto
          2 -16 -17 2 -17 hhcurveto
          -32 -35 -4 -5 -23 hvcurveto
          48 105 48 95 24 32 -3 6 -3 7 -5 5 rrcurveto
          6 34 32 4 28 hhcurveto
          endchar
        </CharString>
        <CharString name="C">
          -4 callsubr
          hstem
          -18 callgsubr
          vstem
          142 196 rmoveto
          -177 88 -94 164 -3 vhcurveto
          -95 callgsubr
          endchar
        </CharString>
        <CharString name="CR">
          -66 endchar
        </CharString>
        <CharString name="Cacute">
          -4 callsubr
          -10 callsubr
          -18 callgsubr
          hintmask 11011100
          142 196 rmoveto
          -177 88 -94 164 -3 vhcurveto
          -95 callgsubr
          620 687 rmoveto
          -56 -49 -72 -38 -59 -13 rrcurveto
          hintmask 10111100
          -13 16 17 -6 22 hhcurveto
          42 46 13 42 102 hvcurveto
          24 -30 32 -28 8 vhcurveto
          endchar
        </CharString>
        <CharString name="Ccaron">
          -4 callsubr
          145 -20 hstem
          -18 callgsubr
          vstem
          142 196 rmoveto
          -177 88 -94 164 -3 vhcurveto
          -95 callgsubr
          520 555 -98 callsubr
        </CharString>
        <CharString name="Ccedilla">
          95 -310 -21 236 -21 820 34 hstem
          -18 callgsubr
          vstem
          142 196 rmoveto
          -165 76 -93 144 -14 vhcurveto
          -31 -43 -26 -44 -6 -19 1 -4 3 -6 4 -2 -80 callsubr
          7 18 13 23 18 23 -95 callgsubr
          endchar
        </CharString>
        <CharString name="Ccircumflex">
          -4 callsubr
          -10 callsubr
          -18 callgsubr
          hintmask 11011100
          142 196 rmoveto
          -177 88 -94 164 -3 vhcurveto
          -95 callgsubr
          584 686 -78 callsubr
        </CharString>
        <CharString name="Cdotaccent">
          -4 callsubr
          145 -20 hstem
          -18 callgsubr
          vstem
          142 196 rmoveto
          -177 88 -94 164 -3 vhcurveto
          -95 callgsubr
          495 595 -84 callsubr
        </CharString>
        <CharString name="D">
          268 -76 87 677 50 -65 callgsubr
          endchar
        </CharString>
        <CharString name="Dcaron">
          268 -76 87 677 50 145 -20 -65 callgsubr
          106 63 -98 callsubr
        </CharString>
        <CharString name="Dcroat">
          -76 callsubr
        </CharString>
        <CharString name="E">
          -45 callgsubr
          hstemhm
          hintmask 11101000
          -92 callsubr
          hhcurveto
          hintmask 11110000
          -76 callgsubr
          -37 29 -26 46 -2 vhcurveto
          -16 -77 -16 -46 -39 -103 -46 -11 -35 -10 -7 -7 9 -23 21 -18 29 -9 -62 -163 -41 callgsubr
          39 41 128 61 142 rrcurveto
          7 53 61 13 57 hhcurveto
          29 21 -2 -3 17 hvcurveto
          3 8 2 16 callgsubr
          -26 25 -44 vhcurveto
          endchar
        </CharString>
        <CharString name="Eacute">
          99 -60 -21 26 105 282 94 0 224 0 65 22 27 -3 callgsubr
          hintmask 11101110
          -92 callsubr
          -76 callgsubr
          hintmask 11110110
          -37 29 -26 46 -2 vhcurveto
          -16 -77 -16 -46 -39 -103 -46 -11 -35 -10 -7 -7 9 -23 21 -18 29 -9 -62 -163 -41 callgsubr
          39 41 128 61 142 rrcurveto
          7 53 61 13 57 hhcurveto
          29 21 -2 -3 17 hvcurveto
          3 8 2 16 callgsubr
          -26 25 -44 vhcurveto
          120 457 -88 callgsubr
        </CharString>
        <CharString name="Ebreve">
          99 -60 -21 26 105 282 94 0 224 0 65 0 49 -27 -20 166 -20 hstemhm
          hintmask 11101011
          -92 callsubr
          -76 callgsubr
          hintmask 11110101
          -37 29 -26 46 -2 vhcurveto
          -16 -77 -16 -46 -39 -103 -46 -11 -35 -10 -7 -7 9 -23 21 -18 29 -9 -62 -163 -41 callgsubr
          39 41 128 61 142 rrcurveto
          7 53 61 13 57 hhcurveto
          29 21 -2 -3 17 hvcurveto
          3 8 2 16 callgsubr
          -26 25 -44 vhcurveto
          45 338 -85 callsubr
        </CharString>
        <CharString name="Ecaron">
          -45 callgsubr
          146 -20 hstemhm
          hintmask 11101100
          -92 callsubr
          hhcurveto
          hintmask 11110100
          -76 callgsubr
          -37 29 -26 46 -2 vhcurveto
          -16 -77 -16 -46 -39 -103 -46 -11 -35 -10 -7 -7 9 -23 21 -18 29 -9 -62 -163 -41 callgsubr
          39 41 128 61 142 rrcurveto
          7 53 61 13 57 hhcurveto
          29 21 -2 -3 17 hvcurveto
          3 8 2 16 callgsubr
          -26 25 -44 vhcurveto
          20 325 -98 callsubr
        </CharString>
        <CharString name="Ecircumflex">
          99 -60 -21 26 105 282 94 0 224 0 65 22 27 -3 callgsubr
          hintmask 11101110
          -92 callsubr
          -76 callgsubr
          hintmask 11110110
          -37 29 -26 46 -2 vhcurveto
          -16 -77 -16 -46 -39 -103 -46 -11 -35 -10 -7 -7 9 -23 21 -18 29 -9 -62 -163 -41 callgsubr
          39 41 128 61 142 rrcurveto
          7 53 61 13 57 hhcurveto
          29 21 -2 -3 17 hvcurveto
          3 8 2 16 callgsubr
          -26 25 -44 vhcurveto
          84 456 -100 callsubr
        </CharString>
        <CharString name="Edieresis">
          -45 callgsubr
          -87 233 hstemhm
          hintmask 11101000
          -92 callsubr
          hhcurveto
          hintmask 11110000
          -76 callgsubr
          -37 29 -26 46 -2 vhcurveto
          -16 -77 -16 -46 -39 -103 -46 -11 -35 -10 -7 -7 9 -23 21 -18 29 -9 -62 -163 -41 callgsubr
          39 41 128 61 142 rrcurveto
          7 53 61 13 57 hhcurveto
          29 21 -2 -3 17 hvcurveto
          3 8 2 16 callgsubr
          -26 25 -44 vhcurveto
          -68 362 2 callsubr
          hintmask 11100100
          -90 callgsubr
        </CharString>
        <CharString name="Edotaccent">
          -45 callgsubr
          146 -20 hstemhm
          hintmask 11101100
          -92 callsubr
          hhcurveto
          hintmask 11110100
          -76 callgsubr
          -37 29 -26 46 -2 vhcurveto
          -16 -77 -16 -46 -39 -103 -46 -11 -35 -10 -7 -7 9 -23 21 -18 29 -9 -62 -163 -41 callgsubr
          39 41 128 61 142 rrcurveto
          7 53 61 13 57 hhcurveto
          29 21 -2 -3 17 hvcurveto
          3 8 2 16 callgsubr
          -26 25 -44 vhcurveto
          -5 365 -84 callsubr
        </CharString>
        <CharString name="Egrave">
          99 -60 -21 26 105 282 94 0 224 0 65 22 27 -3 callgsubr
          hintmask 11101110
          -92 callsubr
          -76 callgsubr
          hintmask 11110110
          -37 29 -26 46 -2 vhcurveto
          -16 -77 -16 -46 -39 -103 -46 -11 -35 -10 -7 -7 9 -23 21 -18 29 -9 -62 -163 -41 callgsubr
          39 41 128 61 142 rrcurveto
          7 53 61 13 57 hhcurveto
          29 21 -2 -3 17 hvcurveto
          3 8 2 16 callgsubr
          -26 25 -44 vhcurveto
          -60 457 -79 callsubr
        </CharString>
        <CharString name="Emacron">
          -45 callgsubr
          60 66 20 -20 hstemhm
          hintmask 11101100
          -92 callsubr
          hhcurveto
          hintmask 11110100
          -76 callgsubr
          -37 29 -26 46 -2 vhcurveto
          -16 -77 -16 -46 -39 -103 -46 -11 -35 -10 -7 -7 9 -23 21 -18 29 -9 -62 -163 -41 callgsubr
          39 41 128 61 142 rrcurveto
          7 53 61 13 57 hhcurveto
          29 21 -2 -3 17 hvcurveto
          3 8 2 16 callgsubr
          -26 25 -44 vhcurveto
          -129 440 -59 callgsubr
          hintmask 11110010
          25 -9 37 -9 15 -69 callgsubr
        </CharString>
        <CharString name="Eng">
          175 -341 -21 1098 -20 hstem
          -16 callsubr
          vstem
          190 -76 rmoveto
          -2 7 -1 15 17 vvcurveto
          173 108 357 74 118 vhcurveto
          16 -291 12 -64 54 -287 rrcurveto
          4 -21 2 -16 -21 vvcurveto
          -102 -48 -108 -68 -22 vhcurveto
          0 callsubr
          74 -15 33 hhcurveto
          102 81 149 147 30 hvcurveto
          33 162 106 514 128 52 -15 29 -43 32 -29 5 -50 -6 -101 -329 -64 -321 -15 56 -3 13 -8 45 rrcurveto
          -4 22 -18 97 179 vvcurveto
          94 5 64 6 32 vhcurveto
          18 -6 -113 44 -37 hhcurveto
          7 -42 rlineto
          -88 -125 -182 -450 -117 vvcurveto
          -40 21 -15 76 -23 vhcurveto
          endchar
        </CharString>
        <CharString name="Eogonek">
          99 -290 38 197 105 282 94 191 98 -65 87 hstemhm
          hintmask 11101000
          273 -193 -83 callgsubr
          80 60 62 59 8 hvcurveto
          -93 callgsubr
          39 41 128 61 142 rrcurveto
          7 53 61 13 57 hhcurveto
          29 21 -2 -3 17 hvcurveto
          3 8 2 16 callgsubr
          -26 25 -44 -30 -48 -5 -8 -50 vhcurveto
          68 152 21 44 16 24 rrcurveto
          8 55 60 9 73 hhcurveto
          20 24 -1 -4 41 hvcurveto
          58 -12 -25 34 -31 hhcurveto
          hintmask 11110000
          -76 callgsubr
          -37 29 -26 46 -2 vhcurveto
          -16 -77 -16 -46 -39 -103 -46 -11 -35 -10 -7 -7 9 -23 21 -18 29 -9 -62 -163 -62 callgsubr
          65 12 47 6 45 4 rrcurveto
          -47 -31 -34 -53 -50 vvcurveto
          endchar
        </CharString>
        <CharString name="Eth">
          -76 callsubr
        </CharString>
        <CharString name="Etilde">
          -45 callgsubr
          34 66 46 -20 hstemhm
          hintmask 11101110
          -92 callsubr
          hhcurveto
          hintmask 11110110
          -76 callgsubr
          -37 29 -26 46 -2 vhcurveto
          -16 -77 -16 -46 -39 -103 -46 -11 -35 -10 -7 -7 9 -23 21 -18 29 -9 -62 -163 -41 callgsubr
          39 41 128 61 142 rrcurveto
          7 53 61 13 57 hhcurveto
          29 21 -2 -3 17 hvcurveto
          3 8 2 16 callgsubr
          -26 25 -44 vhcurveto
          -151 427 -80 callgsubr
        </CharString>
        <CharString name="Euro">
          217 -57 -21 265 82 -53 73 61 82 -53 73 252 34 hstemhm
          245 139 383 70 hintmask 11010111
          241 350 rmoveto
          25 hlineto
          -7 -26 -6 -27 -3 -28 rrcurveto
          -48 hlineto
          -39 callgsubr
          17 17 1 2 18 vhcurveto
          2 -173 87 -92 163 -3 67 32 93 88 76 102 -1 6 -5 9 -6 6 -103 -96 -93 -63 -57 -13 rrcurveto
          -51 11 -33 63 98 vvcurveto
          15 0 16 1 15 vhcurveto
          hintmask 10101111
          3 25 27 2 29 -30 callgsubr
          -16 -30 -3 -6 -39 hvcurveto
          6 31 7 31 11 31 rrcurveto
          3 29 31 3 35 -30 callgsubr
          -15 -28 -4 -4 -37 hvcurveto
          20 43 25 44 30 43 rrcurveto
          78 54 75 52 60 hhcurveto
          35 20 -16 -28 -35 -29 -45 -47 -38 hvcurveto
          6 -35 29 -29 34 -5 rrcurveto
          45 38 32 65 52 vvcurveto
          69 -55 41 -91 vhcurveto
          hintmask 11010111
          -166 -154 -130 -176 -76 hvcurveto
          -45 hlineto
          -39 callgsubr
          vhcurveto
          endchar
        </CharString>
        <CharString name="F">
          41 -60 -21 404 94 201 98 -65 87 hstemhm
          hintmask 11010000
          520 417 rmoveto
          -32 -50 -6 -8 -52 hvcurveto
          75 169 19 40 16 24 rrcurveto
          8 51 56 7 67 hhcurveto
          20 24 -1 -4 42 hvcurveto
          58 -13 -25 34 -31 hhcurveto
          hintmask 11100000
          -45 -131 -22 -167 hhcurveto
          -40 -21 1 4 -25 hvcurveto
          -5 -10 -4 -18 -10 vvcurveto
          -39 34 -26 51 vhcurveto
          5 hlineto
          -17 -81 -20 -53 -39 -104 -44 -10 -33 -9 -7 -7 8 -22 20 -18 27 -9 -72 -184 -29 -72 -20 -42 31 -51 33 -27 45 -10 21 120 38 122 60 141 rrcurveto
          7 54 63 14 59 hhcurveto
          29 21 -2 -3 17 hvcurveto
          4 8 1 16 callgsubr
          -26 25 -43 vhcurveto
          endchar
        </CharString>
        <CharString name="G">
          10 callsubr
          hstem
          141 132 397 70 vstem
          -101 callgsubr
          endchar
        </CharString>
        <CharString name="Gbreve">
          10 callsubr
          -10 callsubr
          141 132 397 70 hintmask 11011100
          -101 callgsubr
          hintmask 10111100
          23 446 -85 callsubr
        </CharString>
        <CharString name="Gcircumflex">
          10 callsubr
          -10 callsubr
          141 132 397 70 hintmask 11011100
          -101 callgsubr
          62 564 -78 callsubr
        </CharString>
        <CharString name="Gcommaaccent">
          139 -329 -21 1054 34 hstem
          141 132 397 70 vstem
          -101 callgsubr
          -416 -668 -96 callsubr
        </CharString>
        <CharString name="Gdotaccent">
          10 callsubr
          145 -20 hstem
          141 132 397 70 vstem
          -101 callgsubr
          -27 473 -84 callsubr
        </CharString>
        <CharString name="H">
          165 -60 -21 388 97 338 -63 callgsubr
          -57 -145 -13 -32 rcurveline
          -50 callsubr
          -14 callsubr
          endchar
        </CharString>
        <CharString name="Hbar">
          252 -60 -21 388 97 65 -20 22 79 192 -20 hstem
          522 98 vstem
          522 58 rmoveto
          -23 12 -60 19 -7 vhcurveto
          25 -10 -14 -35 58 -3 rrcurveto
          -1 5 -1 8 13 vvcurveto
          73 30 147 45 143 vhcurveto
          13 -1 12 -1 12 -2 rrcurveto
          5 10 3 14 11 vvcurveto
          18 -7 15 -13 12 vhcurveto
          10 30 11 29 11 27 63 2 61 2 59 3 rrcurveto
          28 -22 42 -23 17 vhcurveto
          -32 -3 -32 -3 -34 -2 22 41 22 33 22 21 -13 24 -71 36 -26 2 -24 -26 -32 -61 -33 -77 rrcurveto
          -3 -69 -74 -2 -76 hhcurveto
          20 42 17 32 12 16 -33 54 -48 43 -55 10 -17 -94 -10 -53 -14 -50 -26 1 -45 -1 -66 4 rrcurveto
          -34 -2 -20 -3 -13 vhcurveto
          37 -3 39 -3 43 -2 -9 -24 -13 -44 -23 -47 -50 callsubr
          rrcurveto
          -14 callsubr
          105 411 rmoveto
          -8 -22 -8 -21 -7 -22 -65 -4 -91 -10 -82 -11 14 32 13 31 13 28 rrcurveto
          -1 45 47 0 129 hhcurveto
          endchar
        </CharString>
        <CharString name="Hcircumflex">
          165 -60 -21 964 -63 callgsubr
          -70 -177 rrcurveto
          -50 callsubr
          -14 callsubr
          139 824 -100 callsubr
        </CharString>
        <CharString name="I">
          -3 callsubr
          794 -20 hstem
          131 96 vstem
          -99 callgsubr
          endchar
        </CharString>
        <CharString name="IJ">
          225 -125 -21 885 -20 hstem
          131 96 13 93 vstem
          -99 callgsubr
          568 682 -75 callsubr
          endchar
        </CharString>
        <CharString name="Iacute">
          -3 callsubr
          963 -20 hstem
          131 96 vstem
          -99 callgsubr
          428 826 -88 callgsubr
        </CharString>
        <CharString name="Ibreve">
          -3 callsubr
          963 -20 hstem
          131 96 vstem
          -99 callgsubr
          353 707 -85 callsubr
        </CharString>
        <CharString name="Icircumflex">
          -3 callsubr
          963 -20 hstem
          131 96 vstem
          -99 callgsubr
          392 825 -100 callsubr
        </CharString>
        <CharString name="Idieresis">
          -3 callsubr
          963 -20 hstem
          131 96 vstem
          -99 callgsubr
          240 731 rmoveto
          7 -12 21 -6 33 -6 rrcurveto
          11 8 54 66 1 vvcurveto
          -90 callgsubr
        </CharString>
        <CharString name="Idotaccent">
          -3 callsubr
          963 -20 hstem
          131 96 vstem
          -99 callgsubr
          303 734 -84 callsubr
        </CharString>
        <CharString name="Igrave">
          -3 callsubr
          963 -20 hstem
          131 96 vstem
          -99 callgsubr
          248 826 -79 callsubr
        </CharString>
        <CharString name="Imacron">
          -3 callsubr
          877 66 20 -20 hstemhm
          131 96 hintmask 11010000
          -99 callgsubr
          179 809 -59 callgsubr
          hintmask 10110000
          25 -9 37 -9 15 -69 callgsubr
        </CharString>
        <CharString name="Iogonek">
          -194 -271 38 947 -20 hstem
          27 66 39 96 vstem
          27 -174 -83 callgsubr
          66 41 54 41 21 hvcurveto
          9 -14 5 -19 42 -2 rrcurveto
          -2 3 -1 6 12 vvcurveto
          148 123 458 115 105 vhcurveto
          -11 24 -72 36 -26 2 rrcurveto
          -76 -79 -149 -433 -145 vvcurveto
          -18 6 -39 11 -20 vhcurveto
          -66 -22 -56 -68 -64 vvcurveto
          endchar
        </CharString>
        <CharString name="Itilde">
          -3 callsubr
          851 66 46 -20 hstem
          131 96 vstem
          -99 callgsubr
          157 796 -80 callgsubr
        </CharString>
        <CharString name="J">
          2 -125 -21 885 -20 hstem
          17 93 vstem
          476 739 -75 callsubr
          endchar
        </CharString>
        <CharString name="Jcircumflex">
          2 -125 -21 885 25 119 -20 hstem
          17 93 vstem
          476 739 -75 callsubr
          198 143 -100 callsubr
        </CharString>
        <CharString name="K">
          143 -60 -21 26 -21 814 -20 24 -20 hstemhm
          hintmask 01100000
          -44 callgsubr
          hintmask 10010000
          -13 callsubr
          -20 callgsubr
          endchar
        </CharString>
        <CharString name="Kcommaaccent">
          143 -329 -21 295 -21 814 -20 24 -20 hstemhm
          hintmask 11100000
          -44 callgsubr
          -13 callsubr
          rrcurveto
          hintmask 11010000
          -20 callgsubr
          58 -269 -96 callsubr
        </CharString>
        <CharString name="L">
          -10 13 callsubr
          689 -20 hstem
          -94 callsubr
          endchar
        </CharString>
        <CharString name="Lacute">
          -10 13 callsubr
          826 -20 hstem
          -94 callsubr
          54 826 -88 callgsubr
        </CharString>
        <CharString name="Lcaron">
          -10 13 callsubr
          826 -20 hstem
          -94 callsubr
          -46 694 -98 callsubr
        </CharString>
        <CharString name="Lcommaaccent">
          -10 -330 -21 266 31 0 111 689 -20 hstemhm
          hintmask 10110000
          -94 callsubr
          -242 -408 rmoveto
          88 40 72 95 17 60 rrcurveto
          hintmask 11010000
          -7 33 -67 34 -68 4 rrcurveto
          8 -29 4 -26 -24 vvcurveto
          -58 -23 -44 -40 -47 -67 callsubr
        </CharString>
        <CharString name="Ldot">
          -9 13 callsubr
          689 -20 hstem
          -94 callsubr
          1 219 -56 callsubr
        </CharString>
        <CharString name="Lslash">
          5 13 callsubr
          689 -20 hstem
          489 57 rmoveto
          -59 -4 -31 -5 -54 -13 -61 -15 -23 -4 -42 -2 1 38 54 122 57 150 63 27 63 29 67 26 rrcurveto
          -5 37 -1 16 13 vvcurveto
          -55 -25 -50 -20 -49 -18 49 124 40 93 17 29 -36 53 -37 27 -53 11 -32 -147 -16 -62 -58 -168 -53 -14 -52 -12 -54 -10 5 -28 19 -40 14 -16 29 7 29 8 29 10 rrcurveto
          -54 -141 -40 -78 -20 -48 26 -44 33 -33 30 -11 rrcurveto
          21 130 62 6 64 hhcurveto
          27 24 -1 -3 23 hvcurveto
          3 10 2 10 12 vvcurveto
          26 -8 28 -17 29 vhcurveto
          endchar
        </CharString>
        <CharString name="M">
          432 -55 -21 22 -2 callgsubr
          810 -20 hstemhm
          387 127 253 125 hintmask 00111100
          514 -74 rmoveto
          17 238 213 394 113 55 -7 -35 -7 -34 -5 -19 0 callgsubr
          -23 15 74 -20 37 hhcurveto
          -2 36 0 33 31 vvcurveto
          187 45 309 85 152 vhcurveto
          18 -5 -101 44 -37 hhcurveto
          -90 -65 -190 -291 -93 -220 27 196 73 244 36 74 rrcurveto
          18 -5 -101 44 -37 hhcurveto
          -93 -53 -97 -154 -107 -194 rrcurveto
          -94 -170 -61 -131 -48 vvcurveto
          hintmask 10011100
          -27 21 -16 64 -19 vhcurveto
          22 232 227 376 95 75 -6 -33 -7 -31 -5 -18 0 callgsubr
          hintmask 01011100
          -35 callsubr
          hintmask 00111100
          -35 callgsubr
          endchar
        </CharString>
        <CharString name="N">
          173 -55 -2 callgsubr
          811 -20 hstemhm
          -16 callsubr
          hintmask 10111000
          -70 callgsubr
          hintmask 01111000
          -97 callsubr
          hintmask 10111000
          -9 callgsubr
          endchar
        </CharString>
        <CharString name="NULL">
          -510 endchar
        </CharString>
        <CharString name="Nacute">
          173 -55 -2 callgsubr
          811 -20 167 -20 hstemhm
          -16 callsubr
          hintmask 10111100
          -70 callgsubr
          hintmask 01111100
          -97 callsubr
          hintmask 10111100
          -9 callgsubr
          524 959 -88 callgsubr
        </CharString>
        <CharString name="Ncaron">
          173 -55 -2 callgsubr
          811 -20 167 -20 hstemhm
          -16 callsubr
          hintmask 10111100
          -70 callgsubr
          hintmask 01111100
          -97 callsubr
          hintmask 10111100
          -9 callgsubr
          424 827 -98 callsubr
        </CharString>
        <CharString name="Ncommaaccent">
          173 -329 -21 296 -21 811 -20 hstem
          -16 callsubr
          vstem
          -70 callgsubr
          -97 callsubr
          -9 callgsubr
          57 -274 -96 callsubr
        </CharString>
        <CharString name="Ndotaccent">
          173 -55 -2 callgsubr
          811 -20 167 -20 hstemhm
          -16 callsubr
          hintmask 10111100
          -70 callgsubr
          hintmask 01111100
          -97 callsubr
          hintmask 10111100
          -9 callgsubr
          399 867 -84 callsubr
        </CharString>
        <CharString name="Ntilde">
          173 -55 -2 callgsubr
          811 -20 55 66 46 -20 hstemhm
          -16 callsubr
          hintmask 10111110
          -70 callgsubr
          hintmask 01111110
          -97 callsubr
          hintmask 10111110
          -9 callgsubr
          253 929 -80 callgsubr
        </CharString>
        <CharString name="O">
          -25 callgsubr
          hstem
          -26 callsubr
          vstem
          -107 callsubr
          endchar
        </CharString>
        <CharString name="OE">
          468 -84 51 -22 105 282 94 217 72 -72 97 -3 -20 hstemhm
          135 120 hintmask 10110110
          872 426 rmoveto
          -28 -43 -5 -6 -45 hvcurveto
          63 141 20 43 15 23 rrcurveto
          9 57 62 9 75 hhcurveto
          20 24 -1 -4 41 hvcurveto
          65 -12 -25 37 -31 -45 -131 -22 -167 hhcurveto
          -40 -21 1 4 -26 hvcurveto
          -3 -8 -3 -12 -2 -10 -20 15 -24 14 -21 9 rrcurveto
          hintmask 10101010
          9 -21 -18 3 -21 hhcurveto
          -197 -170 -348 -245 -151 67 -80 122 57 63 19 35 59 hvcurveto
          21 -25 21 -17 21 -9 rrcurveto
          hintmask 01110110
          -51 callsubr
          39 41 129 62 143 rrcurveto
          7 50 56 11 53 hhcurveto
          29 21 -2 -3 17 hvcurveto
          3 8 2 16 callgsubr
          -26 25 -44 vhcurveto
          hintmask 10110110
          -515 -459 rmoveto
          -66 -36 50 104 239 177 283 182 hvcurveto
          7 8 -1 9 hhcurveto
          12 -20 22 -12 28 -3 -15 -70 -16 -46 -37 -98 -52 -11 -40 -11 -8 -8 10 -26 25 -19 34 -7 -60 -157 -39 -94 -23 -49 rrcurveto
          -27 -43 -43 -17 -36 hhcurveto
          endchar
        </CharString>
        <CharString name="Oacute">
          -25 callgsubr
          143 -20 hstem
          -26 callsubr
          vstem
          -107 callsubr
          224 155 -88 callgsubr
        </CharString>
        <CharString name="Obreve">
          -25 callgsubr
          143 -20 hstem
          -26 callsubr
          vstem
          -107 callsubr
          149 36 -85 callsubr
        </CharString>
        <CharString name="Ocircumflex">
          -25 callgsubr
          0 24 -3 callgsubr
          -26 callsubr
          hintmask 11011100
          -107 callsubr
          188 154 -78 callsubr
        </CharString>
        <CharString name="Odieresis">
          -25 callgsubr
          -97 240 hstemhm
          -26 callsubr
          hintmask 11011000
          -107 callsubr
          36 60 2 callsubr
          hintmask 10111000
          -90 callgsubr
        </CharString>
        <CharString name="Ograve">
          -25 callgsubr
          143 -20 hstem
          -26 callsubr
          vstem
          -107 callsubr
          44 155 -79 callsubr
        </CharString>
        <CharString name="Ohungarumlaut">
          -25 callgsubr
          143 -20 hstem
          -26 callsubr
          vstem
          -107 callsubr
          86 155 rmoveto
          -66 callgsubr
          140 hmoveto
          -66 callgsubr
          endchar
        </CharString>
        <CharString name="Omacron">
          -25 callgsubr
          57 66 20 -20 hstemhm
          -26 callsubr
          hintmask 11101100
          -107 callsubr
          -25 138 -59 callgsubr
          hintmask 11011100
          25 -9 37 -9 15 -69 callgsubr
        </CharString>
        <CharString name="Oogonek">
          -312 38 262 -21 676 97 hstemhm
          135 120 -52 66 457 75 hintmask 11101100
          203 -215 -83 callgsubr
          71 47 57 44 18 hvcurveto
          74 10 80 38 69 60 rrcurveto
          124 108 94 178 187 vvcurveto
          114 -50 23 -33 16 vhcurveto
          2 -14 6 -20 -65 vvcurveto
          -163 -58 -183 -93 -111 vhcurveto
          -78 -65 -88 -52 -65 hhcurveto
          hintmask 11110100
          -66 -36 50 104 239 177 283 182 18 24 -2 -5 23 hvcurveto
          -3 21 -64 50 -50 21 rrcurveto
          9 -21 -18 3 -21 hhcurveto
          -197 -170 -348 -245 -134 52 -78 97 -16 hvcurveto
          hintmask 11101100
          -47 -31 -34 -53 -50 vvcurveto
          endchar
        </CharString>
        <CharString name="Oslash">
          -25 callgsubr
          -9 -20 hstemhm
          135 120 hintmask 11010000
          -58 callsubr
          hintmask 10110000
          -8 callgsubr
          -34 1 -38 -7 callsubr
          hintmask 11010000
          -47 callsubr
          endchar
        </CharString>
        <CharString name="Oslashacute">
          -25 callgsubr
          -9 -20 172 -20 hstemhm
          135 120 hintmask 11011000
          -58 callsubr
          hintmask 10111000
          -8 callgsubr
          -18 1 -54 -7 callsubr
          hintmask 11011000
          -47 callsubr
          64 405 -88 callgsubr
        </CharString>
        <CharString name="Otilde">
          -25 callgsubr
          31 66 46 -20 hstem
          -26 callsubr
          vstem
          -107 callsubr
          -47 125 -80 callgsubr
        </CharString>
        <CharString name="P">
          132 -60 -21 346 92 302 77 hstem
          743 39 vstem
          782 539 rmoveto
          117 -94 80 -153 -129 -159 -40 -53 -78 vhcurveto
          3 -31 31 -54 23 -16 35 29 55 28 62 20 -20 -81 -18 -44 -43 -103 -95 -227 -45 -105 -27 -52 26 -45 30 -31 50 -12 24 114 41 120 66 144 rrcurveto
          -25 24 15 -7 33 14 callsubr
          -178 120 rmoveto
          91 48 -46 -69 -104 -141 -83 -207 hvcurveto
          63 134 53 110 27 34 -12 18 rcurveline
          4 27 26 2 25 hhcurveto
          endchar
        </CharString>
        <CharString name="Q">
          209 -232 -21 201 27 668 97 hstem
          137 103 509 71 vstem
          597 728 rmoveto
          8 -20 -18 4 -23 hhcurveto
          -189 -210 -314 -281 -65 16 -49 30 -26 hvcurveto
          -87 -11 -40 -34 -8 -68 1 -7 7 -8 9 -4 rrcurveto
          49 8 43 26 73 hhcurveto
          85 66 -29 -101 146 hvcurveto
          82 -57 25 -11 46 -3 32 8 64 70 10 37 -1 7 -8 16 -6 8 -15 -21 -25 -18 -13 -1 -24 4 -129 55 -71 38 29 5 40 25 47 44 rrcurveto
          144 133 107 219 161 vvcurveto
          56 -21 33 -54 27 vhcurveto
          2 -9 2 -29 -27 vvcurveto
          -177 -70 -185 -115 -128 vhcurveto
          -65 -73 -74 -48 -50 -2 rrcurveto
          10 -28 -68 16 -16 hhcurveto
          -15 1 -8 20 37 vvcurveto
          58 20 95 31 89 vhcurveto
          214 76 133 128 144 hhcurveto
          20 23 -3 -4 19 hvcurveto
          -1 20 -63 52 -45 20 rrcurveto
          endchar
        </CharString>
        <CharString name="R">
          181 -66 -21 746 77 hstem
          742 39 vstem
          -98 callgsubr
          endchar
        </CharString>
        <CharString name="Racute">
          181 -66 -21 746 77 0 28 -3 callgsubr
          742 39 hintmask 11011000
          -98 callgsubr
          203 248 rmoveto
          -56 -49 -72 -38 -59 -13 rrcurveto
          hintmask 10111000
          -13 16 17 -6 22 hhcurveto
          42 46 13 42 102 hvcurveto
          24 -30 32 -28 8 vhcurveto
          endchar
        </CharString>
        <CharString name="Rcaron">
          181 -66 -21 746 77 147 -20 hstem
          742 39 vstem
          -98 callgsubr
          103 116 -98 callsubr
        </CharString>
        <CharString name="Rcommaaccent">
          181 -329 -21 284 -21 746 77 hstem
          742 39 vstem
          -98 callgsubr
          -228 -985 -96 callsubr
        </CharString>
        <CharString name="S">
          5 callgsubr
          hstem
          226 53 402 42 vstem
          -101 callsubr
          endchar
        </CharString>
        <CharString name="Sacute">
          5 callgsubr
          -10 callsubr
          226 53 402 42 hintmask 11011100
          -101 callsubr
          -91 209 rmoveto
          -56 -49 -72 -38 -59 -13 rrcurveto
          hintmask 10111100
          -13 16 17 -6 22 hhcurveto
          42 46 13 42 102 hvcurveto
          24 -30 32 -28 8 vhcurveto
          endchar
        </CharString>
        <CharString name="Scaron">
          5 callgsubr
          145 -20 hstem
          226 53 402 42 vstem
          -101 callsubr
          -191 77 -98 callsubr
        </CharString>
        <CharString name="Schwa">
          94 -52 -21 816 -20 hstem
          140 72 333 140 vstem
          140 18 rmoveto
          38 -54 40 -31 42 -6 rrcurveto
          200 225 299 252 138 -87 109 -147 18 hvcurveto
          -88 -22 -108 -92 -84 -126 7 -10 7 -8 10 -9 rrcurveto
          76 53 102 131 101 hhcurveto
          77 17 -106 -62 hvcurveto
          -14 -1 -15 -13 vvcurveto
          -256 -104 -134 -100 -14 -251 rrcurveto
          72 17 rmoveto
          7 138 86 157 228 83 -120 -348 -87 -14 -114 -16 rrcurveto
          endchar
        </CharString>
        <CharString name="Scircumflex">
          5 callgsubr
          -10 callsubr
          226 53 402 42 hintmask 11011100
          -101 callsubr
          -127 208 -78 callsubr
        </CharString>
        <CharString name="T">
          78 -63 -21 690 104 -68 96 hstemhm
          hintmask 11000000
          299 -60 callgsubr
          hintmask 10100000
          -49 callgsubr
          hintmask 11000000
          -61 callsubr
          endchar
        </CharString>
        <CharString name="Tbar">
          81 -63 -21 390 76 224 104 -68 96 hstemhm
          hintmask 11100000
          303 606 rmoveto
          39 51 5 7 56 hvcurveto
          -16 -62 -32 -90 -31 -84 rrcurveto
          -56 -36 1 2 -36 hvcurveto
          -37 -1 -16 -2 -13 vhcurveto
          31 -6 34 -4 39 -2 -54 -149 -28 -87 -19 -71 30 -49 36 -28 46 -7 17 109 28 112 55 169 52 1 52 3 49 5 rrcurveto
          28 -11 42 -11 17 vhcurveto
          -33 -6 -34 -5 -36 -4 30 85 39 102 30 60 rrcurveto
          hintmask 11010000
          -49 callgsubr
          hintmask 11100000
          -61 callsubr
          endchar
        </CharString>
        <CharString name="Tcaron">
          78 -63 -21 690 104 -68 96 145 -20 hstemhm
          hintmask 11010000
          299 -60 callgsubr
          hintmask 10110000
          -49 callgsubr
          hintmask 11010000
          -61 callsubr
          251 145 -98 callsubr
        </CharString>
        <CharString name="Thorn">
          132 -60 -21 192 92 302 77 -77 233 -1 -20 hstemhm
          685 39 hintmask 11101100
          724 385 rmoveto
          115 -91 79 -148 3 vhcurveto
          24 52 19 39 14 19 rrcurveto
          hintmask 11010100
          24 -14 -17 22 -87 hhcurveto
          hintmask 11101100
          -9 -9 -1 -10 hhcurveto
          -15 -71 -11 -48 -14 -46 -96 -15 -95 -31 -54 -37 3 -31 31 -54 23 -16 35 29 54 27 62 21 -30 -74 rcurveline
          -93 -228 -47 -104 -27 -52 26 -45 30 -31 50 -12 16 75 23 76 33 85 14 -18 17 -16 14 -8 rrcurveto
          -2 13 9 0 14 14 callsubr
          -349 -54 rmoveto
          27 59 24 57 22 50 rrcurveto
          5 33 34 3 31 hhcurveto
          91 48 -46 -69 -104 -141 -83 -178 -16 -15 0 1 -15 hvcurveto
          16 40 18 42 21 45 rrcurveto
          endchar
        </CharString>
        <CharString name="U">
          -37 callsubr
          33 -20 hstemhm
          -36 callgsubr
          hintmask 10111000
          485 673 rmoveto
          -24 28 -83 35 -46 2 rrcurveto
          -90 -165 -81 -273 -168 vvcurveto
          -144 72 -72 122 120 85 69 114 70 vhcurveto
          96 156 61 242 13 202 rrcurveto
          hintmask 11011000
          16 -29 -62 10 -9 hhcurveto
          2 -14 2 -20 -52 vvcurveto
          -163 -30 -199 -75 -139 vhcurveto
          -106 -57 -63 -65 -86 hhcurveto
          -74 -28 45 103 167 76 233 118 158 hvcurveto
          endchar
        </CharString>
        <CharString name="Uacute">
          -37 callsubr
          178 -20 hstem
          -36 callgsubr
          vstem
          -105 callgsubr
          204 210 -88 callgsubr
        </CharString>
        <CharString name="Ubreve">
          -37 callsubr
          178 -20 hstem
          -36 callgsubr
          vstem
          -105 callgsubr
          129 91 -85 callsubr
        </CharString>
        <CharString name="Ucircumflex">
          -37 callsubr
          178 -20 hstem
          -36 callgsubr
          vstem
          -105 callgsubr
          168 209 -100 callsubr
        </CharString>
        <CharString name="Udieresis">
          -37 callsubr
          178 -20 hstem
          -36 callgsubr
          vstem
          -105 callgsubr
          16 115 rmoveto
          7 -12 21 -6 33 -6 rrcurveto
          11 8 54 66 1 vvcurveto
          -90 callgsubr
        </CharString>
        <CharString name="Ugrave">
          -37 callsubr
          178 -20 hstem
          -36 callgsubr
          vstem
          -105 callgsubr
          24 210 -79 callsubr
        </CharString>
        <CharString name="Uhungarumlaut">
          -37 callsubr
          178 -20 hstem
          -36 callgsubr
          vstem
          -105 callgsubr
          66 210 rmoveto
          -66 callgsubr
          140 hmoveto
          -66 callgsubr
          endchar
        </CharString>
        <CharString name="Umacron">
          -37 callsubr
          92 66 20 -20 hstemhm
          -36 callgsubr
          hintmask 11101100
          -105 callgsubr
          -45 193 -59 callgsubr
          hintmask 11011100
          25 -9 37 -9 15 -69 callgsubr
        </CharString>
        <CharString name="Uogonek">
          187 -318 38 196 51 758 -20 33 -20 hstemhm
          161 103 -66 66 -66 93 413 96 hintmask 11101001
          198 -221 -83 callgsubr
          77 56 61 47 11 hvcurveto
          113 5 82 68 68 110 96 156 61 242 13 202 rrcurveto
          16 -29 -62 10 -9 hhcurveto
          2 -14 2 -20 -52 vvcurveto
          -163 -30 -199 -75 -139 vhcurveto
          -106 -57 -63 -65 -86 hhcurveto
          hintmask 11010011
          -74 -28 45 103 167 76 233 118 158 hvcurveto
          -24 28 -83 35 -46 2 rrcurveto
          hintmask 11101001
          -90 -165 -81 -273 -168 vvcurveto
          -119 49 -69 85 -21 vhcurveto
          hintmask 11100101
          -54 -29 -43 -59 -56 vvcurveto
          endchar
        </CharString>
        <CharString name="Uring">
          187 -84 51 744 23 -9 -20 148 30 hstemhm
          161 130 183 58 110 42 20 96 hintmask 10111111
          -105 callgsubr
          188 93 -19 callgsubr
          vhcurveto
          hintmask 11011111
          -45 52 -37 52 40 35 23 32 20 vhcurveto
          -31 47 -32 callsubr
        </CharString>
        <CharString name="Utilde">
          -37 callsubr
          66 66 46 -20 hstem
          -36 callgsubr
          vstem
          -105 callgsubr
          -67 180 -80 callgsubr
        </CharString>
        <CharString name="V">
          107 -55 -21 813 -20 hstem
          239 127 vstem
          419 -64 rmoveto
          31 158 228 516 149 52 -12 29 -40 32 -29 5 -62 -6 -192 -365 -111 -339 rrcurveto
          -11 64 -4 61 121 vvcurveto
          160 11 176 27 74 vhcurveto
          18 -6 -116 45 -36 hhcurveto
          -202 -7 -140 -121 vvcurveto
          -91 4 -83 22 -131 vhcurveto
          19 -23 44 -17 42 -5 rrcurveto
          17 17 4 8 15 hvcurveto
          endchar
        </CharString>
        <CharString name="W">
          -5 callsubr
          -37 callgsubr
          hintmask 11011000
          -103 callgsubr
          hintmask 11101000
          -43 callgsubr
          endchar
        </CharString>
        <CharString name="Wacute">
          -5 callsubr
          27 119 -37 callgsubr
          hintmask 11101100
          -103 callgsubr
          hintmask 11110100
          -43 callgsubr
          619 914 -88 callgsubr
        </CharString>
        <CharString name="Wcircumflex">
          -5 callsubr
          27 119 -37 callgsubr
          hintmask 11101100
          -103 callgsubr
          hintmask 11110100
          -43 callgsubr
          583 913 -100 callsubr
        </CharString>
        <CharString name="Wdieresis">
          -5 callsubr
          -20 166 -37 callgsubr
          hintmask 11101100
          -103 callgsubr
          hintmask 11110100
          -43 callgsubr
          431 819 rmoveto
          7 -12 21 -6 33 -6 rrcurveto
          11 8 54 66 1 vvcurveto
          -90 callgsubr
        </CharString>
        <CharString name="Wgrave">
          -5 callsubr
          -20 166 -37 callgsubr
          hintmask 11101100
          -103 callgsubr
          hintmask 11110100
          -43 callgsubr
          439 914 -79 callsubr
        </CharString>
        <CharString name="X">
          127 -59 -21 30 -21 721 78 hstemhm
          hintmask 10100000
          647 -4 rmoveto
          -73 20 -39 80 -52 241 215 196 42 50 6 64 -16 38 -18 18 -43 25 rrcurveto
          8 -21 3 -14 -12 vvcurveto
          -13 -3 -12 -8 -14 vhcurveto
          -29 -55 -81 -107 -87 -93 rrcurveto
          318 -68 -13 23 -88 hhcurveto
          -40 -7 -39 -33 -16 -38 rrcurveto
          79 62 -108 -215 43 hvcurveto
          -133 -103 -95 -88 -51 -65 -24 -31 -17 -28 -4 -15 rrcurveto
          -32 37 -41 33 -4 vhcurveto
          48 112 147 153 156 vhcurveto
          hintmask 01100000
          -308 60 11 -34 35 hhcurveto
          36 4 79 38 23 25 rrcurveto
          endchar
        </CharString>
        <CharString name="Y">
          103 -52 -21 810 -20 hstem
          -95 callsubr
          endchar
        </CharString>
        <CharString name="Yacute">
          103 -52 -21 956 -20 hstem
          -95 callsubr
          207 538 -88 callgsubr
        </CharString>
        <CharString name="Ycircumflex">
          103 -52 -21 956 -20 hstem
          -95 callsubr
          171 537 -100 callsubr
        </CharString>
        <CharString name="Ydieresis">
          103 -52 -21 956 -20 hstem
          -95 callsubr
          19 443 rmoveto
          7 -12 21 -6 33 -6 rrcurveto
          11 8 54 66 1 vvcurveto
          -90 callgsubr
        </CharString>
        <CharString name="Ygrave">
          103 -52 -21 956 -20 hstem
          -95 callsubr
          27 538 -79 callsubr
        </CharString>
        <CharString name="Ytilde">
          103 -52 -21 810 34 0 66 46 -20 hstemhm
          hintmask 11010000
          -95 callsubr
          -64 508 rmoveto
          -46 9 52 -36 82 hhcurveto
          44 51 4 28 59 hvcurveto
          -5 24 -13 40 -16 16 rrcurveto
          hintmask 10110000
          -32 -68 -52 -14 -51 hhcurveto
          -30 -30 5 11 -32 hvcurveto
          endchar
        </CharString>
        <CharString name="Z">
          -23 callsubr
          43 -20 hstem
          -96 callgsubr
          endchar
        </CharString>
        <CharString name="Zacute">
          -23 callsubr
          0 69 -3 callgsubr
          hintmask 11101000
          -96 callgsubr
          450 319 rmoveto
          -56 -49 -72 -38 -59 -13 rrcurveto
          hintmask 11011000
          -13 16 17 -6 22 hhcurveto
          42 46 13 42 102 hvcurveto
          24 -30 32 -28 8 vhcurveto
          endchar
        </CharString>
        <CharString name="Zcaron">
          -23 callsubr
          188 -20 hstem
          -96 callgsubr
          350 187 -98 callsubr
        </CharString>
        <CharString name="Zdotaccent">
          -23 callsubr
          188 -20 hstem
          -96 callgsubr
          325 227 -84 callsubr
        </CharString>
        <CharString name="a">
          -22 callgsubr
          478 -31 callsubr
          hintmask 10111000
          442 404 rmoveto
          -104 callgsubr
          hintmask 01111000
          -87 callsubr
          endchar
        </CharString>
        <CharString name="aacute">
          -22 callgsubr
          749 -31 callsubr
          hintmask 10111000
          442 404 rmoveto
          -104 callgsubr
          hintmask 01111000
          -87 callsubr
          116 325 -93 callsubr
        </CharString>
        <CharString name="abreve">
          -22 callgsubr
          720 -31 callsubr
          hintmask 10111000
          442 404 rmoveto
          -104 callgsubr
          hintmask 01111000
          -87 callsubr
          41 120 -84 callgsubr
        </CharString>
        <CharString name="acircumflex">
          -22 callgsubr
          478 98 -48 -20 226 -31 callsubr
          hintmask 10101110
          442 404 rmoveto
          -104 callgsubr
          hintmask 01101110
          -87 callsubr
          80 309 -89 callgsubr
          hintmask 10011110
          -86 callsubr
        </CharString>
        <CharString name="acute">
          -225 546 -21 204 -20 hstem
          207 729 -93 callsubr
        </CharString>
        <CharString name="acute.cap">
          -225 -11 callsubr
          207 883 -88 callgsubr
        </CharString>
        <CharString name="adieresis">
          -22 callgsubr
          720 -31 callsubr
          hintmask 10111000
          442 404 rmoveto
          -104 callgsubr
          hintmask 01111000
          -87 callsubr
          -72 201 -97 callgsubr
        </CharString>
        <CharString name="ae">
          181 -18 63 -62 -21 414 86 5 -20 hstemhm
          90 83 186 98 hintmask 10101100
          -46 callsubr
          hintmask 01011100
          -123 30 -31 101 -18 vhcurveto
          -56 callgsubr
          43 -37 -21 12 -38 hhcurveto
          -51 -55 -28 -43 -50 hvcurveto
          7 -15 -18 5 -13 hhcurveto
          hintmask 10101100
          224 -32 -24 callgsubr
          endchar
        </CharString>
        <CharString name="aeacute">
          181 -18 63 -62 -21 414 86 0 63 -58 -20 282 -20 hstemhm
          90 83 186 98 hintmask 10100111
          -46 callsubr
          hintmask 01001111
          -123 30 -31 101 -18 vhcurveto
          -56 callgsubr
          43 -37 -21 12 -38 hhcurveto
          -51 -55 -28 -43 -50 hvcurveto
          7 -15 -18 5 -13 hhcurveto
          hintmask 10100111
          224 -32 -24 callgsubr
          -71 353 4 callsubr
          hintmask 10010111
          -13 16 17 -6 22 hhcurveto
          42 46 22 68 102 hvcurveto
          37 -30 60 -28 17 vhcurveto
          endchar
        </CharString>
        <CharString name="agrave">
          -22 callgsubr
          749 -31 callsubr
          hintmask 10111000
          442 404 rmoveto
          -104 callgsubr
          hintmask 01111000
          -87 callsubr
          -64 325 -72 callsubr
        </CharString>
        <CharString name="amacron">
          -22 callgsubr
          569 76 20 -31 callsubr
          hintmask 10101100
          442 404 rmoveto
          -104 callgsubr
          hintmask 01101100
          -87 callsubr
          -133 224 -60 callsubr
          hintmask 10011100
          28 -9 42 -9 17 -69 callgsubr
        </CharString>
        <CharString name="ampersand">
          157 -46 -21 67 -21 433 225 95 -20 hstem
          96 113 25 102 vstem
          591 332 rmoveto
          19 13 2 2 12 hvcurveto
          -126 -87 -168 -231 -109 hhcurveto
          -43 -19 33 47 104 94 174 131 31 hvcurveto
          -8 20 -60 30 -30 3 rrcurveto
          82 121 134 74 14 7 -3 -15 -26 -18 -35 -16 -16 vhcurveto
          1 -4 4 -4 7 -2 29 21 34 52 5 32 -6 29 -80 62 -28 4 rrcurveto
          -96 -17 -154 -125 -96 vvcurveto
          -34 19 -31 49 -21 vhcurveto
          -99 -50 -104 -127 -3 -126 5 -91 73 -69 103 -12 151 49 159 211 92 150 rrcurveto
          9 11 1 13 hhcurveto
          18 23 -1 -4 39 hvcurveto
          55 -13 -11 22 -32 -18 -24 -4 -86 hhcurveto
          -33 -21 1 4 -25 hvcurveto
          -4 -14 -2 -12 -11 vvcurveto
          -33 20 -15 48 vhcurveto
          endchar
        </CharString>
        <CharString name="aogonek">
          -40 -247 38 667 -20 hstem
          83 89 83 66 11 93 vstem
          255 -150 -83 callgsubr
          90 65 50 65 20 hvcurveto
          -18 10 -8 26 37 vvcurveto
          68 37 118 54 112 vhcurveto
          13 1 -47 22 -28 hhcurveto
          -104 callgsubr
          -29 6 -21 12 -11 vhcurveto
          -54 -29 -41 -59 -55 vvcurveto
          endchar
        </CharString>
        <CharString name="apostrophe">
          -146 547 -15 callgsubr
          324 526 -74 callgsubr
        </CharString>
        <CharString name="aring">
          -22 callgsubr
          544 25 129 32 hstemhm
          83 89 160 69 -69 93 86 42 hintmask 10111011
          442 404 rmoveto
          -104 callgsubr
          hintmask 01111011
          -87 callsubr
          100 179 -48 callsubr
          vhcurveto
          hintmask 10111101
          -12 callgsubr
          hvcurveto
          endchar
        </CharString>
        <CharString name="aringacute">
          -22 callgsubr
          489 23 114 29 0 44 154 -20 hstemhm
          83 89 160 96 -51 51 98 37 hintmask 1010111011000000
          607 833 rmoveto
          -46 -80 -23 -29 -40 -31 rrcurveto
          -9 14 17 -5 17 hhcurveto
          36 35 20 55 60 hvcurveto
          -14 33 -25 28 -31 18 rrcurveto
          -44 -274 rmoveto
          41 -40 35 -49 -51 -46 -41 -46 -41 43 -38 49 48 46 44 46 vhcurveto
          -37 8 rmoveto
          -39 -32 -36 -36 -19 -11 16 28 vhcurveto
          hintmask 1011011101000000
          34 33 36 30 21 14 -16 -23 vhcurveto
          -84 -163 rmoveto
          -104 callgsubr
          hintmask 0111011101000000
          -87 callsubr
          endchar
        </CharString>
        <CharString name="asciicircum">
          -149 469 -21 48 -20 238 -20 hstem
          259 713 rmoveto
          1 -7 -5 0 -16 hhcurveto
          -27 -21 -5 -9 -13 hvcurveto
          4 -25 -40 -76 -43 -48 -51 -29 rlinecurve
          -16 16 18 -10 20 hhcurveto
          29 42 39 52 34 hvcurveto
          -80 30 45 -59 38 hhcurveto
          0 9 0 1 vvcurveto
          -36 43 -15 64 -11 157 rrcurveto
          endchar
        </CharString>
        <CharString name="asciitilde">
          -69 192 90 -51 51 18 -20 hstemhm
          hintmask 01000000
          138 269 rmoveto
          2 -16 1 -14 6 -9 rrcurveto
          1 13 11 0 11 hhcurveto
          hintmask 10000000
          98 23 -39 78 hhcurveto
          31 28 8 21 27 hvcurveto
          hintmask 00100000
          -5 27 -14 34 -18 18 rrcurveto
          hintmask 10000000
          -15 -24 -34 -3 -33 -36 -37 9 -39 hhcurveto
          -30 -29 -4 -18 -30 hvcurveto
          endchar
        </CharString>
        <CharString name="asterisk">
          -55 512 -21 112 229 -47 -20 hstemhm
          440 82 hintmask 11010000
          435 832 rmoveto
          2 -20 3 -18 -20 vvcurveto
          -24 -3 -24 -9 -23 vhcurveto
          hintmask 10110000
          40 -21 -40 42 -38 hhcurveto
          -24 -24 -18 -50 -15 hvcurveto
          50 -11 38 -13 31 -20 rrcurveto
          -22 -5 -88 -33 -31 vvcurveto
          -37 30 -31 18 -15 vhcurveto
          25 45 24 31 30 24 rrcurveto
          -1 -7 0 -6 -6 vvcurveto
          -34 5 -77 45 22 28 8 15 25 vhcurveto
          -33 39 -23 32 -13 36 rrcurveto
          hintmask 11010000
          -14 33 32 -4 32 hhcurveto
          45 0 34 29 15 -1 15 -2 10 hvcurveto
          -44 -19 -41 -13 -38 -1 rrcurveto
          25 26 24 41 33 vvcurveto
          32 -22 26 -65 1 vhcurveto
          endchar
        </CharString>
        <CharString name="at">
          145 -91 46 132 52 336 77 hstem
          122 120 105 97 224 37 vstem
          277 472 rmoveto
          -105 -87 -50 -129 -78 vvcurveto
          -115 107 -154 133 96 87 79 81 79 vhcurveto
          7 -1 3 -7 12 vhcurveto
          -96 -104 -66 -40 -59 hhcurveto
          -82 -63 79 98 158 166 185 139 67 54 -44 -55 -84 -126 -153 -70 -18 -10 10 18 51 44 51 57 13 13 -2 -6 14 hvcurveto
          -3 43 -42 49 -49 18 rrcurveto
          -95 -28 -49 -76 -64 vvcurveto
          -55 63 -61 55 90 150 165 108 91 -108 101 -122 -67 -70 -30 -50 -61 vhcurveto
          endchar
        </CharString>
        <CharString name="atilde">
          -22 callgsubr
          555 73 47 -31 callsubr
          hintmask 10111100
          442 404 rmoveto
          -104 callgsubr
          hintmask 01111100
          -87 callsubr
          -155 220 -81 callsubr
        </CharString>
        <CharString name="b">
          -38 -15 -21 464 54 351 -20 hstem
          189 -7 rmoveto
          -13 40 -16 31 112 168 244 170 4 vhcurveto
          -6 47 -39 46 -43 11 rrcurveto
          -56 -120 -128 -139 -75 hvcurveto
          68 252 108 188 146 118 -16 18 -55 34 -26 8 rrcurveto
          -128 -55 -192 -441 -238 vvcurveto
          -13 1 -7 3 -6 vhcurveto
          2 -5 8 -9 7 -5 15 -11 6 -7 2 -6 rrcurveto
          -12 4 7 -8 6 hhcurveto
          10 100 204 316 56 2 rrcurveto
          7 -2 6 -7 -7 vvcurveto
          -23 -150 -118 -186 -124 -83 rrcurveto
          endchar
        </CharString>
        <CharString name="backslash">
          150 -137 -21 959 -20 hstem
          265 743 rmoveto
          97 -385 111 -369 87 -147 14 3 23 21 5 22 -55 121 -109 405 -57 387 rrcurveto
          -32 -75 -36 -22 -9 hvcurveto
          endchar
        </CharString>
        <CharString name="bar">
          -234 -109 -21 960 -20 hstem
          180 -130 rmoveto
          36 255 105 456 169 186 -11 17 -69 40 -32 6 -108 -144 -166 -533 -6 -241 rrcurveto
          endchar
        </CharString>
        <CharString name="braceleft">
          -175 -141 -21 974 -20 hstem
          134 89 3 92 vstem
          448 812 rmoveto
          -63 -50 -61 -82 -31 hvcurveto
          -47 -123 14 -126 -115 -52 -35 -16 rcurveline
          1 -6 5 -9 9 -5 rrcurveto
          52 38 -17 -61 hvcurveto
          -94 -92 -122 -79 vvcurveto
          -83 101 -28 67 -10 vhcurveto
          8 16 rlineto
          -53 12 -34 17 38 63 95 134 104 vvcurveto
          57 -28 42 -47 28 vhcurveto
          109 37 24 95 21 89 20 86 19 75 82 41 rrcurveto
          32 -30 -17 8 -23 hhcurveto
          endchar
        </CharString>
        <CharString name="braceright">
          -175 -141 -21 974 -20 hstem
          228 92 3 89 vstem
          98 -162 rmoveto
          63 50 61 82 31 hvcurveto
          47 123 -14 126 115 52 35 16 rcurveline
          -1 6 -5 9 -9 5 rrcurveto
          -52 -38 17 61 hvcurveto
          94 92 122 79 vvcurveto
          83 -101 28 -67 10 vhcurveto
          -8 -16 rlineto
          53 -12 34 -17 -38 -63 -95 -134 -104 vvcurveto
          -57 28 -42 47 -28 vhcurveto
          -109 -37 -24 -95 -21 -89 -20 -86 -19 -75 -82 -41 rrcurveto
          -32 30 17 -8 23 hhcurveto
          endchar
        </CharString>
        <CharString name="bracketleft">
          -124 -121 61 -59 -21 869 62 hstemhm
          hintmask 01100000
          522 791 rmoveto
          -35 -88 -8 -13 -68 hvcurveto
          -6 -30 -17 -77 -96 -270 -59 -166 -86 -229 -22 -47 26 -44 25 -36 30 -11 rrcurveto
          hintmask 10100000
          11 63 60 8 57 hhcurveto
          20 20 9 callsubr
          -12 20 -47 -49 -79 -21 -11 -39 vhcurveto
          1 43 72 187 77 198 66 170 51 173 11 46 rrcurveto
          3 28 51 1 23 hhcurveto
          23 19 9 callsubr
          -11 21 -57 vhcurveto
          endchar
        </CharString>
        <CharString name="bracketright">
          -125 -140 62 789 61 19 -20 hstemhm
          hintmask 10100000
          75 -140 rmoveto
          35 88 8 13 68 hvcurveto
          6 30 17 77 96 270 59 166 86 229 22 47 -26 44 -25 36 -30 11 rrcurveto
          hintmask 11000000
          -11 -63 -60 -8 -57 hhcurveto
          -20 -20 10 callgsubr
          12 -20 47 49 79 21 11 39 vhcurveto
          -1 -43 -72 -187 -77 -198 -66 -170 -51 -173 -11 -46 rrcurveto
          -3 -28 -51 -1 -23 hhcurveto
          -23 -19 10 callgsubr
          11 -21 57 vhcurveto
          endchar
        </CharString>
        <CharString name="breve">
          -183 545 -21 176 -20 hstem
          160 524 -84 callgsubr
        </CharString>
        <CharString name="breve.cap">
          -183 -11 callsubr
          160 764 -85 callsubr
        </CharString>
        <CharString name="brokenbar">
          -242 -109 -21 960 -20 hstem
          99 80 vstem
          295 388 rmoveto
          50 152 67 142 77 85 -11 17 -78 40 -32 6 -51 -68 -61 -156 -44 -171 rrcurveto
          -57 -101 rmoveto
          -36 -81 -18 -239 -2 -105 80 -39 rcurveline
          6 133 30 129 62 151 -26 22 -69 28 -27 1 rrcurveto
          endchar
        </CharString>
        <CharString name="bullet">
          -172 251 -21 189 -20 hstem
          248 230 rmoveto
          26 65 49 59 25 hvcurveto
          42 -27 -84 39 -34 hhcurveto
          -7 -26 -25 -84 -36 vvcurveto
          6 -20 32 -20 23 -3 rrcurveto
          endchar
        </CharString>
        <CharString name="c">
          -24 callsubr
          -11 callgsubr
          hintmask 10111000
          -85 callgsubr
          hintmask 11011000
          -64 callgsubr
          endchar
        </CharString>
        <CharString name="cacute">
          -24 callsubr
          0 51 204 -20 -11 callgsubr
          hintmask 10101110
          -85 callgsubr
          hintmask 11001110
          -64 callgsubr
          452 553 4 callsubr
          hintmask 10011110
          -13 16 17 -6 22 hhcurveto
          42 46 22 68 102 hvcurveto
          37 -30 60 -28 17 vhcurveto
          endchar
        </CharString>
        <CharString name="caron">
          -189 526 -21 210 -20 hstem
          154 505 -92 callgsubr
        </CharString>
        <CharString name="caron.alt">
          -287 547 -15 callgsubr
          36 526 -74 callgsubr
        </CharString>
        <CharString name="caron.cap">
          -189 772 -21 132 -20 hstem
          151 751 -98 callsubr
        </CharString>
        <CharString name="ccaron">
          -24 callsubr
          241 -20 -11 callgsubr
          hintmask 10111100
          -85 callgsubr
          hintmask 11011100
          -64 callgsubr
          345 329 -92 callgsubr
        </CharString>
        <CharString name="ccedilla">
          -92 -279 -21 236 -21 338 221 -54 54 hstemhm
          102 111 219 54 hintmask 11011100
          102 176 rmoveto
          -96 59 -85 78 -20 vhcurveto
          -38 -49 -33 -55 -7 -22 1 -4 3 -6 4 -2 -80 callsubr
          9 22 19 32 21 30 46 12 77 53 42 53 rrcurveto
          6 -5 10 -5 4 vhcurveto
          -62 -46 -72 -35 -39 -5 rrcurveto
          -24 11 -12 32 54 vvcurveto
          85 31 80 57 64 vhcurveto
          41 37 45 28 26 hhcurveto
          15 8 -10 -19 -33 -22 -37 -45 -41 hvcurveto
          hintmask 11101100
          -64 callgsubr
          endchar
        </CharString>
        <CharString name="ccircumflex">
          -24 callsubr
          0 82 -48 -20 226 -20 -11 callgsubr
          hintmask 10101111
          -85 callgsubr
          hintmask 11001111
          -64 callgsubr
          406 537 rmoveto
          1 -7 -5 0 -16 hhcurveto
          -27 -21 -5 -9 -13 hvcurveto
          3 -16 -43 -51 -46 -32 -54 -19 rlinecurve
          hintmask 10010111
          -17 16 18 -9 20 hhcurveto
          32 45 23 33 37 hvcurveto
          hintmask 11001111
          -86 callsubr
        </CharString>
        <CharString name="cdotaccent">
          -24 callsubr
          242 -20 -11 callgsubr
          hintmask 10111100
          -85 callgsubr
          hintmask 11011100
          -64 callgsubr
          288 358 -91 callgsubr
        </CharString>
        <CharString name="cedilla">
          -255 -279 -21 236 -21 102 -20 hstem
          134 17 rmoveto
          -51 -54 -53 -85 -10 -29 1 -4 3 -6 4 -2 -80 callsubr
          14 33 35 53 33 39 rrcurveto
          endchar
        </CharString>
        <CharString name="cent">
          -5 -14 -21 783 -20 hstem
          156 111 299 54 vstem
          554 702 rmoveto
          -20 25 -21 13 -28 8 -7 -41 -10 -48 -12 -51 rrcurveto
          -188 -15 -112 -140 -142 vvcurveto
          -100 52 -87 100 -16 vhcurveto
          -20 -55 -19 -44 -15 -29 2 -7 7 -6 9 -2 29 49 25 47 23 51 53 18 86 49 38 47 rrcurveto
          6 -5 10 -5 4 vhcurveto
          -48 -36 -55 -29 -40 -14 40 97 40 119 57 180 rrcurveto
          31 25 -10 -27 -33 -22 -37 -45 -41 hvcurveto
          -16 12 18 -11 15 hhcurveto
          38 38 60 61 53 -42 35 -54 10 hvcurveto
          10 30 9 31 11 34 rrcurveto
          -287 -445 rmoveto
          106 60 141 115 45 vhcurveto
          -32 -129 -42 -142 -40 -114 rrcurveto
          -42 13 -19 31 49 vvcurveto
          endchar
        </CharString>
        <CharString name="circumflex">
          -189 529 -21 206 -20 hstem
          249 713 -89 callgsubr
          -86 callsubr
        </CharString>
        <CharString name="circumflex.cap">
          -189 774 -21 130 -20 hstem
          249 882 -100 callsubr
        </CharString>
        <CharString name="colon">
          -225 -17 -21 490 -20 hstem
          143 -19 callsubr
          100 318 -54 callsubr
          endchar
        </CharString>
        <CharString name="comma">
          -270 -148 -15 callgsubr
          17 -169 -49 callsubr
          endchar
        </CharString>
        <CharString name="commaaccent">
          -278 -329 -21 266 -20 hstem
          -26 -350 -96 callsubr
        </CharString>
        <CharString name="copyright">
          157 43 66 -66 193 89 142 85 59 hstemhm
          146 106 102 69 151 34 95 24 hintmask 01111111
          536 467 rmoveto
          -89 -93 -122 -77 -40 25 -26 52 -7 hvcurveto
          43 6 77 50 3 7 rrcurveto
          5 -1 -4 4 -3 hhcurveto
          -2 -26 -36 -29 -31 hhcurveto
          -19 -11 10 18 44 69 91 59 12 hvcurveto
          18 -3 5 -7 -10 vvcurveto
          -22 -37 -35 -6 -9 vhcurveto
          54 1 23 35 35 vvcurveto
          36 -24 35 -48 vhcurveto
          138 -215 rmoveto
          hintmask 10111111
          -98 -74 -111 -45 -95 hhcurveto
          -97 -45 46 65 126 165 9 callgsubr
          -11 -25 hvcurveto
          2 -7 rlineto
          29 -13 callgsubr
          137 146 118 90 115 64 vhcurveto
          endchar
        </CharString>
        <CharString name="currency">
          109 99 -21 55 32 344 76 -76 132 hstemhm
          240 85 221 54 hintmask 11101100
          600 440 rmoveto
          4 0 5 -1 4 vhcurveto
          32 42 31 43 31 43 rrcurveto
          20 -9 -22 12 -29 hhcurveto
          -8 -27 -18 -34 -24 -36 rrcurveto
          43 -21 -38 26 -46 hhcurveto
          -48 -48 -29 -43 -39 hvcurveto
          -23 49 -15 44 -5 33 rrcurveto
          hintmask 11011100
          1 -6 -6 1 -5 hhcurveto
          -22 -17 -8 -15 -8 hvcurveto
          23 -50 24 -49 26 -48 rrcurveto
          -42 -61 -27 -74 -60 vvcurveto
          -41 11 -32 16 -23 vhcurveto
          -39 -30 -43 -28 -23 -10 1 -17 9 -14 14 -3 25 15 45 30 38 29 rrcurveto
          -13 18 20 -6 19 hhcurveto
          40 49 23 39 44 hvcurveto
          41 -53 25 -27 38 -31 14 1 11 12 4 16 -35 23 -27 30 -42 58 rrcurveto
          50 55 37 76 85 vvcurveto
          -95 69 rmoveto
          28 13 -19 -33 -95 -105 -197 -78 -20 -18 19 47 125 80 153 100 hvcurveto
          endchar
        </CharString>
        <CharString name="d">
          8 callgsubr
          384 5 callsubr
          -61 callgsubr
          endchar
        </CharString>
        <CharString name="dagger">
          -29 63 -21 409 38 -38 218 hstemhm
          hintmask 10100000
          317 77 rmoveto
          -23 12 23 -12 19 hhcurveto
          34 83 15 170 25 160 -33 callsubr
          hintmask 11000000
          -25 callsubr
          -1 -125 0 -125 -36 -124 rrcurveto
          endchar
        </CharString>
        <CharString name="daggerdbl">
          12 63 -21 210 37 162 38 -38 218 hstemhm
          hintmask 11010000
          323 77 rmoveto
          -23 12 23 -12 19 hhcurveto
          20 48 13 77 12 87 38 2 66 5 42 7 rrcurveto
          27 -9 47 -16 2 vhcurveto
          -14 -11 -54 -24 -47 -14 23 160 rcurveline
          -33 callsubr
          hintmask 11100000
          -25 callsubr
          rrcurveto
          -54 0 -54 -4 -54 vhcurveto
          -40 -107 7 1 -32 hvcurveto
          -1 -4 -1 -6 -6 vvcurveto
          -25 13 -28 20 -17 vhcurveto
          34 22 40 15 71 4 -5 -58 -8 -59 -17 -58 rrcurveto
          endchar
        </CharString>
        <CharString name="dcaron">
          8 callgsubr
          385 -20 hstemhm
          79 89 241 95 0 74 hintmask 11111000
          -61 callgsubr
          334 540 rmoveto
          87 46 55 79 25 110 -8 33 -66 34 -68 4 rrcurveto
          hintmask 11110100
          4 -32 2 -29 -27 vvcurveto
          -70 -14 -54 -33 -56 -67 callsubr
        </CharString>
        <CharString name="dcroat">
          8 callgsubr
          149 76 159 5 callsubr
          232 675 rmoveto
          -37 -1 -16 -1 -13 vhcurveto
          37 -7 43 -4 53 -2 26 -61 11 -50 7 -61 rrcurveto
          25 -27 -39 18 -26 hhcurveto
          -52 callgsubr
          51 -9 57 -14 55 vhcurveto
          33 2 32 2 32 4 rrcurveto
          28 -10 42 -11 17 vhcurveto
          -32 -7 -34 -4 -36 -4 -24 62 -31 55 -33 37 -34 -6 -50 -41 -9 -25 20 -32 17 -29 14 -26 rrcurveto
          -32 -31 1 2 -30 hvcurveto
          -19 -689 -59 callsubr
          endchar
        </CharString>
        <CharString name="degree">
          -126 403 50 223 56 hstem
          211 64 200 59 vstem
          327 403 rmoveto
          110 97 85 97 78 -69 69 -78 -88 -88 -109 -110 -70 42 -40 74 hvcurveto
          148 192 rmoveto
          -75 -65 -67 -73 -42 -20 22 45 82 59 74 64 46 31 -33 -48 vhcurveto
          endchar
        </CharString>
        <CharString name="dieresis">
          -205 547 -21 174 -20 hstem
          20 605 -97 callgsubr
        </CharString>
        <CharString name="dieresis.cap">
          -205 784 -21 120 -20 hstem
          20 788 rmoveto
          7 -12 21 -6 33 -6 rrcurveto
          11 8 54 66 1 vvcurveto
          -90 callgsubr
        </CharString>
        <CharString name="divide">
          47 12 -21 195 92 -64 84 185 -20 hstemhm
          hintmask 11010000
          199 186 rmoveto
          hintmask 10110000
          -58 callgsubr
          hintmask 11010000
          -65 callsubr
          203 143 -18 callsubr
          -100 -338 -18 callsubr
          endchar
        </CharString>
        <CharString name="dollar">
          158 -153 -21 105 119 572 101 110 -20 hstem
          242 50 326 53 vstem
          621 786 rmoveto
          -20 25 -44 14 -28 8 -5 -31 -8 -38 -9 -43 rrcurveto
          1 -10 -10 1 -9 hhcurveto
          -144 -92 -92 -115 -78 49 -58 113 -63 hvcurveto
          -23 -83 -26 -81 -24 -71 -25 11 -25 15 -23 18 rrcurveto
          -67 50 -30 64 40 vvcurveto
          -43 -46 -13 -46 -27 vvcurveto
          -76 87 -74 97 -43 vhcurveto
          -19 -47 -17 -37 -15 -22 5 -22 12 -11 15 -3 20 35 21 42 22 48 rrcurveto
          -13 38 38 -7 33 hhcurveto
          135 94 85 133 100 -59 61 -110 60 hvcurveto
          -12 6 23 70 24 73 24 76 rlinecurve
          47 -20 41 -30 24 -43 rrcurveto
          32 14 24 46 46 vvcurveto
          9 -1 6 -2 19 vhcurveto
          -43 25 -44 21 -44 15 rrcurveto
          23 -565 rmoveto
          -28 -27 -60 -112 -30 -34 4 11 -35 vhcurveto
          26 67 27 75 28 81 rrcurveto
          91 -48 66 -52 -50 vvcurveto
          -326 418 rmoveto
          39 61 27 72 18 20 -2 -3 20 vhcurveto
          -16 -65 -18 -69 -19 -71 rrcurveto
          -72 46 -66 54 44 vvcurveto
          endchar
        </CharString>
        <CharString name="dotaccent">
          -318 528 -21 209 -20 hstem
          30 534 -91 callgsubr
        </CharString>
        <CharString name="dotaccent.cap">
          -318 -11 callsubr
          59 791 -84 callsubr
        </CharString>
        <CharString name="dotlessi">
          -271 -9 -21 434 -20 hstem
          97 80 vstem
          97 -89 callsubr
          endchar
        </CharString>
        <CharString name="dotlessj">
          12 callgsubr
          -20 hstem
          -69 callsubr
          endchar
        </CharString>
        <CharString name="e">
          -9 callsubr
          hstem
          87 100 199 69 vstem
          -106 callgsubr
          endchar
        </CharString>
        <CharString name="eacute">
          -9 callsubr
          278 -20 hstem
          87 100 199 69 vstem
          -106 callgsubr
          164 348 -93 callsubr
        </CharString>
        <CharString name="ebreve">
          -9 callsubr
          249 -20 hstem
          87 100 199 69 vstem
          -106 callgsubr
          89 143 -84 callgsubr
        </CharString>
        <CharString name="ecaron">
          -9 callsubr
          264 -20 hstem
          87 100 199 69 vstem
          -106 callgsubr
          67 124 -92 callgsubr
        </CharString>
        <CharString name="ecircumflex">
          -21 callsubr
          85 -48 -20 226 -20 hstemhm
          87 100 199 69 hintmask 11011100
          -106 callgsubr
          128 332 -89 callgsubr
          hintmask 10111100
          -86 callsubr
        </CharString>
        <CharString name="edieresis">
          -9 callsubr
          249 -20 hstem
          87 100 199 69 vstem
          -106 callgsubr
          -24 224 -97 callgsubr
        </CharString>
        <CharString name="edotaccent">
          -9 callsubr
          265 -20 hstem
          87 100 199 69 vstem
          -106 callgsubr
          10 153 -91 callgsubr
        </CharString>
        <CharString name="egrave">
          -9 callsubr
          278 -20 hstem
          87 100 199 69 vstem
          -106 callgsubr
          -16 348 -72 callsubr
        </CharString>
        <CharString name="eight">
          59 -45 44 743 -20 hstemhm
          107 105 30 130 81 131 -27 90 hintmask 11111000
          584 207 rmoveto
          93 -61 58 -56 55 vhcurveto
          hintmask 11110100
          92 43 88 69 69 vvcurveto
          63 -70 53 -100 32 vhcurveto
          -109 -13 -126 -77 -113 vvcurveto
          -67 40 -47 46 -43 vhcurveto
          -127 -57 -94 -77 -119 vvcurveto
          -131 98 -43 117 vhcurveto
          hintmask 11111000
          124 138 104 148 hvcurveto
          -372 -99 rmoveto
          73 42 86 121 70 vhcurveto
          42 -41 36 -45 -64 vvcurveto
          -121 -77 -67 -68 -49 -47 35 74 vhcurveto
          hintmask 11110100
          345 509 rmoveto
          -55 -79 -78 -50 -33 vhcurveto
          -32 35 -24 36 46 vvcurveto
          57 76 56 55 10 vhcurveto
          30 -5 24 -26 -43 vvcurveto
          endchar
        </CharString>
        <CharString name="ellipsis">
          195 -38 172 hstem
          125 -19 callsubr
          232 hmoveto
          -71 callsubr
          232 hmoveto
          -71 callsubr
          endchar
        </CharString>
        <CharString name="emacron">
          -21 callsubr
          78 0 76 20 -20 hstem
          87 100 199 69 vstem
          -106 callgsubr
          -85 247 -60 callsubr
          28 -9 42 -9 17 -69 callgsubr
        </CharString>
        <CharString name="emdash">
          114 -17 callsubr
          220 186 -42 callgsubr
        </CharString>
        <CharString name="endash">
          81 -17 callsubr
          214 186 rmoveto
          hintmask 01000000
          -58 callgsubr
          hintmask 10000000
          -65 callsubr
          endchar
        </CharString>
        <CharString name="eng">
          15 -341 -21 847 -20 hstem
          613 365 rmoveto
          25 -13 -24 29 -34 hhcurveto
          -65 -94 -99 -54 -51 hvcurveto
          -23 -24 -68 -84 -42 -45 8 61 105 142 30 73 -14 44 -34 41 -35 11 -11 -5 -47 -70 -51 -117 rrcurveto
          -45 -103 -30 -112 -50 vvcurveto
          6 -30 12 -32 28 -16 16 9 22 31 29 41 72 101 130 135 39 8 -67 -185 -19 -337 -150 -74 rrcurveto
          0 callsubr
          73 -15 37 hhcurveto
          103 48 106 111 43 hvcurveto
          67 174 4 211 122 125 rrcurveto
          endchar
        </CharString>
        <CharString name="eogonek">
          -107 -266 38 699 -20 hstemhm
          87 65 -65 100 199 69 hintmask 11101000
          86 -169 -83 callgsubr
          68 43 55 43 20 hvcurveto
          79 23 64 58 52 68 -5 6 -5 5 -7 6 rrcurveto
          -45 -42 -69 -72 -72 hhcurveto
          hintmask 11011000
          -38 -8 46 34 hvcurveto
          9 1 9 8 vvcurveto
          170 68 87 65 10 164 -27 34 -29 19 -30 4 rrcurveto
          -132 -150 -193 -164 -64 34 -52 60 -24 hvcurveto
          -54 -29 -41 -59 -55 vvcurveto
          300 550 rmoveto
          -5 -91 -79 -82 -106 -53 32 124 85 92 73 10 rrcurveto
          endchar
        </CharString>
        <CharString name="equal">
          60 93 93 -65 83 84 91 -62 82 hstemhm
          hintmask 10100000
          196 93 rmoveto
          hintmask 01100000
          80 78 28 115 3 callgsubr
          hintmask 10100000
          -36 -107 -18 -136 -1 callgsubr
          45 vhcurveto
          62 195 rmoveto
          hintmask 10010000
          80 78 29 115 -28 callgsubr
          31 -25 hhcurveto
          hintmask 10100000
          -36 -107 -20 -135 -8 callsubr
        </CharString>
        <CharString name="eth">
          8 callgsubr
          384 5 callsubr
          315 467 rmoveto
          -52 callgsubr
          62 -13 71 -21 66 vhcurveto
          29 9 31 8 34 9 -3 18 -7 28 -7 17 -34 -5 -34 -7 -34 -9 -22 52 -27 46 -29 32 -34 -6 -50 -41 -9 -25 22 -35 18 -31 15 -28 -39 -13 -39 -15 -39 -15 rrcurveto
          8 -31 21 -38 15 -9 34 17 35 17 39 16 25 -60 11 -50 7 -60 4 callgsubr
          -481 -59 callsubr
          endchar
        </CharString>
        <CharString name="etilde">
          -21 callsubr
          64 0 73 47 -20 hstemhm
          87 100 199 69 hintmask 11011100
          -106 callgsubr
          -107 243 rmoveto
          -46 9 52 -43 82 hhcurveto
          44 51 9 21 59 hvcurveto
          -5 27 -13 45 -16 18 rrcurveto
          hintmask 10111100
          -32 -68 -52 -15 -51 hhcurveto
          -30 -30 5 11 -32 hvcurveto
          endchar
        </CharString>
        <CharString name="exclam">
          -210 -77 158 710 -20 hstem
          143 188 rmoveto
          -59 28 -10 33 -9 vhcurveto
          43 241 136 228 137 113 -6 33 -63 57 -42 9 rrcurveto
          -78 -57 -188 -436 -110 vvcurveto
          -22 -265 -40 callgsubr
        </CharString>
        <CharString name="exclamdown">
          -236 -328 -21 718 158 hstem
          290 254 rmoveto
          59 -28 10 -33 9 vhcurveto
          -43 -241 -136 -228 -137 -113 6 -33 63 -57 42 -9 rrcurveto
          78 57 188 436 110 vvcurveto
          11 115 -40 callgsubr
        </CharString>
        <CharString name="f">
          -168 -268 -21 669 54 288 -20 67 -20 hstem
          152 -289 rmoveto
          21 113 80 259 100 300 110 -6 rcurveline
          -1 25 -6 28 -6 6 -84 -3 rcurveline
          -62 callsubr
          -95 -335 -25 -119 -22 -137 21 -12 10 -13 3 -19 3 -18 10 -13 17 -7 rrcurveto
          endchar
        </CharString>
        <CharString name="f_f">
          86 -367 38 711 55 235 68 -18 -20 67 -20 hstemhm
          hintmask 11011000
          793 722 rmoveto
          -4 -26 -1 -9 -8 vvcurveto
          -26 11 -20 2 -29 vhcurveto
          -21 1 3 -8 8 hhcurveto
          18 14 18 32 17 50 8 31 13 35 11 19 rrcurveto
          9 -13 -11 4 -7 hhcurveto
          -14 -24 -9 -9 -12 hvcurveto
          -8 -17 3 -15 hhcurveto
          -47 -50 -30 -47 -44 hvcurveto
          hintmask 11101000
          31 -40 -48 32 -52 hhcurveto
          -117 -81 -128 -199 -62 hvcurveto
          -51 -8 -38 -8 -17 -5 rrcurveto
          -8 4 -11 5 -5 vhcurveto
          25 3 30 3 31 2 -55 -190 -45 -152 -49 -133 -66 callsubr
          53 42 13 37 40 hvcurveto
          -30 34 38 -20 60 hhcurveto
          158 59 116 633 201 hvcurveto
          34 -2 33 -4 33 -3 rrcurveto
          7 9 3 21 14 vvcurveto
          7 -1 5 -1 2 vhcurveto
          -24 4 -38 2 -30 1 rrcurveto
          hintmask 11011000
          168 56 68 116 44 hhcurveto
          -458 -821 rmoveto
          -174 -64 -44 -56 -67 hhcurveto
          -29 -33 12 19 -20 hvcurveto
          78 90 73 194 123 398 rrcurveto
          1 41 40 1 35 hhcurveto
          19 hlineto
          -49 -171 -58 -190 -45 -124 rrcurveto
          166 536 rmoveto
          -47 -1 -45 -3 -42 -4 rrcurveto
          hintmask 11101000
          159 62 44 84 70 hhcurveto
          10 29 -5 -19 29 hvcurveto
          -46 -58 -40 -75 -24 -78 rrcurveto
          endchar
        </CharString>
        <CharString name="f_f_i">
          348 -367 38 332 -21 397 61 75 -20 177 68 -54 68 -45 -20 hstemhm
          hintmask 11110100
          125 375 rmoveto
          -51 callgsubr
          56 57 0 -4 59 -29 callgsubr
          -63 -58 2 -53 hhcurveto
          -40 -38 -1 -1 -38 hvcurveto
          126 41 55 122 84 hhcurveto
          20 22 -8 -16 24 -23 callgsubr
          hintmask 11110010
          9 -13 -11 4 -7 hhcurveto
          -20 -34 -9 -9 -16 hvcurveto
          hintmask 11110100
          -24 -78 63 -48 hhcurveto
          -51 -44 -27 -49 -38 hvcurveto
          hintmask 11111000
          8 callsubr
          -209 -64 hvcurveto
          -43 -7 -38 -7 -31 -7 rrcurveto
          386 6 -40 callsubr
          -20 callsubr
        </CharString>
        <CharString name="f_f_l">
          351 -367 38 711 58 232 68 -54 68 76 -20 hstemhm
          721 84 hintmask 11011100
          721 -91 callsubr
          -30 -36 -30 -48 -31 -61 rrcurveto
          39 -47 -71 30 -42 hhcurveto
          -51 -44 -27 -49 -38 hvcurveto
          hintmask 11101100
          8 callsubr
          -208 -64 hvcurveto
          -43 -7 -38 -8 -31 -7 rrcurveto
          -51 callgsubr
          28 29 0 -1 29 hvcurveto
          33 58 rlineto
          -35 -34 -1 -1 -33 hvcurveto
          hintmask 11011100
          126 41 55 122 84 hhcurveto
          23 26 -4 -25 37 hvcurveto
          -38 -77 -39 -94 -41 -113 -38 callgsubr
          -210 317 -40 callsubr
          hintmask 11101100
          -20 callsubr
        </CharString>
        <CharString name="f_i">
          72 -367 38 332 -21 395 62 76 -20 169 68 -23 -20 hstemhm
          hintmask 11111000
          529 439 rmoveto
          -57 -50 -3 -3 -46 hvcurveto
          120 41 57 111 103 hhcurveto
          14 16 -1 -1 16 -23 callgsubr
          hintmask 11110100
          9 -13 -11 4 -7 hhcurveto
          -20 -34 -9 -9 -16 hvcurveto
          hintmask 11111000
          -20 -68 41 -42 hhcurveto
          -119 -87 -122 -193 -65 hvcurveto
          -56 -9 -40 -10 -50 callgsubr
          42 44 -2 -3 42 -29 callgsubr
          -41 -83 1 -14 hhcurveto
          endchar
        </CharString>
        <CharString name="f_l">
          77 -367 38 706 61 226 68 98 -20 hstem
          447 84 vstem
          447 -91 callsubr
          -30 -36 -30 -48 -31 -60 rrcurveto
          14 -35 -72 32 -35 hhcurveto
          -119 -87 -121 -193 -65 hvcurveto
          -57 -9 -39 -11 -50 callgsubr
          30 hlineto
          3 11 13 29 16 14 -32 -1 -30 -2 -28 -2 rrcurveto
          120 41 57 111 103 hhcurveto
          12 30 -3 -7 24 hvcurveto
          -37 -76 -38 -93 -41 -112 -38 callgsubr
          endchar
        </CharString>
        <CharString name="five">
          28 -36 91 308 64 0 172 110 -20 hstemhm
          463 71 hintmask 11011000
          175 381 rmoveto
          18 -26 42 -21 29 -11 rrcurveto
          26 40 48 14 42 hhcurveto
          46 23 -19 -42 -138 -241 -107 -148 -2 hvcurveto
          14 -53 39 -31 32 -7 rrcurveto
          175 3 200 144 147 vvcurveto
          95 -62 74 -90 -23 -24 -4 -10 -25 vhcurveto
          hintmask 10111000
          23 45 51 92 56 49 rrcurveto
          86 96 -13 -21 81 hvcurveto
          -21 61 -22 44 -45 21 -32 -10 -111 -23 -37 -3 -26 25 -36 19 -26 10 -46 -62 -90 -171 -36 -95 rrcurveto
          endchar
        </CharString>
        <CharString name="florin">
          54 -367 38 709 54 288 -20 67 -20 hstem
          491 433 rmoveto
          -62 callsubr
          -50 -173 -53 -178 -49 -132 -66 callsubr
          164 54 94 656 209 hvcurveto
          110 -6 -1 25 -6 28 -6 6 rlinecurve
          endchar
        </CharString>
        <CharString name="four">
          60 -10 -21 263 58 420 -20 hstem
          620 688 rmoveto
          -68 -129 -65 -130 -65 -135 rrcurveto
          -2 -25 -35 -2 -25 hhcurveto
          -37 -38 5 15 -34 hvcurveto
          59 82 123 147 91 104 -38 32 -48 21 -47 14 -68 -146 -91 -145 -105 -119 rrcurveto
          -58 48 84 -10 73 hhcurveto
          26 37 4 3 25 hvcurveto
          -35 -77 -29 -76 -24 -80 28 -31 39 -5 40 -1 23 105 36 99 48 98 79 29 rcurveline
          -1 8 -4 8 -5 6 -49 -10 rcurveline
          56 110 61 105 70 97 -23 35 -47 20 -40 9 rrcurveto
          endchar
        </CharString>
        <CharString name="fourinferior">
          -138 -26 -21 303 -20 hstem
          332 244 -88 callsubr
        </CharString>
        <CharString name="foursuperior">
          -153 424 -21 103 -20 220 -20 hstem
          469 694 -88 callsubr
        </CharString>
        <CharString name="fraction">
          -96 -18 -21 800 -20 hstem
          645 713 -33 callgsubr
        </CharString>
        <CharString name="g">
          -12 callsubr
          hstem
          87 80 vstem
          -100 callgsubr
          endchar
        </CharString>
        <CharString name="gbreve">
          -12 callsubr
          220 -20 hstem
          87 80 vstem
          -100 callgsubr
          585 822 -84 callgsubr
        </CharString>
        <CharString name="gcircumflex">
          -12 callsubr
          0 76 -48 -20 226 -20 hstemhm
          87 80 hintmask 11011100
          -100 callgsubr
          624 1011 rmoveto
          1 -7 -5 0 -16 hhcurveto
          -27 -21 -5 -9 -13 hvcurveto
          3 -16 -43 -51 -46 -32 -54 -19 rlinecurve
          hintmask 10101100
          -17 16 18 -9 20 hhcurveto
          32 45 23 33 37 hvcurveto
          hintmask 11011100
          -86 callsubr
        </CharString>
        <CharString name="gcommaaccent">
          -12 callsubr
          0 31 266 -20 hstemhm
          87 80 hintmask 11011000
          -100 callgsubr
          676 1075 rmoveto
          -88 -40 -72 -95 -17 -60 rrcurveto
          hintmask 10111000
          7 -33 67 -34 68 -4 rrcurveto
          -8 29 -4 26 24 vvcurveto
          58 23 44 40 47 vhcurveto
          13 -8 18 -8 7 vhcurveto
          endchar
        </CharString>
        <CharString name="gdotaccent">
          -12 callsubr
          238 -20 hstem
          87 80 vstem
          -100 callgsubr
          566 834 -91 callgsubr
        </CharString>
        <CharString name="germandbls">
          90 -268 -21 1097 -20 hstem
          517 98 51 70 vstem
          91 -289 rmoveto
          7 28 52 264 77 217 93 263 111 142 222 145 rrcurveto
          9 -24 4 -12 -21 vvcurveto
          -114 -115 -149 -170 -67 vhcurveto
          85 -52 51 -53 -62 vvcurveto
          -96 -127 -109 -125 -31 vhcurveto
          4 -46 36 -41 29 -11 rrcurveto
          148 25 133 133 133 vvcurveto
          61 -28 52 -83 67 vhcurveto
          131 40 101 169 108 vvcurveto
          67 -38 37 -58 34 vhcurveto
          -238 -86 -160 -228 -92 -217 -61 -142 -34 -152 -35 -190 42 -25 -9 -42 38 -15 rrcurveto
          endchar
        </CharString>
        <CharString name="grave">
          -225 546 -21 204 -20 hstem
          78 729 -72 callsubr
        </CharString>
        <CharString name="grave.cap">
          -225 -11 callsubr
          78 883 -79 callsubr
        </CharString>
        <CharString name="greater">
          113 174 -21 53 87 257 -20 hstem
          318 -57 callsubr
          endchar
        </CharString>
        <CharString name="greaterequal">
          146 16 92 -64 84 78 87 257 -20 hstemhm
          hintmask 10110000
          313 -57 callsubr
          -77 -534 rmoveto
          hintmask 01110000
          -58 callgsubr
          hintmask 10110000
          -65 callsubr
          endchar
        </CharString>
        <CharString name="guillemotleft">
          564 73 -21 423 -20 hstem
          470 52 rmoveto
          -77 callgsubr
          510 hmoveto
          -77 callgsubr
          endchar
        </CharString>
        <CharString name="guillemotright">
          533 33 -21 393 32 hstem
          193 437 rmoveto
          -67 callgsubr
          480 hmoveto
          -67 callgsubr
          endchar
        </CharString>
        <CharString name="guilsinglleft">
          54 73 -21 423 -20 hstem
          470 52 rmoveto
          -77 callgsubr
          endchar
        </CharString>
        <CharString name="guilsinglright">
          53 33 -21 393 32 hstem
          193 437 rmoveto
          -67 callgsubr
          endchar
        </CharString>
        <CharString name="h">
          6 callgsubr
          396 -20 hstem
          337 93 vstem
          96 17 rmoveto
          -21 1 21 -44 9 hhcurveto
          -75 callgsubr
          47 92 83 109 100 102 rrcurveto
          25 -23 -61 23 -42 hhcurveto
          -91 -104 -91 -153 -54 -141 rrcurveto
          -61 -157 -40 -164 -94 vvcurveto
          endchar
        </CharString>
        <CharString name="hbar">
          6 callgsubr
          162 76 158 -20 hstem
          337 93 vstem
          204 675 rmoveto
          -37 -1 -16 -1 -13 vhcurveto
          22 -5 24 -3 27 -2 -31 -55 -26 -57 -21 -55 rrcurveto
          -61 -157 -40 -164 -94 vvcurveto
          3 -32 12 -22 16 -11 rrcurveto
          -75 callgsubr
          19 37 24 39 29 41 51 1 50 3 48 5 rrcurveto
          28 -10 42 -11 17 vhcurveto
          -20 -4 -20 -3 -21 -3 28 33 30 34 33 33 rrcurveto
          25 -23 -61 23 -42 hhcurveto
          -40 -45 -39 -55 -37 -58 rrcurveto
          -45 -34 1 2 -34 hvcurveto
          endchar
        </CharString>
        <CharString name="hcircumflex">
          6 callgsubr
          396 -20 259 -20 hstem
          337 93 vstem
          96 17 rmoveto
          -21 1 21 -44 9 hhcurveto
          -75 callgsubr
          47 92 83 109 100 102 rrcurveto
          25 -23 -61 23 -42 hhcurveto
          -91 -104 -91 -153 -54 -141 rrcurveto
          -61 -157 -40 -164 -94 vvcurveto
          531 1051 -89 callgsubr
          -86 callsubr
        </CharString>
        <CharString name="hungarumlaut">
          -146 546 -21 192 -20 hstem
          111 717 -46 callgsubr
        </CharString>
        <CharString name="hungarumlaut.cap">
          -146 -11 callsubr
          111 883 rmoveto
          -66 callgsubr
          140 hmoveto
          -66 callgsubr
          endchar
        </CharString>
        <CharString name="hyphen">
          -47 callgsubr
        </CharString>
        <CharString name="i">
          -274 3 -21 701 -20 hstem
          98 79 vstem
          98 67 rmoveto
          -59 63 -26 10 6 0 9 24 vhcurveto
          1 29 15 43 14 37 34 88 18 71 61 68 -26 39 -45 22 -22 5 -60 -30 -29 -104 -6 -26 rrcurveto
          -26 -120 -8 -47 -23 vvcurveto
          191 434 -91 callgsubr
        </CharString>
        <CharString name="iacute">
          -271 -9 -21 506 -20 224 -20 hstem
          97 80 vstem
          97 -89 callsubr
          343 624 -93 callsubr
        </CharString>
        <CharString name="ibreve">
          -271 -9 -21 681 -20 hstem
          97 80 vstem
          97 -89 callsubr
          268 419 -84 callgsubr
        </CharString>
        <CharString name="icircumflex">
          -209 -9 -21 489 -20 68 -20 178 -20 hstem
          94 80 vstem
          94 -89 callsubr
          307 608 -89 callgsubr
          -86 callsubr
        </CharString>
        <CharString name="idieresis">
          -271 -9 -21 681 -20 hstem
          97 80 vstem
          97 -89 callsubr
          155 500 -97 callgsubr
        </CharString>
        <CharString name="igrave">
          -271 -9 -21 506 -20 224 -20 hstem
          97 80 vstem
          97 -89 callsubr
          163 624 -72 callsubr
        </CharString>
        <CharString name="ij">
          9 -362 45 299 52 438 -20 280 -20 hstem
          96 90 vstem
          318 351 rmoveto
          -20 29 -41 29 -32 8 -37 -18 -42 -71 -16 -71 rrcurveto
          -25 -115 -9 -51 -24 vvcurveto
          -35 43 -50 30 72 78 70 158 104 vhcurveto
          -433 -115 -45 -94 -89 hhcurveto
          -34 -23 10 24 -23 hvcurveto
          -7 -1 -9 -11 -1 -9 rrcurveto
          -33 23 61 -25 58 hhcurveto
          119 51 100 544 154 hvcurveto
          14 49 21 50 40 64 rrcurveto
          17 -25 -26 10 -20 hhcurveto
          -38 -35 -58 -132 -39 hvcurveto
          -138 -81 -104 -110 -49 hhcurveto
          -10 -5 8 14 53 78 175 54 67 hvcurveto
          -31 150 rmoveto
          -11 -6 callgsubr
          -39 -16 -66 -26 vvcurveto
          -12 5 -14 7 -7 -55 callsubr
          280 50 -34 callsubr
        </CharString>
        <CharString name="imacron">
          -271 -9 -21 530 76 20 -20 hstemhm
          97 80 hintmask 11010000
          97 -89 callsubr
          94 523 -60 callsubr
          hintmask 10110000
          28 -9 42 -9 17 -69 callgsubr
        </CharString>
        <CharString name="iogonek">
          -275 -253 38 898 -20 hstem
          -3 66 34 79 vstem
          -3 -156 -83 callgsubr
          80 60 62 48 8 hvcurveto
          5 1 0 9 23 vvcurveto
          1 29 15 43 14 37 34 88 18 71 61 68 -26 39 -45 22 -22 5 -60 -30 -29 -104 -6 -26 rrcurveto
          -26 -120 -8 -47 -23 vvcurveto
          -31 17 -21 17 -14 vhcurveto
          -71 -16 -63 -73 -68 vvcurveto
          291 657 -91 callgsubr
        </CharString>
        <CharString name="itilde">
          -271 -9 -21 516 73 47 -20 hstem
          97 80 vstem
          97 -89 callsubr
          72 519 -81 callsubr
        </CharString>
        <CharString name="j">
          12 callgsubr
          -20 280 -20 hstem
          -69 callsubr
          163 364 -34 callsubr
        </CharString>
        <CharString name="jcircumflex">
          12 callgsubr
          84 -48 -20 226 -20 hstemhm
          hintmask 11010000
          -69 callsubr
          245 526 -89 callgsubr
          hintmask 10110000
          -86 callsubr
        </CharString>
        <CharString name="k">
          6 -101 -21 544 45 365 -20 hstem
          99 81 293 62 vstem
          99 -82 callgsubr
          63 196 134 216 120 96 rrcurveto
          37 -57 62 -37 3 vhcurveto
          -101 -70 -245 -523 -145 vvcurveto
          endchar
        </CharString>
        <CharString name="kcommaaccent">
          6 -329 -21 249 -21 544 45 365 -20 hstem
          99 81 293 62 vstem
          99 -82 callgsubr
          63 196 134 216 120 96 rrcurveto
          37 -57 62 -37 3 vhcurveto
          -101 -70 -245 -523 -145 vvcurveto
          11 -444 -96 callsubr
        </CharString>
        <CharString name="kgreenlandic">
          9 -101 -21 544 45 95 -20 hstem
          102 81 293 62 vstem
          102 -82 callgsubr
          25 96 58 116 44 46 rrcurveto
          29 -51 50 -33 3 vhcurveto
          -47 -43 -119 -334 -91 vvcurveto
          endchar
        </CharString>
        <CharString name="l">
          -274 -52 -21 903 -20 hstem
          96 84 vstem
          96 -91 callsubr
          -69 -84 -72 -149 -82 -224 -38 callgsubr
          endchar
        </CharString>
        <CharString name="lacute">
          -274 -52 -21 1157 -20 hstem
          96 84 vstem
          96 -91 callsubr
          -69 -84 -72 -149 -82 -224 -38 callgsubr
          565 1020 -93 callsubr
        </CharString>
        <CharString name="lcaron">
          -274 -52 -21 905 -20 hstem
          96 84 vstem
          96 -91 callsubr
          -69 -84 -72 -149 -82 -224 -38 callgsubr
          427 462 -74 callgsubr
        </CharString>
        <CharString name="lcommaaccent">
          -274 -329 -21 1180 -20 hstem
          96 84 vstem
          96 -91 callsubr
          -69 -84 -72 -149 -82 -224 -38 callgsubr
          -107 -414 -96 callsubr
        </CharString>
        <CharString name="ldot">
          -186 -52 -21 903 -20 hstem
          96 84 vstem
          96 -91 callsubr
          -69 -84 -72 -149 -82 -224 -38 callgsubr
          242 127 -56 callsubr
        </CharString>
        <CharString name="less">
          6 158 53 287 118 hstem
          533 -57 callgsubr
          endchar
        </CharString>
        <CharString name="lessequal">
          105 16 92 -64 84 30 53 287 118 hstemhm
          hintmask 10110000
          549 -57 callgsubr
          -346 -175 rmoveto
          hintmask 01110000
          -58 callgsubr
          hintmask 10110000
          -65 callsubr
          endchar
        </CharString>
        <CharString name="logicalnot">
          92 98 -21 223 64 33 -20 hstemhm
          520 61 -61 80 hintmask 11101000
          581 328 rmoveto
          16 1 20 4 33 vhcurveto
          -19 -75 -81 -14 -205 hhcurveto
          -32 -17 0 4 -22 hvcurveto
          -2 -7 -4 -17 -6 vvcurveto
          -53 27 -15 45 vhcurveto
          66 103 30 115 hhcurveto
          9 -44 7 -48 -47 vvcurveto
          -27 -2 -26 -5 -25 vhcurveto
          -2 7 17 -4 6 hhcurveto
          45 12 34 45 hvcurveto
          hintmask 11110000
          56 -19 72 44 vvcurveto
          endchar
        </CharString>
        <CharString name="lslash">
          -215 -52 -21 903 -20 hstem
          140 84 vstem
          140 64 rmoveto
          -43 9 -38 12 -8 vhcurveto
          9 -6 15 -16 3 -7 4 -9 15 -8 18 -2 rrcurveto
          -1 5 0 1 23 vvcurveto
          84 30 130 56 156 vhcurveto
          13 37 14 35 15 34 37 13 41 12 44 11 -3 14 -7 20 -7 17 -24 -4 -24 -4 -24 -5 48 98 55 84 67 79 -11 17 -69 40 -32 6 -58 -71 -61 -117 -66 -169 rrcurveto
          -45 -13 -46 -16 -45 -18 8 -31 11 -35 15 -9 21 11 23 11 24 10 rrcurveto
          -52 -138 -32 -123 -58 vvcurveto
          endchar
        </CharString>
        <CharString name="m">
          255 -30 49 288 120 49 -20 hstem
          594 102 vstem
          675 307 rmoveto
          -26 -55 -55 -90 -91 vvcurveto
          -55 20 -46 63 34 27 16 21 27 vhcurveto
          6 0 10 -8 5 vhcurveto
          -7 -15 -9 -16 hhcurveto
          -15 -8 6 28 hvcurveto
          1 95 100 159 24 79 rrcurveto
          27 -9 -26 14 -27 hhcurveto
          -76 -99 -118 -178 -130 hvcurveto
          9 56 101 148 13 53 rrcurveto
          8 -3 -45 26 -33 hhcurveto
          -86 -136 -193 -107 -76 hvcurveto
          15 110 101 105 26 82 -33 33 -28 16 -37 8 -45 -79 -55 -101 -30 -97 -16 -51 -9 -51 -1 -32 7 -36 9 -29 35 -25 14 9 34 59 49 69 75 105 103 120 41 2 rrcurveto
          -82 -117 -30 -93 -14 -83 9 -34 23 -24 29 -12 64 78 159 248 64 5 rrcurveto
          endchar
        </CharString>
        <CharString name="macron">
          -164 549 76 20 -20 hstemhm
          hintmask 10000000
          22 628 -60 callsubr
          hintmask 01000000
          28 -9 42 -9 17 -69 callgsubr
        </CharString>
        <CharString name="macron.cap">
          -164 797 66 20 -20 hstemhm
          hintmask 10000000
          22 866 -59 callgsubr
          hintmask 01000000
          25 -9 37 -9 15 -69 callgsubr
        </CharString>
        <CharString name="minus">
          124 -17 callsubr
          235 186 rmoveto
          hintmask 01000000
          -58 callgsubr
          hintmask 10000000
          -65 callsubr
          endchar
        </CharString>
        <CharString name="mu">
          9 15 callsubr
          55 78 219 109 vstem
          384 -71 callgsubr
        </CharString>
        <CharString name="multiply">
          -26 70 -21 406 -20 hstem
          256 245 rmoveto
          -36 -44 -37 -49 -35 -49 12 -25 19 -20 18 -9 39 48 41 47 41 44 35 -35 37 -41 35 -59 rrcurveto
          20 23 26 33 30 vvcurveto
          8 -1 8 -5 6 vhcurveto
          -25 32 -29 30 -30 29 53 51 53 44 50 31 -2 19 -51 45 -24 13 -39 -28 -50 -50 -55 -62 -36 37 -33 39 -22 46 rrcurveto
          -49 -28 -11 -9 -34 vvcurveto
          -44 58 -50 33 -27 vhcurveto
          endchar
        </CharString>
        <CharString name="n">
          13 callgsubr
          445 -107 callgsubr
          endchar
        </CharString>
        <CharString name="nacute">
          13 callgsubr
          379 84 204 -107 callgsubr
          326 222 -93 callsubr
        </CharString>
        <CharString name="napostrophe">
          13 callgsubr
          793 -107 callgsubr
          -24 42 -74 callgsubr
        </CharString>
        <CharString name="ncaron">
          13 callgsubr
          653 -107 callgsubr
          229 -2 -92 callgsubr
        </CharString>
        <CharString name="ncommaaccent">
          30 -329 -21 339 51 445 -107 callgsubr
          -126 -835 -96 callsubr
        </CharString>
        <CharString name="ndotaccent">
          13 callgsubr
          654 -107 callgsubr
          172 27 -91 callgsubr
        </CharString>
        <CharString name="nine">
          44 -39 -21 787 -20 hstem
          172 95 306 102 vstem
          231 -60 rmoveto
          191 63 253 386 161 vvcurveto
          93 -68 63 -104 21 vhcurveto
          -111 -220 -207 -121 -61 58 -75 55 -30 hvcurveto
          61 3 88 68 58 61 -93 -171 -195 -163 -93 -12 9 -27 75 -42 36 -10 rrcurveto
          61 350 rmoveto
          -18 18 -7 31 30 vvcurveto
          100 123 169 97 50 vhcurveto
          42 -12 44 -49 -38 vvcurveto
          -111 -149 -161 -132 -27 vhcurveto
          endchar
        </CharString>
        <CharString name="notequal">
          14 -18 -21 132 93 -65 83 84 91 -62 82 171 -20 hstemhm
          hintmask 11010100
          237 288 rmoveto
          31 31 4 5 33 hvcurveto
          -24 -37 -25 -37 -24 -35 rrcurveto
          -1 -24 -26 -1 -26 -1 callgsubr
          60 vhcurveto
          -29 -38 -28 -33 -23 -23 4 -18 18 -18 12 -2 32 33 43 49 48 59 rrcurveto
          hintmask 10101100
          8 52 57 11 72 3 callgsubr
          -21 -43 -6 -5 -59 hvcurveto
          29 38 29 40 30 41 rrcurveto
          3 26 27 2 30 -28 callgsubr
          31 -25 hhcurveto
          -9 -13 -1 -2 -15 hvcurveto
          30 45 30 44 28 45 rrcurveto
          18 -8 -51 22 -29 hhcurveto
          -26 -54 -35 -64 -40 -67 rrcurveto
          hintmask 11010100
          -3 -41 -48 -3 -51 -8 callsubr
        </CharString>
        <CharString name="ntilde">
          13 callgsubr
          473 73 47 -107 callgsubr
          55 117 -81 callsubr
        </CharString>
        <CharString name="numbersign">
          166 -134 -21 331 77 -48 62 77 77 -48 61 367 -20 hstemhm
          hintmask 11010100
          250 344 rmoveto
          20 32 1 3 37 hvcurveto
          -11 -32 -10 -32 -11 -31 rrcurveto
          -2 -43 -41 0 -32 12 callsubr
          -4 -13 -3 -11 -10 vvcurveto
          -29 20 -18 40 23 39 2 4 46 vhcurveto
          -50 -135 -46 -106 -29 -53 3 -22 8 -13 15 -8 49 71 59 122 62 150 34 3 35 3 35 2 -52 -142 -48 -111 -30 -55 3 -22 8 -13 15 -8 50 73 61 127 65 156 rrcurveto
          hintmask 10101100
          3 34 32 1 25 hhcurveto
          16 20 -1 -4 32 hvcurveto
          56 -3 -18 15 -25 hhcurveto
          -11 -32 -2 -2 -44 hvcurveto
          14 33 13 34 14 35 rrcurveto
          3 38 35 1 28 -26 callgsubr
          -3 -19 15 -25 hhcurveto
          -12 -37 -2 -3 -49 hvcurveto
          37 99 38 104 38 106 rrcurveto
          43 -20 -38 15 -32 hhcurveto
          -32 -126 -37 -127 -38 -119 -90 -5 rcurveline
          39 102 39 107 39 110 rrcurveto
          43 -20 -38 15 -32 hhcurveto
          hintmask 11010100
          -32 -129 -39 -130 -39 -121 rrcurveto
          -2 -35 -33 0 -27 hhcurveto
          -32 -17 3 3 -21 hvcurveto
          -5 -13 -2 -11 -10 vvcurveto
          -29 19 -18 40 vhcurveto
          169 11 rmoveto
          31 2 32 3 32 3 -11 -35 -12 -33 -11 -33 -32 -2 -34 -2 -34 -1 13 31 13 33 13 34 rrcurveto
          endchar
        </CharString>
        <CharString name="o">
          -69 -14 -21 508 -20 hstem
          90 95 232 73 vstem
          215 -35 rmoveto
          160 34 115 143 167 vvcurveto
          64 -17 30 -36 vhcurveto
          -6 -6 -1 -6 hhcurveto
          -102 callsubr
          endchar
        </CharString>
        <CharString name="oacute">
          7 callgsubr
          110 -40 -20 264 -16 callgsubr
          73 hintmask 11011100
          -78 callgsubr
          hintmask 10111100
          -102 callsubr
          314 437 4 callsubr
          hintmask 11011100
          -13 16 17 -6 22 hhcurveto
          42 46 22 68 102 hvcurveto
          37 -30 60 -28 17 vhcurveto
          endchar
        </CharString>
        <CharString name="obreve">
          -69 -14 -21 508 -20 235 -20 hstem
          90 95 232 73 vstem
          215 -35 rmoveto
          160 34 115 143 167 vvcurveto
          64 -17 30 -36 vhcurveto
          -6 -6 -1 -6 hhcurveto
          -102 callsubr
          239 232 -84 callgsubr
        </CharString>
        <CharString name="ocircumflex">
          7 callgsubr
          141 -71 -20 43 -20 226 -16 callgsubr
          73 hintmask 11001110
          -78 callgsubr
          hintmask 10111110
          -102 callsubr
          278 421 rmoveto
          1 -7 -5 0 -16 hhcurveto
          -27 -21 -5 -9 -13 hvcurveto
          3 -16 -43 -51 -46 -32 -54 -19 rlinecurve
          hintmask 11001110
          -17 16 18 -9 20 hhcurveto
          32 45 23 33 37 hvcurveto
          hintmask 10111110
          -86 callsubr
        </CharString>
        <CharString name="odieresis">
          -69 -14 -21 508 -20 235 -20 hstem
          90 95 232 73 vstem
          215 -35 rmoveto
          160 34 115 143 167 vvcurveto
          64 -17 30 -36 vhcurveto
          -6 -6 -1 -6 hhcurveto
          -102 callsubr
          126 313 -97 callgsubr
        </CharString>
        <CharString name="oe">
          215 -17 -21 414 91 6 -16 callgsubr
          74 hintmask 11011000
          796 412 rmoveto
          43 -37 -21 12 -38 hhcurveto
          -71 -80 -54 -75 -61 hvcurveto
          44 -5 -16 21 -30 -32 callgsubr
          hintmask 10111000
          -20 35 -22 25 -21 11 rrcurveto
          -31 -36 -14 -27 -36 hvcurveto
          -94 -69 -69 -129 -107 vvcurveto
          -90 49 -64 76 -8 vhcurveto
          72 16 63 37 48 52 15 -52 48 -42 63 -14 -56 callgsubr
          -530 -132 rmoveto
          33 43 47 43 58 17 rrcurveto
          9 -14 4 -19 -34 vvcurveto
          -156 -87 -128 -119 -26 vhcurveto
          -13 4 -13 35 32 vvcurveto
          53 35 89 46 61 vhcurveto
          hintmask 11011000
          456 96 -24 callgsubr
          endchar
        </CharString>
        <CharString name="ogonek">
          -252 -248 38 219 -20 hstem
          40 66 vstem
          40 -151 rmoveto
          -58 52 -35 53 -4 vhcurveto
          27 3 59 36 27 33 rrcurveto
          0 -3 6 -3 6 vhcurveto
          -17 -23 -50 -29 -34 hhcurveto
          -23 -16 12 35 80 60 62 48 8 hvcurveto
          -19 22 rlineto
          -79 -5 -76 -81 -74 vvcurveto
          endchar
        </CharString>
        <CharString name="ograve">
          7 callgsubr
          110 -40 -20 264 -16 callgsubr
          73 hintmask 11011100
          -78 callgsubr
          hintmask 10111100
          -102 callsubr
          134 437 rmoveto
          -28 -17 -30 -60 -37 vvcurveto
          hintmask 11011100
          -68 102 46 -22 42 hhcurveto
          22 17 6 13 16 hvcurveto
          -59 22 -72 71 -56 92 rrcurveto
          endchar
        </CharString>
        <CharString name="ohungarumlaut">
          7 callgsubr
          110 -40 -20 252 -16 callgsubr
          73 hintmask 11011100
          -78 callgsubr
          hintmask 10111100
          -102 callsubr
          176 425 rmoveto
          -25 -81 -26 -59 -40 -41 rrcurveto
          hintmask 11011100
          -7 12 11 -4 13 hhcurveto
          42 55 56 74 41 hvcurveto
          -16 33 -37 22 -30 7 rrcurveto
          140 hmoveto
          -63 callsubr
          endchar
        </CharString>
        <CharString name="omacron">
          7 callgsubr
          134 -64 -20 84 76 20 -16 callgsubr
          73 hintmask 11001110
          -78 callgsubr
          hintmask 10110110
          -102 callsubr
          65 336 -60 callsubr
          hintmask 11001110
          28 -9 42 -9 17 -69 callgsubr
        </CharString>
        <CharString name="one">
          -72 -20 -21 25 88 656 -20 hstem
          374 72 rmoveto
          -18 -24 -1 -3 -28 hvcurveto
          59 193 92 265 54 97 10 19 15 16 17 14 -16 32 -82 14 -38 10 -14 -27 -24 -30 -15 -14 -61 -58 -49 -48 -49 -66 rrcurveto
          -15 4 -8 7 -4 vhcurveto
          34 30 54 41 45 21 -53 -154 -55 -181 -38 -161 -81 -13 -75 -16 -11 -10 rrcurveto
          -34 13 40 -22 52 63 89 25 81 hhcurveto
          29 21 -2 -3 17 hvcurveto
          3 8 2 13 10 vvcurveto
          39 -26 23 -44 vhcurveto
          endchar
        </CharString>
        <CharString name="onehalf">
          300 -9 142 100 27 139 11 callsubr
          561 76 113 70 hintmask 11101110
          827 713 -90 callsubr
          -454 -258 rmoveto
          hintmask 11011110
          -81 callgsubr
          hintmask 11101110
          -55 callgsubr
          447 -266 -53 callsubr
          -77 callsubr
          endchar
        </CharString>
        <CharString name="oneinferior">
          -210 -51 56 -25 -21 303 -20 hstemhm
          hintmask 10100000
          215 5 rmoveto
          -81 callgsubr
          -18 9 27 -12 32 hhcurveto
          hintmask 01100000
          39 45 10 43 hhcurveto
          13 16 -2 -1 15 hvcurveto
          1 6 4 12 2 vvcurveto
          hintmask 10100000
          18 -18 11 -30 vhcurveto
          endchar
        </CharString>
        <CharString name="onequarter">
          277 -26 -21 446 11 callsubr
          hintmask 11010000
          827 713 -90 callsubr
          -454 -258 rmoveto
          hintmask 10110000
          -81 callgsubr
          hintmask 11010000
          -55 callgsubr
          376 -211 -88 callsubr
        </CharString>
        <CharString name="onesuperior">
          -198 399 56 -1 -20 278 -20 hstemhm
          hintmask 10100000
          365 455 rmoveto
          hintmask 01100000
          -81 callgsubr
          hintmask 10100000
          -55 callgsubr
          endchar
        </CharString>
        <CharString name="onethird">
          296 -49 14 callgsubr
          144 11 callsubr
          732 62 -37 37 hintmask 11110110
          828 713 -90 callsubr
          -454 -258 rmoveto
          hintmask 11101110
          -81 callgsubr
          hintmask 11110101
          -55 callgsubr
          210 -223 -73 callsubr
          hintmask 11110110
          -83 callsubr
          endchar
        </CharString>
        <CharString name="oogonek">
          -69 -265 38 700 -20 hstemhm
          59 66 -35 35 -35 95 232 73 hintmask 11010100
          59 -168 -83 callgsubr
          72 47 57 45 17 hvcurveto
          159 34 114 142 167 vvcurveto
          64 -17 30 -36 vhcurveto
          -15 callsubr
          -69 28 -54 48 -24 vhcurveto
          hintmask 11100100
          -59 -26 -48 -63 -59 vvcurveto
          207 448 rmoveto
          33 43 47 43 58 17 rrcurveto
          9 -14 4 -19 -34 vvcurveto
          -156 -87 -128 -119 -26 vhcurveto
          hintmask 11001100
          -13 4 -13 35 32 vvcurveto
          53 35 89 46 61 vhcurveto
          endchar
        </CharString>
        <CharString name="ordfeminine">
          -139 439 -2 callgsubr
          296 -20 hstemhm
          203 64 123 67 hintmask 10111000
          469 682 rmoveto
          -20 -38 -29 -45 -21 -30 -53 -76 -41 -33 -28 -5 rrcurveto
          -8 2 -2 4 9 vvcurveto
          76 96 110 79 10 vhcurveto
          -2 16 -32 29 -20 4 rrcurveto
          -80 -4 -105 -126 -92 vvcurveto
          -43 24 -31 35 -1 vhcurveto
          49 6 63 62 43 75 rrcurveto
          -18 -40 -9 -33 -23 vvcurveto
          hintmask 01111000
          -31 13 -15 26 14 22 5 6 11 vhcurveto
          -13 6 -6 16 23 vvcurveto
          42 27 74 38 69 vhcurveto
          8 1 -34 14 -20 hhcurveto
          endchar
        </CharString>
        <CharString name="ordmasculine">
          -174 432 -21 314 -20 hstem
          206 69 167 52 vstem
          296 411 rmoveto
          115 21 83 88 104 vvcurveto
          39 -12 19 -26 vhcurveto
          -4 -5 -1 -4 hhcurveto
          -14 22 -16 16 -15 6 rrcurveto
          -23 -25 -8 -17 -26 hvcurveto
          -68 -43 -50 -80 -66 vvcurveto
          -56 36 -40 54 -4 vhcurveto
          37 195 rmoveto
          24 26 34 27 41 11 rrcurveto
          7 -9 3 -12 -21 vvcurveto
          -97 -63 -79 -86 -16 vhcurveto
          -9 2 -9 22 20 vvcurveto
          33 25 55 33 38 vhcurveto
          endchar
        </CharString>
        <CharString name="oslash">
          -68 -55 -21 549 -20 48 -73 callgsubr
          endchar
        </CharString>
        <CharString name="oslashacute">
          -68 -55 -21 549 -20 48 -20 240 -73 callgsubr
          168 467 -93 callsubr
        </CharString>
        <CharString name="otilde">
          7 callgsubr
          120 -50 -20 70 73 47 -16 callgsubr
          73 hintmask 11001110
          -78 callgsubr
          hintmask 10111110
          -102 callsubr
          43 332 -81 callsubr
        </CharString>
        <CharString name="p">
          -12 -345 -21 380 -21 555 -20 hstem
          24 -331 rmoveto
          -54 callgsubr
          19 70 62 122 38 35 -9 16 -49 20 -46 7 -24 -21 -38 -68 -10 -31 -14 -44 -29 -81 -14 callgsubr
          rrcurveto
          endchar
        </CharString>
        <CharString name="paragraph">
          100 -129 -21 135 -21 304 53 191 -20 117 130 hstem
          177 93 178 72 194 25 vstem
          500 512 rmoveto
          -1 -16 -18 -57 -26 -72 rrcurveto
          -21 -38 -58 -25 -49 hhcurveto
          -17 -23 4 32 123 270 129 129 32 11 -11 -32 2 hvcurveto
          20 5 25 29 66 -47 53 -73 hvcurveto
          -191 -12 -251 -117 -213 vvcurveto
          -97 62 -32 50 43 48 23 43 63 vhcurveto
          -63 -172 -92 -235 -22 vvcurveto
          16 -33 31 -14 47 -8 rrcurveto
          -3 4 -1 18 11 vvcurveto
          80 110 338 96 191 vhcurveto
          9 -16 -25 11 -43 hhcurveto
          198 -1 rmoveto
          8 -19 -30 11 -36 hhcurveto
          -29 -124 -136 -285 -90 vvcurveto
          -42 40 -25 38 vhcurveto
          -4 10 -2 14 13 vvcurveto
          105 135 273 43 132 vhcurveto
          endchar
        </CharString>
        <CharString name="parenleft">
          -191 -123 -21 996 -20 hstem
          139 74 vstem
          252 -131 rmoveto
          -25 60 -14 128 107 vvcurveto
          245 154 300 210 37 vhcurveto
          -3 16 -50 75 -38 15 rrcurveto
          -171 -88 -176 -261 -326 vvcurveto
          -157 40 -92 61 -72 vhcurveto
          endchar
        </CharString>
        <CharString name="parenright">
          -188 -173 -21 996 -20 hstem
          322 74 vstem
          283 789 rmoveto
          25 -60 14 -128 -107 vvcurveto
          -245 -154 -300 -210 -37 vhcurveto
          3 -16 50 -75 38 -15 rrcurveto
          171 88 176 261 326 vvcurveto
          157 -40 92 -61 72 vhcurveto
          endchar
        </CharString>
        <CharString name="percent">
          109 -18 -21 139 165 219 165 112 -20 hstem
          227 153 105 153 vstem
          563 265 -29 callsubr
          -258 384 -6 callsubr
          434 64 -33 callgsubr
        </CharString>
        <CharString name="period">
          -269 -17 -21 172 -20 hstem
          125 -19 callsubr
          endchar
        </CharString>
        <CharString name="periodcentered">
          -283 212 -21 143 -20 hstem
          184 191 -56 callsubr
        </CharString>
        <CharString name="perthousand">
          334 -18 -21 113 165 245 165 112 -20 hstem
          234 153 60 153 107 153 vstem
          525 239 -29 callsubr
          -213 410 -6 callsubr
          473 -410 -29 callsubr
          -39 474 -33 callgsubr
        </CharString>
        <CharString name="plus">
          47 60 -21 157 92 -64 84 173 -20 hstemhm
          hintmask 10110000
          321 39 rmoveto
          20 61 23 60 25 55 rrcurveto
          5 39 43 4 48 hhcurveto
          18 23 -1 -4 39 hvcurveto
          57 -11 -24 32 -29 hhcurveto
          -19 -36 -5 -4 -48 hvcurveto
          26 46 27 40 30 33 -11 17 -78 40 -32 6 -30 -39 -32 -69 -31 -83 rrcurveto
          hintmask 11010000
          -2 -28 -30 0 -31 hhcurveto
          -37 -20 1 4 -25 hvcurveto
          -2 -7 -5 -18 -6 vvcurveto
          -41 31 -25 48 22 23 1 3 23 vhcurveto
          -11 -37 -11 -38 -10 -39 27 -24 30 -19 26 -4 rrcurveto
          endchar
        </CharString>
        <CharString name="plusminus">
          107 46 92 -64 84 148 92 -64 84 153 -20 hstemhm
          hintmask 10011000
          376 169 rmoveto
          23 62 22 52 23 44 rrcurveto
          4 36 39 3 43 hhcurveto
          18 23 -1 -4 39 hvcurveto
          57 -11 -24 32 -29 hhcurveto
          -17 -29 -4 -3 -39 hvcurveto
          24 35 25 31 28 31 -11 17 -78 40 -32 6 -30 -35 -32 -61 -31 -75 rrcurveto
          hintmask 10101000
          -1 -32 -34 -1 -35 hhcurveto
          -37 -20 1 4 -25 hvcurveto
          -2 -7 -5 -18 -6 vvcurveto
          -41 31 -25 48 25 26 2 3 26 vhcurveto
          -10 -31 -10 -32 -9 -32 27 -24 30 -19 26 -4 rrcurveto
          -171 -123 rmoveto
          hintmask 01101000
          -58 callgsubr
          hintmask 10101000
          -65 callsubr
          endchar
        </CharString>
        <CharString name="q">
          -58 -346 -21 857 -20 hstem
          92 92 vstem
          497 444 rmoveto
          -8 -21 -16 -8 -3 hvcurveto
          -5 30 -43 36 -38 4 -105 -19 -79 -62 -54 -107 rrcurveto
          -28 -57 -21 -65 -34 vvcurveto
          -54 58 -86 37 vhcurveto
          17 3 36 28 46 47 -63 -148 -35 -133 -7 -117 2 -12 9 -11 10 -3 10 -3 9 -8 2 -6 rrcurveto
          -5 1 9 -5 8 hhcurveto
          10 5 1 3 3 hvcurveto
          17 116 49 162 64 150 38 88 30 65 99 200 rrcurveto
          14 -11 -27 12 -21 hhcurveto
          -179 -267 rmoveto
          -39 -52 -38 -37 -48 -34 rrcurveto
          -5 -4 3 4 77 37 95 66 91 hvcurveto
          52 37 54 39 34 hhcurveto
          15 22 -5 -4 4 hvcurveto
          0 -47 -109 -88 -120 vhcurveto
          endchar
        </CharString>
        <CharString name="question">
          -30 -77 158 612 84 hstem
          540 75 vstem
          413 777 rmoveto
          -71 -9 -99 -107 -20 -89 rrcurveto
          -24 9 57 -22 52 hhcurveto
          7 5 0 2 11 hvcurveto
          -2 3 -1 5 10 vvcurveto
          57 65 90 41 36 37 -43 -42 -46 -52 -62 -105 -62 vhcurveto
          -131 -78 -56 -121 -61 vvcurveto
          16 -37 62 -40 45 -2 rrcurveto
          -1 8 -1 7 6 vvcurveto
          49 33 65 62 58 vhcurveto
          129 122 74 67 102 vvcurveto
          99 -98 87 -104 8 vhcurveto
          -221 -854 rmoveto
          38 16 62 33 30 hvcurveto
          32 -17 -50 31 -25 hhcurveto
          -39 -15 -76 -24 -40 42 -18 20 hvcurveto
          endchar
        </CharString>
        <CharString name="questiondown">
          -38 -363 84 188 -21 481 158 hstem
          -3 75 223 121 vstem
          199 -363 rmoveto
          71 9 99 107 20 89 rrcurveto
          24 -9 -57 22 -52 hhcurveto
          -7 -5 0 -2 -11 hvcurveto
          2 -3 1 -5 -10 vvcurveto
          -57 -65 -90 -41 -36 -37 43 42 46 52 62 105 62 vhcurveto
          131 78 56 121 61 vvcurveto
          -16 37 -62 40 -45 2 rrcurveto
          1 -8 1 -7 -6 vvcurveto
          -49 -33 -65 -62 -58 vhcurveto
          -129 -122 -74 -67 -102 vvcurveto
          -99 98 -87 104 -8 vhcurveto
          215 732 -40 callgsubr
        </CharString>
        <CharString name="quotedbl">
          -143 528 -21 326 -20 hstem
          245 507 rmoveto
          -48 callgsubr
          180 hmoveto
          -48 callgsubr
          endchar
        </CharString>
        <CharString name="quotedblbase">
          -70 -148 -15 callgsubr
          17 -169 -49 callsubr
          200 hmoveto
          -79 callgsubr
          endchar
        </CharString>
        <CharString name="quotedblleft">
          -87 548 -15 callgsubr
          631 833 rmoveto
          -28 callsubr
          -200 hmoveto
          -28 callsubr
          endchar
        </CharString>
        <CharString name="quotedblright">
          -98 548 -15 callgsubr
          227 527 -49 callsubr
          200 hmoveto
          -79 callgsubr
          endchar
        </CharString>
        <CharString name="quoteleft">
          -283 547 -15 callgsubr
          394 832 rmoveto
          -87 -46 -55 -79 -25 -110 8 -33 66 -34 68 -4 rrcurveto
          -4 32 -2 29 27 vvcurveto
          70 14 54 33 56 vhcurveto
          13 -8 18 -8 7 vhcurveto
          endchar
        </CharString>
        <CharString name="quoteright">
          -315 547 -15 callgsubr
          240 526 -74 callgsubr
        </CharString>
        <CharString name="quotesinglbase">
          -270 -148 -15 callgsubr
          17 -169 -49 callsubr
          endchar
        </CharString>
        <CharString name="quotesingle">
          -323 528 -21 326 -20 hstem
          245 507 rmoveto
          -48 callgsubr
          endchar
        </CharString>
        <CharString name="r">
          -107 -13 -21 514 -87 callgsubr
          endchar
        </CharString>
        <CharString name="racute">
          -107 -13 -21 483 76 204 -87 callgsubr
          444 709 -93 callsubr
        </CharString>
        <CharString name="rcaron">
          -107 -13 -21 749 -87 callgsubr
          347 485 -92 callgsubr
        </CharString>
        <CharString name="rcommaaccent">
          -107 -329 -21 830 -87 callgsubr
          -96 -370 -96 callsubr
        </CharString>
        <CharString name="registered">
          156 43 66 100 46 36 170 91 59 hstem
          146 105 452 24 vstem
          674 252 rmoveto
          -98 -74 -111 -45 -95 hhcurveto
          -97 -46 46 65 126 166 9 callgsubr
          -12 -25 hvcurveto
          2 -7 rlineto
          30 -13 callgsubr
          136 146 118 90 115 65 vhcurveto
          -249 29 rmoveto
          -16 48 -5 -52 59 hhcurveto
          41 20 27 33 hvcurveto
          -10 -14 -16 -4 -14 hhcurveto
          -29 -28 15 21 -18 hvcurveto
          53 87 19 77 4 hvcurveto
          50 -17 -56 24 -55 hhcurveto
          -37 -36 -10 -20 -24 hvcurveto
          2 -19 16 -17 15 -5 13 13 20 8 22 3 -41 -53 -56 -84 -63 -51 rrcurveto
          -25 15 19 -6 23 hhcurveto
          6 35 22 26 24 21 rrcurveto
          36 39 rmoveto
          13 24 39 44 30 26 22 -10 17 -16 2 -15 rrcurveto
          -51 -20 -67 -3 -31 hhcurveto
          -2 -2 0 1 -1 hvcurveto
          endchar
        </CharString>
        <CharString name="ring">
          -260 524 25 129 32 hstem
          20 58 110 42 vstem
          219 583 -48 callsubr
          -12 callgsubr
          vhcurveto
          endchar
        </CharString>
        <CharString name="ring.cap">
          -260 711 23 119 30 hstem
          20 58 110 42 vstem
          219 766 -19 callgsubr
          -45 52 -37 52 40 35 23 32 20 vhcurveto
          -31 47 -32 callsubr
        </CharString>
        <CharString name="s">
          -7 callgsubr
          130 -20 hstemhm
          20 -31 callgsubr
          442 -102 callgsubr
          endchar
        </CharString>
        <CharString name="sacute">
          -7 callgsubr
          360 -20 hstemhm
          20 -31 callgsubr
          442 -102 callgsubr
          428 803 -93 callsubr
        </CharString>
        <CharString name="scaron">
          -7 callgsubr
          346 -20 hstemhm
          20 -31 callgsubr
          442 -102 callgsubr
          331 579 -92 callgsubr
        </CharString>
        <CharString name="schwa">
          -107 -21 -21 510 -20 hstem
          88 69 199 100 vstem
          88 15 rmoveto
          27 -34 29 -19 30 -4 rrcurveto
          132 150 193 164 80 -54 63 -92 10 hvcurveto
          -63 -14 -77 -57 -60 -79 5 -6 5 -5 7 -6 rrcurveto
          45 42 69 72 72 hhcurveto
          38 8 -46 -34 hvcurveto
          -9 -1 -9 -8 vvcurveto
          -170 -68 -87 -65 -10 -164 rrcurveto
          69 33 rmoveto
          5 91 79 82 106 53 -32 -124 -85 -92 -73 -10 rrcurveto
          endchar
        </CharString>
        <CharString name="scircumflex">
          -7 callgsubr
          345 -20 hstemhm
          20 -31 callgsubr
          442 -102 callgsubr
          392 787 -89 callgsubr
          -86 callsubr
        </CharString>
        <CharString name="section">
          -95 -139 42 726 -20 hstemhm
          86 30 -3 118 -13 138 -83 95 -6 84 hintmask 11101010
          392 629 rmoveto
          -54 -20 -120 -60 -86 -92 144 -6 -82 vvcurveto
          -52 -57 -35 -24 -20 vhcurveto
          -12 7 -9 6 -7 vhcurveto
          76 13 76 54 61 67 -90 33 65 vvcurveto
          59 75 55 71 10 vhcurveto
          -25 35 -42 27 -43 2 rrcurveto
          -140 -282 rmoveto
          hintmask 11010100
          -74 -22 -65 -70 -71 -111 160 21 -70 vvcurveto
          -47 -73 -74 -51 vhcurveto
          hintmask 11100100
          -19 -14 9 29 9 1 11 4 14 hvcurveto
          -22 -18 -13 -24 -23 vvcurveto
          -26 18 -23 49 95 120 85 75 vhcurveto
          hintmask 11010100
          80 -137 21 73 vvcurveto
          45 53 45 41 16 vhcurveto
          -24 23 -29 18 -20 5 rrcurveto
          endchar
        </CharString>
        <CharString name="semicolon">
          -226 -148 -21 621 -20 hstem
          39 -169 -49 callsubr
          200 449 -54 callsubr
          endchar
        </CharString>
        <CharString name="seven">
          47 -48 -21 371 70 272 88 hstem
          238 132 vstem
          241 364 rmoveto
          -16 -9 -23 -39 -18 -3 1 1 -2 vvcurveto
          5 41 40 3 54 hhcurveto
          -61 -118 -37 -110 -2 -74 16 -29 55 -29 61 -11 rrcurveto
          102 35 135 55 124 vhcurveto
          64 -9 56 -14 32 -18 7 7 rcurveline
          -22 40 -48 31 -62 20 60 119 77 101 80 42 -11 35 -33 35 -35 15 -15 -14 -13 -15 -14 -15 rrcurveto
          37 -73 -99 43 -76 hhcurveto
          -66 -42 -23 -50 -25 hvcurveto
          12 -44 39 -34 50 -9 rrcurveto
          47 16 41 25 62 hhcurveto
          36 47 -9 -17 47 hvcurveto
          -67 -78 -60 -86 -49 -84 rrcurveto
          1 -14 -15 1 -14 hhcurveto
          -30 -32 -3 -5 -30 hvcurveto
          endchar
        </CharString>
        <CharString name="six">
          55 -25 -21 778 -20 hstem
          108 108 313 86 vstem
          550 732 rmoveto
          -191 -65 -251 -312 -231 vvcurveto
          -93 73 -56 104 -21 vhcurveto
          114 216 216 121 61 -64 65 -55 30 hvcurveto
          -66 -3 -84 -59 -63 -66 95 176 210 143 94 13 rrcurveto
          39 -28 -75 42 -29 hhcurveto
          -56 -332 rmoveto
          25 -17 10 -29 -27 vvcurveto
          -103 -142 -172 -106 -51 vhcurveto
          -35 12 -30 51 39 vvcurveto
          110 114 133 164 54 vhcurveto
          endchar
        </CharString>
        <CharString name="slash">
          35 -153 -21 975 -20 hstem
          740 743 rmoveto
          22 -9 -75 36 -32 hhcurveto
          -68 -207 -372 -606 -195 -116 5 -22 22 -21 15 -3 205 160 281 366 223 391 rrcurveto
          endchar
        </CharString>
        <CharString name="space">
          -272 endchar
        </CharString>
        <CharString name="sterling">
          138 -57 112 -58 -21 27 52 -52 70 213 82 -53 73 348 -20 hstemhm
          664 44 hintmask 01101011
          249 286 rmoveto
          10 11 1 1 11 hvcurveto
          -39 -116 -54 -90 -125 -43 rrcurveto
          -32 2 18 -31 15 hhcurveto
          23 9 22 4 25 hhcurveto
          hintmask 10001011
          95 92 -60 110 hhcurveto
          52 54 13 39 59 hvcurveto
          2 9 1 10 10 vvcurveto
          36 -12 35 -15 23 vhcurveto
          -48 -54 -60 -15 -60 hhcurveto
          hintmask 01010111
          -65 -67 18 -53 hhcurveto
          32 12 62 26 75 195 rrcurveto
          5 34 37 4 39 hhcurveto
          20 19 -1 -4 33 hvcurveto
          59 -10 -20 19 -27 hhcurveto
          -14 -37 -5 -5 -49 hvcurveto
          49 146 37 154 105 17 rrcurveto
          38 -17 8 -23 -22 vvcurveto
          -33 -19 -33 -54 -37 vhcurveto
          9 -27 25 -23 21 -7 rrcurveto
          41 62 21 45 40 vvcurveto
          54 -37 36 -69 26 vhcurveto
          -169 -13 -61 -105 -53 -200 -13 -49 rcurveline
          hintmask 10001011
          -1 -16 -17 0 -16 hhcurveto
          -39 -8 2 4 -30 hvcurveto
          -3 -10 -1 -10 -9 vvcurveto
          -38 20 -21 53 vhcurveto
          endchar
        </CharString>
        <CharString name="t">
          -158 -25 -21 434 48 177 -20 hstem
          125 106 vstem
          213 383 rmoveto
          -51 -123 -37 -135 -65 vvcurveto
          -47 76 -57 66 -2 vhcurveto
          -86 callgsubr
          endchar
        </CharString>
        <CharString name="tbar">
          -152 -25 -21 280 47 107 48 177 -20 hstem
          130 106 vstem
          218 383 rmoveto
          -14 -34 -13 -34 -12 -34 -25 1 -26 2 -25 2 rrcurveto
          -19 7 -32 6 -8 vhcurveto
          16 16 1 15 hhcurveto
          -21 -69 -12 -61 -38 vvcurveto
          -47 76 -57 66 -2 vhcurveto
          22 2 72 48 15 23 -1 4 -3 6 -3 5 -28 -22 -37 -16 -40 -5 rrcurveto
          -21 3 -12 16 30 vvcurveto
          48 14 66 25 72 vhcurveto
          56 4 41 5 39 8 rrcurveto
          10 -5 13 -6 6 vhcurveto
          -1 -42 -25 -1 -42 hhcurveto
          15 36 17 37 19 37 46 1 41 7 32 12 rrcurveto
          11 -5 11 -6 6 vhcurveto
          -3 -28 -28 -1 -26 hhcurveto
          33 56 25 39 40 50 rrcurveto
          15 -13 -64 21 -27 hhcurveto
          -22 -12 -58 -86 -40 -79 -27 1 -32 3 -35 2 rrcurveto
          -18 7 -33 6 -8 vhcurveto
          endchar
        </CharString>
        <CharString name="tcaron">
          -158 -25 -21 434 48 397 -20 hstem
          125 106 vstem
          213 383 rmoveto
          -51 -123 -37 -135 -65 vvcurveto
          -47 76 -57 66 -2 vhcurveto
          -86 callgsubr
          352 144 -74 callgsubr
        </CharString>
        <CharString name="thorn">
          -12 -345 -21 380 -21 837 -20 hstem
          271 278 rmoveto
          66 198 113 225 80 66 -12 21 -64 38 -27 4 -57 -53 -85 -174 -71 -175 -17 -43 -26 -82 -14 callgsubr
          -54 callgsubr
          rrcurveto
          endchar
        </CharString>
        <CharString name="three">
          45 -36 118 232 81 250 68 hstemhm
          506 78 -32 32 hintmask 11101000
          232 662 rmoveto
          -1 -6 0 -6 -6 vvcurveto
          -43 16 -34 27 -16 vhcurveto
          54 52 93 40 65 hhcurveto
          35 26 -11 -27 7 hvcurveto
          -164 -5 -163 -48 -121 hhcurveto
          -54 25 -27 30 18 41 9 24 40 vhcurveto
          hintmask 11110000
          61 -8 28 -30 -44 vvcurveto
          -119 -198 -64 -137 -31 -27 3 7 -22 vhcurveto
          -5 -1 -4 -4 vvcurveto
          -60 26 -45 49 -10 vhcurveto
          172 247 78 204 72 -38 44 -88 10 hvcurveto
          84 57 53 88 66 vvcurveto
          63 -41 67 -110 -64 -108 -23 -28 -40 vhcurveto
          endchar
        </CharString>
        <CharString name="threeinferior">
          -158 -49 14 callgsubr
          hstemhm
          278 62 -37 37 hintmask 11101000
          130 232 -73 callsubr
          hintmask 11110000
          -83 callsubr
          endchar
        </CharString>
        <CharString name="threequarters">
          287 -26 -21 448 14 callgsubr
          56 -20 hstemhm
          417 62 -37 37 hintmask 11111010
          837 713 -90 callsubr
          -568 -31 -73 callsubr
          hintmask 11111100
          -83 callsubr
          490 -438 -88 callsubr
        </CharString>
        <CharString name="threesuperior">
          -168 401 14 callgsubr
          hstemhm
          413 62 -37 37 hintmask 11101000
          265 682 -73 callsubr
          hintmask 11110000
          -83 callsubr
          endchar
        </CharString>
        <CharString name="tilde">
          -141 535 73 47 -20 hstem
          36 624 -81 callsubr
        </CharString>
        <CharString name="tilde.cap">
          -141 771 66 46 -20 hstem
          36 853 -80 callgsubr
        </CharString>
        <CharString name="trademark">
          79 468 -21 214 29 8 -20 hstemhm
          506 165 -53 53 hintmask 11010000
          308 651 rmoveto
          9 13 0 1 12 hvcurveto
          -31 -104 -21 -45 -8 -26 10 -17 16 -10 22 -3 6 44 24 99 36 70 rrcurveto
          1 9 14 0 9 hhcurveto
          7 10 0 -2 20 hvcurveto
          hintmask 10110000
          23 -4 -9 16 -19 hhcurveto
          hintmask 11010000
          -13 -66 -8 -39 hhcurveto
          -12 -13 2 4 -9 hvcurveto
          hintmask 10101000
          -4 -11 -2 -6 -1 vvcurveto
          -15 12 -12 21 vhcurveto
          251 -200 rmoveto
          8 60 54 111 32 35 rrcurveto
          -25 -81 -10 -59 -50 vvcurveto
          -9 6 31 -7 16 hhcurveto
          52 6 114 32 57 vhcurveto
          6 -3 -37 18 -14 hhcurveto
          -22 -16 -38 -52 -29 -55 8 42 15 41 8 16 rrcurveto
          6 -3 -35 18 -14 hhcurveto
          -44 -26 -96 -174 -25 vvcurveto
          -10 10 -7 31 -9 vhcurveto
          5 58 64 108 30 42 rrcurveto
          hintmask 11010000
          -13 -65 -25 -68 -1 -54 rrcurveto
          -11 5 25 -6 23 hhcurveto
          endchar
        </CharString>
        <CharString name="two">
          54 -38 -21 36 56 654 39 hstem
          208 104 242 91 vstem
          645 558 rmoveto
          100 -73 68 -110 -126 -128 -89 -101 -60 46 -45 63 9 8 1 2 9 vhcurveto
          -21 26 -10 25 33 vvcurveto
          91 75 78 76 54 37 -40 -65 -104 -96 -91 -156 -128 vhcurveto
          -139 -114 -59 -48 -17 -77 10 -33 29 -32 32 -14 43 32 86 3 79 1 82 1 78 1 26 29 rrcurveto
          8 13 3 15 15 vvcurveto
          39 -20 47 -12 13 vhcurveto
          -75 -66 -115 -45 -106 -6 25 51 26 34 74 64 rrcurveto
          164 142 121 105 129 vvcurveto
          endchar
        </CharString>
        <CharString name="twoinferior">
          -151 -9 142 100 27 hstem
          109 76 113 70 vstem
          368 189 -53 callsubr
          -77 callsubr
          endchar
        </CharString>
        <CharString name="twosuperior">
          -150 441 142 100 27 hstem
          249 76 113 70 vstem
          508 639 -53 callsubr
          -77 callsubr
          endchar
        </CharString>
        <CharString name="twothirds">
          304 -49 14 callgsubr
          328 127 -27 27 51 -20 hstemhm
          253 76 113 70 228 62 -37 37 hintmask 1111011110000000
          846 713 -90 callsubr
          -334 -74 -53 callsubr
          hintmask 1110111101000000
          -77 callsubr
          80 -407 -73 callsubr
          hintmask 1111011110000000
          -83 callsubr
          endchar
        </CharString>
        <CharString name="u">
          -16 1 -21 24 -21 491 -38 callsubr
          hintmask 01101000
          369 -103 callsubr
          hintmask 10110000
          -104 callsubr
          endchar
        </CharString>
        <CharString name="uacute">
          -45 callsubr
          275 -38 callsubr
          hintmask 01110100
          369 -103 callsubr
          hintmask 10111000
          -104 callsubr
          199 707 -93 callsubr
        </CharString>
        <CharString name="ubreve">
          -45 callsubr
          246 -38 callsubr
          hintmask 01110100
          369 -103 callsubr
          hintmask 10111000
          -104 callsubr
          124 502 -84 callgsubr
        </CharString>
        <CharString name="ucircumflex">
          -45 callsubr
          54 -20 226 -20 -22 callsubr
          hintmask 01111100
          369 -53 callgsubr
          -46 8 -23 hhcurveto
          -84 -61 -71 -169 -24 -101 rrcurveto
          -6 -28 -2 -20 -37 vvcurveto
          hintmask 10111100
          11 -47 56 -29 42 -2 9 1 17 12 17 18 22 26 72 103 11 -1 rrcurveto
          -3 -9 -2 -12 -15 vvcurveto
          -23 7 -37 25 -21 vhcurveto
          163 691 -89 callgsubr
          -86 callsubr
        </CharString>
        <CharString name="udieresis">
          -45 callsubr
          246 -38 callsubr
          hintmask 01110100
          369 -103 callsubr
          hintmask 10111000
          -104 callsubr
          11 583 -97 callgsubr
        </CharString>
        <CharString name="ugrave">
          -45 callsubr
          275 -38 callsubr
          hintmask 01110100
          369 -103 callsubr
          hintmask 10111000
          -104 callsubr
          19 707 -72 callsubr
        </CharString>
        <CharString name="uhungarumlaut">
          -45 callsubr
          263 -38 callsubr
          hintmask 01110100
          369 -103 callsubr
          hintmask 10111000
          -104 callsubr
          61 695 -46 callgsubr
        </CharString>
        <CharString name="umacron">
          -45 callsubr
          95 76 20 -38 callsubr
          hintmask 01110010
          369 -103 callsubr
          hintmask 10110100
          -104 callsubr
          -50 606 -60 callsubr
          hintmask 01101100
          28 -9 42 -9 17 -69 callgsubr
        </CharString>
        <CharString name="underscore">
          59 -102 92 -64 84 hstemhm
          hintmask 10000000
          125 -102 -42 callgsubr
        </CharString>
        <CharString name="uni00A0">
          -272 endchar
        </CharString>
        <CharString name="uni00AD">
          -47 callgsubr
        </CharString>
        <CharString name="uni015E">
          190 -319 -21 236 -21 49 6 callsubr
          hstem
          225 53 402 42 vstem
          752 674 rmoveto
          37 -83 -85 27 -87 hhcurveto
          -47 -50 -8 -18 -43 hvcurveto
          -85 -35 -47 -72 -75 vvcurveto
          -95 71 -51 169 -74 vhcurveto
          113 -49 100 -44 2 -53 rrcurveto
          -31 -3 -31 -88 -149 hhcurveto
          -68 -82 18 43 -73 hvcurveto
          -78 46 -39 61 -4 40 rrcurveto
          -40 -45 -13 -44 -27 vvcurveto
          -82 116 -74 121 -35 vhcurveto
          -42 -51 -37 -62 -8 -24 1 -4 3 -6 4 -2 -80 callsubr
          10 24 21 34 23 32 rrcurveto
          -9 39 39 -6 35 hhcurveto
          153 95 106 137 118 -62 39 -135 63 hvcurveto
          -108 50 -131 63 -8 58 rrcurveto
          47 1 76 29 93 hhcurveto
          94 109 -30 -73 53 hvcurveto
          33 16 21 42 44 vvcurveto
          14 -2 4 -4 23 vhcurveto
          endchar
        </CharString>
        <CharString name="uni015F">
          -161 -342 -21 533 215 130 -20 hstemhm
          21 -31 callgsubr
          443 398 rmoveto
          -8 31 -77 78 -30 8 rrcurveto
          -70 -15 -62 -77 -71 vvcurveto
          hintmask 11110110
          -56 31 -58 -68 vvcurveto
          -116 -8 -90 -86 -102 vvcurveto
          11 -37 46 -38 38 -3 -23 -37 -36 -55 -4 -18 8 -12 rcurveline
          -80 callsubr
          9 21 17 29 19 28 rrcurveto
          83 23 50 67 96 16 -1 10 10 vvcurveto
          15 5 2 62 14 vhcurveto
          2 2 2 6 5 vvcurveto
          5 0 1 -1 2 vhcurveto
          -21 -21 -1 -1 -28 hvcurveto
          -1 2 0 2 8 vvcurveto
          128 29 69 53 14 10 -14 -19 vhcurveto
          -16 -16 -30 -8 vvcurveto
          1 -9 4 -5 8 -1 rrcurveto
          21 30 64 51 3 hvcurveto
          -330 -456 rmoveto
          -13 9 -7 12 15 vvcurveto
          46 86 87 52 7 vhcurveto
          -69 -54 -81 -64 -26 vhcurveto
          endchar
        </CharString>
        <CharString name="uni0162">
          79 -319 -21 236 -21 731 104 -68 96 hstemhm
          hintmask 11100000
          300 606 rmoveto
          39 51 5 7 56 hvcurveto
          -16 -62 -32 -90 -28 -76 -73 -201 -36 -106 -22 -83 10 -17 12 -15 12 -12 -45 -53 -41 -68 -9 -26 1 -4 3 -6 4 -2 -80 callsubr
          10 25 22 35 24 32 18 -13 20 -8 22 -4 -27 callgsubr
          hintmask 11010000
          -49 callgsubr
          hintmask 11100000
          -61 callsubr
          endchar
        </CharString>
        <CharString name="uni0163">
          -158 -300 -21 236 -21 494 48 177 -20 hstem
          125 106 vstem
          213 383 rmoveto
          -51 -123 -37 -135 -65 vvcurveto
          -31 32 -35 42 -21 vhcurveto
          -44 -53 -41 -67 -8 -25 1 -4 3 -6 4 -2 -80 callsubr
          10 25 23 37 25 34 15 -6 16 -3 15 -1 -86 callgsubr
          endchar
        </CharString>
        <CharString name="uni0218">
          191 -326 -21 271 6 callsubr
          hstem
          226 53 402 42 vstem
          -101 callsubr
          -519 -1021 -96 callsubr
        </CharString>
        <CharString name="uni0219">
          -163 -339 -21 530 215 130 -20 hstemhm
          21 -31 callgsubr
          443 -102 callgsubr
          -139 -302 -96 callsubr
        </CharString>
        <CharString name="uni021A">
          79 -329 -21 992 68 -68 96 hstemhm
          hintmask 10100000
          300 -60 callgsubr
          -49 callgsubr
          hintmask 11000000
          -61 callsubr
          -138 -956 -96 callsubr
        </CharString>
        <CharString name="uni021B">
          -158 -329 -21 266 38 434 48 177 -20 hstem
          125 106 vstem
          213 383 rmoveto
          -51 -123 -37 -135 -65 vvcurveto
          -47 76 -57 66 -2 vhcurveto
          -86 callgsubr
          -89 -733 -96 callsubr
        </CharString>
        <CharString name="uni03BC">
          -18 15 callsubr
          38 78 219 109 vstem
          367 -71 callgsubr
        </CharString>
        <CharString name="uni2215">
          -108 -18 -21 800 -20 hstem
          640 713 -33 callgsubr
        </CharString>
        <CharString name="uni2219">
          -283 212 -21 143 -20 hstem
          184 191 -56 callsubr
        </CharString>
        <CharString name="uogonek">
          -16 -251 38 687 -20 -22 callsubr
          -45 66 -21 109 hintmask 11010000
          292 -154 -83 callgsubr
          82 60 58 50 13 hvcurveto
          hintmask 11001000
          13 -22 22 57 vvcurveto
          105 77 112 49 117 vhcurveto
          15 -12 -48 17 -35 hhcurveto
          -45 -43 -21 -58 -12 -33 -22 -59 -49 -61 -27 -37 -55 -75 -27 -33 -20 -8 rrcurveto
          hintmask 11100000
          -104 callsubr
          12 -9 15 -8 15 -6 rrcurveto
          hintmask 11010000
          -65 -23 -54 -67 -63 vvcurveto
          endchar
        </CharString>
        <CharString name="uring">
          -45 callsubr
          70 25 129 32 -43 callsubr
          -93 58 110 42 hintmask 0111101010000000
          369 -103 callsubr
          hintmask 1011110110000000
          -104 callsubr
          183 561 -48 callsubr
          -12 callgsubr
          vhcurveto
          endchar
        </CharString>
        <CharString name="utilde">
          -45 callsubr
          81 73 47 -38 callsubr
          hintmask 01111010
          369 -103 callsubr
          hintmask 10111100
          -104 callsubr
          -72 602 -81 callsubr
        </CharString>
        <CharString name="v">
          -62 -27 -21 526 -20 hstem
          155 111 vstem
          152 354 rmoveto
          -24 3 -50 -44 -151 -36 -39 -33 vvcurveto
          -24 21 -24 35 -13 vhcurveto
          90 55 58 55 64 75 63 72 105 132 5 114 rrcurveto
          9 -8 -37 14 -17 hhcurveto
          -25 -95 -44 -90 -32 -55 -47 -78 -69 -87 -39 -30 rrcurveto
          -2 -1 0 4 hvcurveto
          22 71 3 66 2 91 2 90 2 17 11 44 rrcurveto
          10 -11 -27 4 -19 hhcurveto
          -61 -11 -37 -49 hvcurveto
          endchar
        </CharString>
        <CharString name="w">
          -4 callgsubr
          501 -20 hstemhm
          hintmask 10100000
          -68 callsubr
          hintmask 01100000
          -94 callgsubr
          -52 callsubr
          endchar
        </CharString>
        <CharString name="wacute">
          -4 callgsubr
          466 87 -52 -20 276 -20 hstemhm
          hintmask 10101000
          -68 callsubr
          hintmask 01011000
          -94 callgsubr
          hintmask 10101000
          -52 callsubr
          510 688 -93 callsubr
        </CharString>
        <CharString name="wcircumflex">
          -4 callgsubr
          466 118 -83 -20 55 -20 226 -20 hstemhm
          hintmask 10100100
          -68 callsubr
          hintmask 01011100
          -94 callgsubr
          hintmask 10100100
          -52 callsubr
          474 672 -89 callgsubr
          hintmask 10011100
          -86 callsubr
        </CharString>
        <CharString name="wdieresis">
          -4 callgsubr
          501 -20 247 -20 hstemhm
          hintmask 10110000
          -68 callsubr
          hintmask 01110000
          -94 callgsubr
          -52 callsubr
          322 564 -97 callgsubr
        </CharString>
        <CharString name="wgrave">
          -4 callgsubr
          466 87 -52 -20 276 -20 hstemhm
          hintmask 10101000
          -68 callsubr
          hintmask 01011000
          -94 callgsubr
          hintmask 10101000
          -52 callsubr
          330 688 -72 callsubr
        </CharString>
        <CharString name="x">
          -84 -25 -21 509 -20 32 -20 hstemhm
          153 128 hintmask 10110000
          408 6 rmoveto
          -32 61 -28 57 -18 51 105 105 72 99 15 61 -6 15 -27 14 -33 6 -48 -107 -44 -72 -55 -63 rrcurveto
          -20 62 -8 53 52 vvcurveto
          20 0 8 2 14 vhcurveto
          hintmask 11010000
          10 -30 -52 11 -28 hhcurveto
          -17 -3 -5 -18 -52 34 -131 45 -106 hvcurveto
          -50 -58 -101 -72 -53 -29 1 -21 11 -14 14 -3 58 34 71 52 68 61 25 -61 31 -48 22 -26 28 2 37 15 14 23 rrcurveto
          endchar
        </CharString>
        <CharString name="y">
          -21 -361 57 778 -105 callsubr
          endchar
        </CharString>
        <CharString name="yacute">
          -10 callgsubr
          281 -105 callsubr
          71 580 -93 callsubr
        </CharString>
        <CharString name="ycircumflex">
          -10 callgsubr
          60 -20 226 -105 callsubr
          35 564 -89 callgsubr
          -86 callsubr
        </CharString>
        <CharString name="ydieresis">
          -10 callgsubr
          252 -105 callsubr
          -117 456 -97 callgsubr
        </CharString>
        <CharString name="yen">
          171 -52 -21 160 82 -53 73 61 83 -54 73 385 -20 hstemhm
          hintmask 11010100
          342 250 rmoveto
          24 25 3 3 24 hvcurveto
          -9 -27 -8 -29 -10 -29 rrcurveto
          -1 -27 -28 -1 -30 hhcurveto
          -39 callgsubr
          22 23 2 3 23 vhcurveto
          -18 -50 -19 -46 -18 -32 rrcurveto
          -10 10 115 -27 29 hhcurveto
          44 10 66 16 74 vhcurveto
          hintmask 10101100
          3 25 26 2 29 -30 callgsubr
          -15 -26 -4 -4 -36 hvcurveto
          8 31 8 31 9 31 rrcurveto
          3 26 29 2 31 -30 callgsubr
          -12 -18 -2 -3 -25 hvcurveto
          69 97 79 97 122 146 -19 19 -34 16 -35 4 -68 -152 -78 -120 -99 -109 rrcurveto
          -29 32 -61 262 98 vvcurveto
          -53 -2 -92 -14 -26 -10 rrcurveto
          hintmask 11010100
          45 -51 53 -144 60 -183 rrcurveto
          -1 -19 -19 0 -19 hhcurveto
          -39 callgsubr
          vhcurveto
          endchar
        </CharString>
        <CharString name="ygrave">
          -10 callgsubr
          281 -105 callsubr
          -109 580 -72 callsubr
        </CharString>
        <CharString name="ytilde">
          -10 callgsubr
          87 73 47 -105 callsubr
          -200 475 -81 callsubr
        </CharString>
        <CharString name="z">
          -17 callgsubr
          -55 112 hstemhm
          hintmask 01110000
          -39 callsubr
          hintmask 10010000
          -74 callsubr
          hhcurveto
          hintmask 10001000
          -68 callgsubr
          endchar
        </CharString>
        <CharString name="z.alt">
          -76 7 callsubr
          426 -99 callsubr
          endchar
        </CharString>
        <CharString name="zacute">
          -17 callgsubr
          57 56 204 -20 hstemhm
          hintmask 01111100
          -39 callsubr
          hintmask 10011100
          -74 callsubr
          -68 callgsubr
          437 715 -93 callsubr
        </CharString>
        <CharString name="zacute.alt">
          -71 7 callsubr
          661 -99 callsubr
          462 746 -93 callsubr
        </CharString>
        <CharString name="zcaron">
          -17 callgsubr
          -55 112 246 -20 hstemhm
          hintmask 01110100
          -39 callsubr
          hintmask 10010100
          -74 callsubr
          hhcurveto
          hintmask 10001100
          -68 callgsubr
          340 491 -92 callgsubr
        </CharString>
        <CharString name="zcaron.alt">
          -71 7 callsubr
          647 -99 callsubr
          365 522 -92 callgsubr
        </CharString>
        <CharString name="zdotaccent">
          -17 callgsubr
          -55 112 247 -20 hstemhm
          hintmask 01110100
          -39 callsubr
          hintmask 10010100
          -74 callsubr
          hhcurveto
          hintmask 10001100
          -68 callgsubr
          283 520 -91 callgsubr
        </CharString>
        <CharString name="zdotaccent.alt">
          -71 7 callsubr
          648 -99 callsubr
          308 551 -91 callgsubr
        </CharString>
        <CharString name="zero">
          136 -36 43 730 -20 hstem
          133 125 401 79 vstem
          298 -36 rmoveto
          263 6 177 321 238 vvcurveto
          121 -53 87 -111 -225 -216 -314 -243 -143 69 -55 96 -18 vhcurveto
          -40 175 rmoveto
          174 164 351 183 22 vhcurveto
          38 -9 16 -49 -73 vvcurveto
          -139 -126 -399 -181 -10 vhcurveto
          -61 10 -33 32 90 vvcurveto
          endchar
        </CharString>
      <CharString index="0">
        -20 hstem
        375 105 vstem
        259 485 rmoveto
        -11 -5 -47 -70 -51 -117 rrcurveto
        -45 -103 -30 -112 -50 vvcurveto
        6 -30 12 -32 28 -16 16 9 22 31 29 41 52 72 47 55 62 60 rrcurveto
        38 39 39 19 3 hhcurveto
        -46 -106 -9 -41 -33 vvcurveto
        -59 18 -47 77 23 43 23 18 20 vhcurveto
        6 -4 11 -5 3 vhcurveto
        -9 -19 -10 -14 hhcurveto
        -16 -9 6 33 82 68 132 36 47 hvcurveto
        18 21 11 1 3 vvcurveto
        25 -13 -24 29 -34 hhcurveto
        -65 -94 -99 -54 -51 hvcurveto
        -23 -24 -68 -84 -42 -45 8 61 105 142 30 73 -14 44 -34 41 -35 11 rrcurveto
        return
      </CharString>
      <CharString index="1">
        455 414 rmoveto
        -27 34 -29 19 -30 4 rrcurveto
        -132 -150 -193 -164 -80 54 -63 92 -10 hvcurveto
        63 14 77 57 60 79 -5 6 -5 5 -7 6 rrcurveto
        -45 -42 -69 -72 -72 hhcurveto
        -38 -8 46 34 hvcurveto
        9 1 9 8 vvcurveto
        170 68 87 65 10 164 rrcurveto
        -69 -33 rmoveto
        -5 -91 -79 -82 -106 -53 32 124 85 92 73 10 rrcurveto
        return
      </CharString>
      <CharString index="2">
        485 673 rmoveto
        -24 28 -83 35 -46 2 rrcurveto
        -90 -165 -81 -273 -168 vvcurveto
        -144 72 -72 122 120 85 69 114 70 vhcurveto
        96 156 61 242 13 202 rrcurveto
        16 -29 -62 10 -9 hhcurveto
        2 -14 2 -20 -52 vvcurveto
        -163 -30 -199 -75 -139 vhcurveto
        -106 -57 -63 -65 -86 hhcurveto
        -74 -28 45 103 167 76 233 118 158 hvcurveto
        return
      </CharString>
      <CharString index="3">
        -29 -60 -40 -75 -28 -47 -72 -120 -48 -56 -39 -8 rrcurveto
        -9 3 -5 7 14 vvcurveto
        123 131 177 107 17 vhcurveto
        -3 25 -45 47 -27 7 rrcurveto
        -108 -6 -144 -204 -149 vvcurveto
        -69 34 -50 49 -2 vhcurveto
        62 10 88 100 54 122 rrcurveto
        -25 -65 -13 -54 -37 vvcurveto
        return
      </CharString>
      <CharString index="4">
        229 -31 rmoveto
        16 -23 43 -17 42 -5 rrcurveto
        17 17 4 8 17 hvcurveto
        80 137 91 249 62 181 rrcurveto
        -13 -140 -11 -122 -118 vvcurveto
        -36 2 -74 8 -44 vhcurveto
        16 -23 43 -17 42 -5 rrcurveto
        17 17 4 8 17 hvcurveto
        56 158 222 487 117 92 -25 28 -35 19 -31 4 -42 -44 -169 -324 -127 -334 rrcurveto
        -2 31 -1 39 39 vvcurveto
        185 27 254 45 104 vhcurveto
        18 -4 -113 45 -36 hhcurveto
        -26 -117 -177 -486 -83 -123 rrcurveto
        -3 34 -1 43 43 vvcurveto
        185 27 254 45 104 vhcurveto
        18 -8 -109 45 -36 hhcurveto
        return
      </CharString>
      <CharString index="5">
        398 rmoveto
        -8 31 -77 78 -30 8 rrcurveto
        -70 -15 -62 -77 -71 vvcurveto
        hintmask 11110110
        -56 31 -58 -68 vvcurveto
        -116 -8 -90 -86 -102 vvcurveto
        11 -37 46 -38 38 -3 rrcurveto
        107 11 65 72 111 16 -1 10 10 vvcurveto
        15 5 2 62 14 vhcurveto
        2 2 2 6 5 vvcurveto
        5 0 1 -1 2 vhcurveto
        -21 -21 -1 -1 -28 hvcurveto
        -1 2 0 2 8 vvcurveto
        128 29 69 53 14 10 -14 -19 vhcurveto
        -16 -16 -30 -8 vvcurveto
        1 -9 4 -5 8 -1 rrcurveto
        21 30 64 51 3 hvcurveto
        -330 -456 rmoveto
        -13 9 -7 12 15 vvcurveto
        46 86 87 52 7 vhcurveto
        -69 -54 -81 -64 -26 vhcurveto
        return
      </CharString>
      <CharString index="6">
        655 318 rmoveto
        -63 -154 -37 -26 -47 hvcurveto
        -35 11 32 -21 40 hhcurveto
        30 35 9 8 37 hvcurveto
        -11 -96 -94 -127 -85 -19 rrcurveto
        -63 6 -50 82 116 vvcurveto
        157 43 121 99 118 vhcurveto
        83 69 72 47 59 hhcurveto
        35 20 -16 -30 -39 -16 -23 -46 -34 hvcurveto
        5 -30 25 -26 31 -9 rrcurveto
        51 46 20 38 46 vvcurveto
        70 -55 41 -91 -234 -219 -263 -274 -187 79 -86 178 -4 vhcurveto
        114 29 132 155 17 117 17 -1 15 -2 14 -3 rrcurveto
        3 8 1 16 callgsubr
        -21 25 -35 vhcurveto
        return
      </CharString>
      <CharString index="7">
        -105 -298 rmoveto
        -37 19 72 -32 65 hhcurveto
        48 72 27 51 46 hvcurveto
        96 106 49 121 71 192 20 54 25 67 45 104 -10 10 -31 12 -36 2 -28 -74 -50 -85 -57 -64 rrcurveto
        -56 -50 -67 -57 -23 hhcurveto
        -2 -2 1 9 123 200 246 96 10 11 -2 -4 7 hvcurveto
        47 -10 -22 17 -46 hhcurveto
        -142 -184 -198 -155 -63 35 -56 45 -8 hvcurveto
        35 14 69 47 31 33 rrcurveto
        -254 -69 -116 -150 -138 hhcurveto
        -29 -9 5 28 -33 hvcurveto
        -7 -6 -6 -7 -8 vvcurveto
        return
      </CharString>
      <CharString index="8">
        131 57 rmoveto
        -23 10 -59 18 -7 vhcurveto
        25 -10 -12 -35 58 -3 rrcurveto
        -2 3 -1 6 12 vvcurveto
        148 123 458 115 105 vhcurveto
        -11 24 -72 36 -26 2 rrcurveto
        -76 -79 -149 -433 -145 vvcurveto
        return
      </CharString>
      <CharString index="9">
        781 551 rmoveto
        114 -93 71 -159 -118 -164 -39 -54 -79 vhcurveto
        3 -31 31 -54 23 -16 34 29 56 27 61 21 -21 -87 -17 -42 -42 -99 -140 -331 -9 -18 -18 -35 29 -51 32 -27 45 -10 25 122 40 113 71 155 5 -6 5 -5 5 -3 rrcurveto
        -2 8 16 0 15 hhcurveto
        -273 71 46 -107 58 hhcurveto
        31 45 32 26 12 hvcurveto
        -70 64 -77 142 -41 120 rrcurveto
        159 22 122 105 127 vvcurveto
        -244 84 rmoveto
        -12 19 rlineto
        3 25 23 2 22 hhcurveto
        99 48 -37 -66 -111 -144 -79 -200 hvcurveto
        53 114 68 131 18 24 rrcurveto
        return
      </CharString>
      <CharString index="10">
        rmoveto
        6 -24 17 -23 28 -12 rrcurveto
        13 11 62 98 -64 callsubr
        -22 rmoveto
        7 -23 15 -24 26 -10 rrcurveto
        17 9 60 96 3 vvcurveto
        -15 22 -38 21 -16 1 rrcurveto
        -48 -2 -8 -51 -42 vvcurveto
        endchar
      </CharString>
      <CharString index="11">
        272 564 rmoveto
        33 63 127 9 124 hhcurveto
        44 43 -1 -2 40 hvcurveto
        -247 -158 -260 -228 -159 -229 rrcurveto
        -24 -13 -15 -20 -34 vvcurveto
        -34 15 -21 10 -34 vhcurveto
        78 79 199 33 159 hhcurveto
        60 61 -7 -4 60 hvcurveto
        1 5 1 3 13 vvcurveto
        50 -18 77 -12 25 vhcurveto
        -19 -12 -62 -34 -132 -9 -93 -6 -47 -4 -49 -8 80 152 255 283 306 126 rrcurveto
        34 -3 45 -21 29 vhcurveto
        -4 -30 -41 -2 -48 hhcurveto
        -144 -171 20 23 -131 hvcurveto
        -10 -23 0 -34 -30 vvcurveto
        -48 4 -21 5 -18 vhcurveto
        return
      </CharString>
      <CharString index="12">
        67 32 93 88 76 102 -1 6 -5 9 -6 6 -103 -96 -93 -63 -57 -13 rrcurveto
        -51 11 -33 63 98 vvcurveto
        139 46 136 93 134 vhcurveto
        78 54 75 52 60 hhcurveto
        35 20 -16 -28 -35 -29 -45 -47 -38 hvcurveto
        6 -35 29 -29 34 -5 rrcurveto
        45 38 32 65 52 vvcurveto
        69 -55 41 -91 -235 -211 -261 -281 vhcurveto
        return
      </CharString>
      <CharString index="13">
        -37 22 -27 31 28 76 83 54 50 vhcurveto
        123 132 56 79 13 148 rrcurveto
        3 -4 -8 2 -10 hhcurveto
        -23 -33 -8 -11 -8 hvcurveto
        -25 -131 -12 -49 -51 -78 -41 -63 -68 -78 -12 -5 18 96 30 206 43 55 rrcurveto
        16 -3 -39 6 -26 hhcurveto
        -7 -6 0 -1 -4 hvcurveto
        -26 -26 -9 -36 -8 -24 -11 -31 -8 -21 -42 -39 -30 -28 -41 -50 -44 -58 15 99 9 136 78 63 rrcurveto
        return
      </CharString>
      <CharString index="14">
        67 36 -1 -1 37 hvcurveto
        2 9 0 10 8 vvcurveto
        31 -11 27 -15 22 vhcurveto
        -120 -8 -109 -17 -108 -22 2 return
      </CharString>
      <CharString index="15">
        rmoveto
        54 75 43 39 50 21 -20 27 -21 20 -13 2 -29 -15 -29 -29 -41 -52 rrcurveto
        81 -36 -37 41 -38 hhcurveto
        -4 -3 0 -2 -10 hvcurveto
        39 -48 22 -56 8 -75 14 -13 15 -7 36 -9 rrcurveto
        endchar
      </CharString>
      <CharString index="16">
        rmoveto
        -11 14 -13 16 -3 vhcurveto
        10 22 73 89 30 28 rrcurveto
        30 -20 -70 40 -31 hhcurveto
        -17 -43 -14 -65 -23 vvcurveto
        -11 5 -15 7 -7 -55 callsubr
        endchar
      </CharString>
      <CharString index="17">
        -82 callsubr
        hmoveto
        8 -11 19 -10 31 -4 rrcurveto
        15 6 52 67 3 vvcurveto
        -15 22 -38 21 -16 1 rrcurveto
        -48 -2 -8 -51 -42 vvcurveto
        endchar
      </CharString>
      <CharString index="18">
        rmoveto
        1 -7 -5 0 -16 hhcurveto
        -27 -21 -5 -9 -13 hvcurveto
        3 -16 -43 -51 -46 -32 -54 -19 rlinecurve
        -17 16 18 -9 20 hhcurveto
        32 45 23 33 37 hvcurveto
        return
      </CharString>
      <CharString index="19">
        rmoveto
        -56 -49 -72 -38 -59 -13 rrcurveto
        -13 16 17 -6 22 hhcurveto
        42 46 13 42 102 hvcurveto
        24 -30 32 -28 8 vhcurveto
        endchar
      </CharString>
      <CharString index="20">
        -20 hstem
        73 20 rmoveto
        9 -20 49 -32 24 -2 39 184 43 71 126 87 13 -39 30 -35 36 -18 20 20 20 27 1 8 rrcurveto
        -9 15 -4 22 29 vvcurveto
        32 6 31 12 32 vhcurveto
        10 -6 -20 7 -19 hhcurveto
        -11 -5 -1 -4 -5 hvcurveto
        -48 -72 -54 -54 -71 -64 28 85 25 51 36 42 -16 19 -47 23 -37 6 -16 -16 -12 -21 -17 -41 -48 -114 -59 -190 -13 -78 rrcurveto
        return
      </CharString>
      <CharString index="21">
        22 2 72 48 15 23 -1 4 -3 6 -3 5 -28 -22 -37 -16 -40 -5 rrcurveto
        -21 3 -12 16 30 vvcurveto
        82 40 130 66 128 vhcurveto
        46 1 41 7 32 12 rrcurveto
        11 -5 11 -6 6 vhcurveto
        -3 -28 -28 -1 -26 hhcurveto
        33 56 25 39 40 50 rrcurveto
        15 -13 -64 21 -27 hhcurveto
        -22 -12 -58 -86 -40 -79 -27 1 -32 3 -35 2 rrcurveto
        -18 7 -33 6 -8 vhcurveto
        return
      </CharString>
      <CharString index="22">
        103 176 rmoveto
        -105 71 -92 88 -8 vhcurveto
        45 8 82 57 44 55 rrcurveto
        6 -5 10 -5 4 vhcurveto
        -62 -46 -72 -35 -39 -5 rrcurveto
        -24 11 -12 32 54 vvcurveto
        85 31 80 57 64 vhcurveto
        41 37 45 28 26 hhcurveto
        15 8 -10 -19 -33 -22 -37 -45 -41 hvcurveto
        return
      </CharString>
      <CharString index="23">
        rmoveto
        77 19 56 54 13 65 -4 11 -5 6 -7 2 -23 -52 -31 -37 -50 -12 -41 5 -39 30 -18 85 -24 -5 -35 -4 -10 -22 19 -101 68 -39 54 -5 rrcurveto
        endchar
      </CharString>
      <CharString index="24">
        rmoveto
        -58 52 -35 53 -4 vhcurveto
        27 3 59 36 27 33 -6 12 rcurveline
        -17 -23 -50 -29 -34 hhcurveto
        -23 -16 12 35 return
      </CharString>
      <CharString index="25">
        94 rmoveto
        -47 9 -32 12 -9 vhcurveto
        8 -6 7 -10 10 -16 5 -9 12 -5 21 -2 rrcurveto
        -2 6 -1 9 8 vvcurveto
        61 24 89 31 54 vhcurveto
        77 134 97 101 53 2 rrcurveto
        6 5 -4 -4 -42 -30 -49 -58 -56 hvcurveto
        -31 -30 -30 -25 -18 -12 14 -82 20 -81 20 -54 rrcurveto
        -67 25 32 -38 36 hhcurveto
        44 46 27 27 12 hvcurveto
        -93 53 -54 108 -27 92 rrcurveto
        79 16 75 96 85 vvcurveto
        35 -15 29 -29 21 vhcurveto
        -80 -3 -103 -94 -86 -148 return
      </CharString>
      <CharString index="26">
        -7 -9 -1 -9 hhcurveto
        42 100 58 111 34 17 -13 15 -37 7 -42 8 -27 -41 -52 -20 -41 -39 rrcurveto
        -9 6 -7 12 -3 vhcurveto
        15 10 19 11 19 8 -26 -57 -26 -60 -19 -58 -44 -6 -42 -7 -7 -5 rrcurveto
        return
      </CharString>
      <CharString index="27">
        rmoveto
        -46 9 52 -36 82 hhcurveto
        44 51 4 28 59 hvcurveto
        -5 24 -13 40 -16 16 rrcurveto
        -32 -68 -52 -14 -51 hhcurveto
        -30 -30 5 11 -32 hvcurveto
        endchar
      </CharString>
      <CharString index="28">
        107 46 69 79 31 110 -7 33 -67 34 -68 4 rrcurveto
        9 -37 3 -24 -40 vvcurveto
        -61 -27 -49 -66 -57 -70 callsubr
        return
      </CharString>
      <CharString index="29">
        215 -35 rmoveto
        160 34 115 143 167 vvcurveto
        64 -17 30 -36 vhcurveto
        -32 callgsubr
        return
      </CharString>
      <CharString index="30">
        10 4 15 14 1 12 -6 2 -24 6 -8 3 -41 13 -68 25 -30 16 -70 37 -16 13 -12 22 66 20 170 63 86 20 rrcurveto
        3 13 23 5 14 hhcurveto
        9 8 -3 -10 5 hvcurveto
        14 17 17 22 24 vvcurveto
        27 -39 52 -37 16 vhcurveto
        -123 -76 -57 -32 -98 -28 -64 -18 -86 -14 -27 -29 1 -25 11 -23 10 -16 22 -34 26 -21 31 -18 80 -47 78 -20 96 -22 rrcurveto
        return
      </CharString>
      <CharString index="31">
        -45 -131 -22 -167 hhcurveto
        -40 -21 1 4 -26 hvcurveto
        -4 -10 -4 -18 -10 vvcurveto
        return
      </CharString>
      <CharString index="32">
        5 10 10 9 4 hvcurveto
        60 141 106 146 95 71 rrcurveto
        11 14 21 13 4 hhcurveto
        1 3 -3 -1 hvcurveto
        -65 -131 -48 -126 -39 vvcurveto
        -31 27 -32 27 21 76 36 10 3 -1 3 -6 10 vhcurveto
        -3 -12 -8 -20 hhcurveto
        -13 -3 4 13 54 105 186 82 90 hvcurveto
        38 -30 -44 25 -35 hhcurveto
        -61 -97 -83 -162 -127 hvcurveto
        24 96 31 74 51 100 return
      </CharString>
      <CharString index="33">
        rmoveto
        87 46 55 79 25 110 -8 33 -66 34 -68 4 rrcurveto
        4 -32 2 -29 -27 vvcurveto
        -70 -14 -54 -33 -56 -67 callsubr
      </CharString>
      <CharString index="34">
        -20 hstem
        90 95 1 callgsubr
        14 -1 13 -2 11 vhcurveto
        30 39 28 40 28 40 rrcurveto
        22 -9 -25 13 -32 hhcurveto
        -9 -28 -19 -35 -24 -38 rrcurveto
        2 -5 -6 1 -7 -15 callsubr
        -43 11 -36 19 -28 vhcurveto
        -33 -26 -31 -21 -24 -11 1 -19 10 -16 15 -3 28 17 31 22 33 26 18 -13 22 -8 25 -3 rrcurveto
        15 callgsubr
        6 -10 4 -13 2 -19 -64 -90 -87 -99 -80 -75 rrcurveto
        53 35 89 46 61 vhcurveto
        146 -26 rmoveto
        -19 -127 -79 -99 -103 -22 -6 2 -6 7 -5 11 70 62 75 79 73 87 rrcurveto
        return
      </CharString>
      <CharString index="35">
        hstem
        758 84 vstem
        168 52 rmoveto
        -83 39 80 -45 109 hhcurveto
        238 208 233 260 191 -151 130 -213 -169 -127 -82 -123 -26 hvcurveto
        8 -41 29 -29 30 -10 31 106 62 72 83 34 return
      </CharString>
      <CharString index="36">
        -53 callgsubr
        -53 8 -23 hhcurveto
        -135 -128 -90 -438 -51 vvcurveto
        -72 38 -31 85 -14 vhcurveto
        3 6 3 11 1 6 rrcurveto
        -36 9 -16 31 47 vvcurveto
        39 12 53 22 68 vhcurveto
        5 -22 22 -7 15 -1 8 1 19 12 16 18 23 25 71 104 -2 callsubr
      </CharString>
      <CharString index="37">
        190 -76 rmoveto
        -2 8 -1 9 28 vvcurveto
        159 106 362 76 121 vhcurveto
        8 -231 19 -188 55 -223 rrcurveto
        return
      </CharString>
      <CharString index="38">
        vhcurveto
        -13 -58 -65 -7 -72 hhcurveto
        -31 -30 1 2 -30 hvcurveto
        endchar
      </CharString>
      <CharString index="39">
        -51 -84 57 -75 hhcurveto
        -34 -33 -13 -22 -23 hvcurveto
        -1 -3 0 -4 -12 vvcurveto
        -35 15 -30 31 -27 vhcurveto
        24 29 29 10 39 hhcurveto
        20 31 -5 -12 55 hvcurveto
        -174 -125 -161 -157 -44 vvcurveto
        return
      </CharString>
      <CharString index="40">
        -10 -4 -15 -16 -1 -12 78 -1 94 -29 65 -35 70 -37 16 -13 12 -22 -66 -20 -172 -55 -84 -28 rrcurveto
        -49 -16 -34 -25 -30 vvcurveto
        -24 17 -27 39 -31 vhcurveto
        123 76 57 32 98 28 64 18 86 14 27 29 -3 66 -56 46 -42 25 rrcurveto
        47 -98 -95 44 -121 hhcurveto
        return
      </CharString>
      <CharString index="41">
        -19 -48 -20 -33 -32 -27 rrcurveto
        -7 12 12 -4 12 hhcurveto
        36 47 39 48 35 hvcurveto
        -16 18 -37 10 -30 4 rrcurveto
        return
      </CharString>
      <CharString index="42">
        -72 callgsubr
        -28 -94 -144 -385 -59 -134 rrcurveto
        353 636 rmoveto
        145 92 -80 -137 -246 -181 -214 -217 -31 -28 3 6 -18 hvcurveto
        38 32 94 76 169 vhcurveto
        60 133 67 130 21 29 -30 callsubr
        return
      </CharString>
      <CharString index="43">
        -16 11 18 -11 16 hhcurveto
        38 38 60 61 64 -39 36 -69 -140 -136 -147 -151 hvcurveto
        return
      </CharString>
      <CharString index="44">
        -20 hstem
        491 98 vstem
        491 58 rmoveto
        -23 12 -60 19 -7 vhcurveto
        25 -10 -14 -35 58 -3 rrcurveto
        -1 5 -1 8 13 vvcurveto
        73 30 147 45 143 vhcurveto
        13 -1 12 -1 12 -2 rrcurveto
        5 10 3 14 11 vvcurveto
        18 -7 15 -13 12 vhcurveto
        41 118 50 105 47 44 -13 24 -71 36 -26 2 -38 -40 -58 -131 -48 -139 -65 -4 -91 -10 -82 -11 55 124 43 100 25 32 -33 54 -48 43 -55 10 -32 -177 -7 -29 return
      </CharString>
      <CharString index="45">
        -40 -95 -23 -48 28 -45 31 -31 30 -12 return
      </CharString>
      <CharString index="46">
        315 467 rmoveto
        -52 callgsubr
        138 -61 177 -76 82 vhcurveto
        -34 -6 -50 -41 -9 -25 97 -155 24 -74 12 -106 4 callgsubr
        -481 -59 callsubr
        return
      </CharString>
      <CharString index="47">
        606 rmoveto
        39 51 5 7 56 hvcurveto
        -16 -62 -32 -90 -28 -76 -73 -201 -36 -106 -22 -83 30 -49 36 -28 46 -7 -27 callgsubr
        return
      </CharString>
      <CharString index="48">
        rmoveto
        -31 -1 -14 -1 -11 vhcurveto
        -9 41 49 -4 62 hhcurveto
        52 53 0 9 49 hvcurveto
        return
      </CharString>
      <CharString index="49">
        93 90 28 134 hhcurveto
        18 23 -1 -4 39 hvcurveto
        57 -11 -24 32 -29 hhcurveto
        return
      </CharString>
</ttFont>
